<svg width="95" height="95" viewBox="0 0 95 95" fill="none" xmlns="http://www.w3.org/2000/svg">
<rect width="95" height="95" fill="white"/>
<path d="M47.1079 45.8052C39.1399 45.8052 32.6799 52.2662 32.6799 60.2352C32.6799 68.2082 39.1399 74.6672 47.1079 74.6672C55.0759 74.6672 61.5349 68.2082 61.5349 60.2352C61.5349 52.2662 55.0759 45.8052 47.1079 45.8052ZM46.0389 51.5062C46.0389 51.0262 46.5209 50.4962 47.1139 50.4962C47.7049 50.4962 48.1819 51.0252 48.1819 51.5062V56.4592C48.1819 56.9382 47.7049 57.4611 47.1139 57.4611C46.5209 57.4611 46.0389 56.9382 46.0389 56.4592V51.5062ZM47.1099 67.6292C42.9659 67.6292 39.6049 64.2701 39.6049 60.1241C39.6049 56.7561 41.8229 53.9042 44.8789 52.9572V55.7501C43.2889 56.5631 42.1969 58.2131 42.1969 60.1241C42.1969 62.8381 44.3959 65.0361 47.1099 65.0361C49.8239 65.0361 52.0229 62.8381 52.0229 60.1241C52.0229 58.2091 50.9259 56.5551 49.3279 55.7421V52.9512C52.3899 53.8982 54.6159 56.7501 54.6159 60.1241C54.6159 64.2701 51.2549 67.6292 47.1099 67.6292Z" fill="#FCC30B"/>
<path d="M30.545 60.1078C30.545 59.4548 29.966 58.9229 29.436 58.9229H23.117C22.584 58.9229 22 59.4538 22 60.1078C22 60.7638 22.584 61.2968 23.117 61.2968H29.436C29.965 61.2978 30.545 60.7648 30.545 60.1078Z" fill="#FCC30B"/>
<path d="M72.222 60.1078C72.222 59.4548 71.643 58.9229 71.113 58.9229H64.794C64.262 58.9229 63.677 59.4538 63.677 60.1078C63.677 60.7638 64.262 61.2968 64.794 61.2968H71.113C71.643 61.2978 72.222 60.7648 72.222 60.1078Z" fill="#FCC30B"/>
<path d="M47.1129 43.544C47.7659 43.544 48.297 42.965 48.297 42.436V36.117C48.297 35.584 47.7659 35 47.1129 35C46.4579 35 45.924 35.584 45.924 36.117V42.436C45.924 42.965 46.4589 43.544 47.1129 43.544Z" fill="#FCC30B"/>
<path d="M47.1129 85.2217C47.7659 85.2217 48.297 84.6427 48.297 84.1127V77.7957C48.297 77.2637 47.7659 76.6777 47.1129 76.6777C46.4579 76.6777 45.924 77.2637 45.924 77.7957V84.1127C45.924 84.6427 46.4589 85.2217 47.1129 85.2217Z" fill="#FCC30B"/>
<path d="M32.733 51.879C33.058 51.311 32.819 50.565 32.359 50.301L26.875 47.162C26.413 46.897 25.642 47.068 25.317 47.635C24.992 48.203 25.234 48.957 25.697 49.221L31.181 52.3619C31.641 52.6229 32.408 52.449 32.733 51.879Z" fill="#FCC30B"/>
<path d="M68.906 72.5818C69.23 72.0148 68.991 71.2678 68.532 71.0038L63.048 67.8648C62.586 67.5988 61.814 67.7697 61.49 68.3377C61.165 68.9057 61.407 69.6607 61.869 69.9237L67.353 73.0638C67.813 73.3258 68.58 73.1518 68.906 72.5818Z" fill="#FCC30B"/>
<path d="M55.342 45.7334C55.91 46.0574 56.656 45.8183 56.92 45.3593L60.058 39.8753C60.324 39.4123 60.154 38.6424 59.586 38.3164C59.018 37.9904 58.263 38.2343 57.999 38.6973L54.861 44.1804C54.597 44.6414 54.772 45.4084 55.342 45.7334Z" fill="#FCC30B"/>
<path d="M34.64 81.9058C35.207 82.2298 35.955 81.9908 36.218 81.5318L39.356 76.0478C39.621 75.5858 39.451 74.8148 38.884 74.4888C38.316 74.1638 37.561 74.4068 37.297 74.8688L34.159 80.3528C33.895 80.8118 34.07 81.5808 34.64 81.9058Z" fill="#FCC30B"/>
<path d="M38.854 45.7478C39.421 45.4218 39.592 44.6538 39.328 44.1968L36.178 38.7178C35.911 38.2558 35.162 38.0128 34.594 38.3398C34.025 38.6658 33.855 39.4388 34.122 39.9018L37.271 45.3788C37.536 45.8368 38.284 46.0738 38.854 45.7478Z" fill="#FCC30B"/>
<path d="M59.63 81.8782C60.197 81.5532 60.368 80.7851 60.104 80.3271L56.955 74.8491C56.688 74.3871 55.938 74.1441 55.37 74.4711C54.801 74.7961 54.631 75.5702 54.898 76.0322L58.047 81.5112C58.312 81.9692 59.062 82.2052 59.63 81.8782Z" fill="#FCC30B"/>
<path d="M61.474 51.8532C61.799 52.4192 62.566 52.5911 63.025 52.3281L68.502 49.1782C68.964 48.9122 69.208 48.1601 68.881 47.5941C68.554 47.0261 67.783 46.8562 67.32 47.1212L61.843 50.2711C61.383 50.5331 61.147 51.2852 61.474 51.8532Z" fill="#FCC30B"/>
<path d="M25.344 72.6312C25.669 73.1982 26.436 73.3681 26.895 73.1041L32.372 69.9551C32.834 69.6901 33.078 68.9381 32.75 68.3721C32.425 67.8031 31.651 67.6332 31.19 67.8992L25.713 71.0471C25.253 71.3111 25.017 72.0622 25.344 72.6312Z" fill="#FCC30B"/>
<path d="M28.5625 13.5H29.5625L29.0625 10.5L28.5625 13.5ZM27.0625 16L28.5625 9H29.5625L31.0625 16H30.0625L29.6875 14.25H28.4375L28.0625 16H27.0625ZM31.625 16V9H34.375V9.75H32.625V12H33.875V12.75H32.625V16H31.625ZM34.8359 16V9H37.5859V9.75H35.8359V12H37.0859V12.75H35.8359V16H34.8359ZM39.8516 16.0703C39.5 16.0703 39.1979 16.0169 38.9453 15.9102C38.6953 15.8034 38.4961 15.6471 38.3477 15.4414C38.1992 15.2357 38.0911 14.9948 38.0234 14.7188C37.9557 14.4401 37.9219 14.1172 37.9219 13.75V11.2109C37.9219 10.8438 37.9557 10.5234 38.0234 10.25C38.0911 9.97656 38.1992 9.73958 38.3477 9.53906C38.4961 9.33594 38.6953 9.18359 38.9453 9.08203C39.1979 8.98047 39.5 8.92969 39.8516 8.92969C40.5339 8.92969 41.026 9.125 41.3281 9.51562C41.6302 9.90625 41.7812 10.4714 41.7812 11.2109V13.75C41.7812 14.112 41.7461 14.4323 41.6758 14.7109C41.6081 14.987 41.5 15.2292 41.3516 15.4375C41.2031 15.6432 41.0026 15.8008 40.75 15.9102C40.5 16.0169 40.2005 16.0703 39.8516 16.0703ZM39.1211 14.9336C39.2565 15.1445 39.5 15.25 39.8516 15.25C40.2031 15.25 40.4453 15.1445 40.5781 14.9336C40.7135 14.7227 40.7812 14.4115 40.7812 14V10.9609C40.7812 10.5547 40.7148 10.2513 40.582 10.0508C40.4492 9.85026 40.2057 9.75 39.8516 9.75C39.4974 9.75 39.2539 9.85026 39.1211 10.0508C38.9883 10.2513 38.9219 10.5547 38.9219 10.9609V14C38.9219 14.4115 38.9883 14.7227 39.1211 14.9336ZM43.6562 12H43.9062C44.3229 12 44.6354 11.9128 44.8438 11.7383C45.0521 11.5612 45.1562 11.2734 45.1562 10.875C45.1562 10.4766 45.0521 10.1901 44.8438 10.0156C44.6354 9.83854 44.3229 9.75 43.9062 9.75H43.6562V12ZM42.6562 16V9H43.9062C44.651 9 45.2122 9.14453 45.5898 9.43359C45.9674 9.72266 46.1562 10.2031 46.1562 10.875C46.1562 11.2917 46.082 11.6406 45.9336 11.9219C45.7852 12.2031 45.5677 12.3958 45.2812 12.5L46.4062 16H45.4141L44.4062 12.75H43.6562V16H42.6562ZM46.9844 16V9H48.5352C49.2669 9 49.7826 9.14974 50.082 9.44922C50.3841 9.7487 50.5352 10.2656 50.5352 11V13.75C50.5352 14.5182 50.3815 15.0859 50.0742 15.4531C49.7695 15.8177 49.2539 16 48.5273 16H46.9844ZM47.9844 15.25H48.5352C48.6992 15.25 48.8398 15.2357 48.957 15.207C49.0742 15.1758 49.1693 15.1211 49.2422 15.043C49.3151 14.9622 49.3724 14.8867 49.4141 14.8164C49.4557 14.7435 49.4844 14.6315 49.5 14.4805C49.5182 14.3294 49.5286 14.2057 49.5312 14.1094C49.5339 14.0104 49.5352 13.8581 49.5352 13.6523C49.5352 13.5846 49.5352 13.5339 49.5352 13.5V11.25C49.5352 11.1224 49.5339 11.0208 49.5312 10.9453C49.5312 10.8698 49.5273 10.7812 49.5195 10.6797C49.5143 10.5755 49.5052 10.4935 49.4922 10.4336C49.4792 10.3737 49.4609 10.3073 49.4375 10.2344C49.4141 10.1589 49.3841 10.1003 49.3477 10.0586C49.3138 10.0169 49.2708 9.97396 49.2188 9.92969C49.1693 9.88281 49.1107 9.84896 49.043 9.82812C48.9779 9.80469 48.901 9.78646 48.8125 9.77344C48.724 9.75781 48.625 9.75 48.5156 9.75H47.9844V15.25ZM52.3516 13.5H53.3516L52.8516 10.5L52.3516 13.5ZM50.8516 16L52.3516 9H53.3516L54.8516 16H53.8516L53.4766 14.25H52.2266L51.8516 16H50.8516ZM56.4141 12H56.9141C57.7474 12 58.1641 11.5833 58.1641 10.75C58.1641 10.612 58.1471 10.4909 58.1133 10.3867C58.0794 10.2799 58.0391 10.1914 57.9922 10.1211C57.9453 10.0508 57.8737 9.99219 57.7773 9.94531C57.6836 9.89583 57.5977 9.85807 57.5195 9.83203C57.4414 9.80599 57.3294 9.78776 57.1836 9.77734C57.0404 9.76432 56.9206 9.75651 56.8242 9.75391C56.7279 9.7513 56.5911 9.75 56.4141 9.75V12ZM56.4141 15.25H56.9141C57.3464 15.25 57.6628 15.151 57.8633 14.9531C58.0638 14.7526 58.1641 14.4349 58.1641 14C58.1641 13.5651 58.0638 13.2487 57.8633 13.0508C57.6628 12.8503 57.3464 12.75 56.9141 12.75H56.4141V15.25ZM55.4141 16V9H56.9141C57.237 9 57.526 9.03385 57.7812 9.10156C58.0365 9.16927 58.2591 9.27214 58.4492 9.41016C58.6419 9.54818 58.7891 9.73047 58.8906 9.95703C58.9948 10.1836 59.0469 10.4479 59.0469 10.75C59.0469 11.1875 58.9544 11.5208 58.7695 11.75C58.5846 11.9766 58.2995 12.1432 57.9141 12.25C58.3307 12.388 58.6432 12.5911 58.8516 12.8594C59.0599 13.125 59.1641 13.5052 59.1641 14C59.1641 14.6172 58.9844 15.1055 58.625 15.4648C58.2682 15.8216 57.7812 16 57.1641 16H55.4141ZM59.8906 16V9H60.8906V15.25H62.6406V16H59.8906ZM63.1094 16V9H65.8594V9.75H64.1094V12H65.3594V12.75H64.1094V15.25H65.8594V16H63.1094ZM69.1641 13.5H70.1641L69.6641 10.5L69.1641 13.5ZM67.6641 16L69.1641 9H70.1641L71.6641 16H70.6641L70.2891 14.25H69.0391L68.6641 16H67.6641ZM72.2266 16V9H72.9766L74.7266 13.3281V9H75.7266V16H75.0156L73.2266 11.3438V16H72.2266ZM76.7266 16V9H78.2773C79.0091 9 79.5247 9.14974 79.8242 9.44922C80.1263 9.7487 80.2773 10.2656 80.2773 11V13.75C80.2773 14.5182 80.1237 15.0859 79.8164 15.4531C79.5117 15.8177 78.9961 16 78.2695 16H76.7266ZM77.7266 15.25H78.2773C78.4414 15.25 78.582 15.2357 78.6992 15.207C78.8164 15.1758 78.9115 15.1211 78.9844 15.043C79.0573 14.9622 79.1146 14.8867 79.1562 14.8164C79.1979 14.7435 79.2266 14.6315 79.2422 14.4805C79.2604 14.3294 79.2708 14.2057 79.2734 14.1094C79.276 14.0104 79.2773 13.8581 79.2773 13.6523C79.2773 13.5846 79.2773 13.5339 79.2773 13.5V11.25C79.2773 11.1224 79.276 11.0208 79.2734 10.9453C79.2734 10.8698 79.2695 10.7812 79.2617 10.6797C79.2565 10.5755 79.2474 10.4935 79.2344 10.4336C79.2214 10.3737 79.2031 10.3073 79.1797 10.2344C79.1562 10.1589 79.1263 10.1003 79.0898 10.0586C79.056 10.0169 79.013 9.97396 78.9609 9.92969C78.9115 9.88281 78.8529 9.84896 78.7852 9.82812C78.7201 9.80469 78.6432 9.78646 78.5547 9.77344C78.4661 9.75781 78.3672 9.75 78.2578 9.75H77.7266V15.25ZM29.2969 26.0703C29.0026 26.0703 28.7435 26.0286 28.5195 25.9453C28.2956 25.862 28.112 25.7474 27.9688 25.6016C27.8255 25.4531 27.7083 25.2695 27.6172 25.0508C27.5286 24.8294 27.4661 24.5938 27.4297 24.3438C27.3932 24.0938 27.375 23.8112 27.375 23.4961V21.5C27.375 21.1849 27.3932 20.9023 27.4297 20.6523C27.4661 20.4023 27.5286 20.168 27.6172 19.9492C27.7083 19.7279 27.8255 19.5443 27.9688 19.3984C28.112 19.2526 28.2956 19.138 28.5195 19.0547C28.7435 18.9714 29.0026 18.9297 29.2969 18.9297C29.6224 18.9297 29.9036 18.9779 30.1406 19.0742C30.3776 19.1706 30.5664 19.3125 30.707 19.5C30.8503 19.6875 30.957 19.9049 31.0273 20.1523C31.1003 20.3997 31.1432 20.6888 31.1562 21.0195C31.1589 21.069 31.1602 21.1458 31.1602 21.25H30.1602V21.0273C30.1576 20.8893 30.1523 20.7721 30.1445 20.6758C30.1367 20.5768 30.1224 20.4753 30.1016 20.3711C30.0807 20.2669 30.0495 20.181 30.0078 20.1133C29.9688 20.043 29.918 19.9792 29.8555 19.9219C29.7956 19.862 29.7188 19.819 29.625 19.793C29.5312 19.7643 29.4219 19.75 29.2969 19.75C29.1354 19.75 28.9961 19.776 28.8789 19.8281C28.7643 19.8802 28.6745 19.9479 28.6094 20.0312C28.5443 20.112 28.4935 20.2214 28.457 20.3594C28.4232 20.4974 28.401 20.6328 28.3906 20.7656C28.3802 20.8958 28.375 21.0573 28.375 21.25V23.75C28.375 23.9167 28.3815 24.0677 28.3945 24.2031C28.4102 24.3385 28.4388 24.474 28.4805 24.6094C28.5221 24.7422 28.5755 24.8542 28.6406 24.9453C28.7083 25.0365 28.7969 25.1107 28.9062 25.168C29.0182 25.2227 29.1484 25.25 29.2969 25.25C29.4453 25.25 29.5729 25.2214 29.6797 25.1641C29.7865 25.1068 29.8698 25.0339 29.9297 24.9453C29.9922 24.8568 30.0404 24.7435 30.0742 24.6055C30.1107 24.4674 30.1341 24.3333 30.1445 24.2031C30.1549 24.0729 30.1602 23.9219 30.1602 23.75V23.5H31.1602V23.75C31.1602 24.112 31.1276 24.4297 31.0625 24.7031C31 24.9766 30.8971 25.2188 30.7539 25.4297C30.6133 25.638 30.4206 25.7969 30.1758 25.9062C29.9336 26.0156 29.6406 26.0703 29.2969 26.0703ZM31.8281 26V19H32.8281V25.25H34.5781V26H31.8281ZM35.0469 26V19H37.7969V19.75H36.0469V22H37.2969V22.75H36.0469V25.25H37.7969V26H35.0469ZM39.4766 23.5H40.4766L39.9766 20.5L39.4766 23.5ZM37.9766 26L39.4766 19H40.4766L41.9766 26H40.9766L40.6016 24.25H39.3516L38.9766 26H37.9766ZM42.5391 26V19H43.2891L45.0391 23.3281V19H46.0391V26H45.3281L43.5391 21.3438V26H42.5391ZM48.6641 26V19H51.4141V19.75H49.6641V22H50.9141V22.75H49.6641V25.25H51.4141V26H48.6641ZM52.0312 26V19H52.7812L54.5312 23.3281V19H55.5312V26H54.8203L53.0312 21.3438V26H52.0312ZM56.5312 26V19H59.2812V19.75H57.5312V22H58.7812V22.75H57.5312V25.25H59.2812V26H56.5312ZM60.8984 22H61.1484C61.5651 22 61.8776 21.9128 62.0859 21.7383C62.2943 21.5612 62.3984 21.2734 62.3984 20.875C62.3984 20.4766 62.2943 20.1901 62.0859 20.0156C61.8776 19.8385 61.5651 19.75 61.1484 19.75H60.8984V22ZM59.8984 26V19H61.1484C61.8932 19 62.4544 19.1445 62.832 19.4336C63.2096 19.7227 63.3984 20.2031 63.3984 20.875C63.3984 21.2917 63.3242 21.6406 63.1758 21.9219C63.0273 22.2031 62.8099 22.3958 62.5234 22.5L63.6484 26H62.6562L61.6484 22.75H60.8984V26H59.8984ZM66.1016 26.0703C65.7812 26.0703 65.5026 26.0247 65.2656 25.9336C65.0312 25.8424 64.8398 25.7188 64.6914 25.5625C64.543 25.4062 64.4245 25.207 64.3359 24.9648C64.2474 24.7227 64.1862 24.4674 64.1523 24.1992C64.1185 23.931 64.1016 23.6224 64.1016 23.2734V21.5C64.1016 19.7865 64.7812 18.9297 66.1406 18.9297C66.4661 18.9297 66.7487 18.9792 66.9883 19.0781C67.2279 19.1745 67.4219 19.3164 67.5703 19.5039C67.7188 19.6914 67.8307 19.9115 67.9062 20.1641C67.9818 20.4141 68.026 20.7044 68.0391 21.0352C68.0417 21.082 68.043 21.1536 68.043 21.25H67.043V21.0391C67.0404 20.875 67.0312 20.7344 67.0156 20.6172C67.0026 20.4974 66.9766 20.3802 66.9375 20.2656C66.901 20.151 66.8503 20.0586 66.7852 19.9883C66.7201 19.9154 66.6328 19.8581 66.5234 19.8164C66.4167 19.7721 66.2891 19.75 66.1406 19.75C65.9375 19.75 65.7656 19.7878 65.625 19.8633C65.487 19.9362 65.3802 20.0443 65.3047 20.1875C65.2318 20.3281 65.1797 20.4844 65.1484 20.6562C65.1172 20.8255 65.1016 21.0234 65.1016 21.25V23.5C65.1016 23.6667 65.1068 23.8177 65.1172 23.9531C65.1276 24.0859 65.1445 24.2227 65.168 24.3633C65.194 24.5013 65.2305 24.6211 65.2773 24.7227C65.3268 24.8242 65.3867 24.9167 65.457 25C65.5299 25.0807 65.6198 25.1432 65.7266 25.1875C65.8359 25.2292 65.9609 25.25 66.1016 25.25C66.2682 25.25 66.4128 25.2174 66.5352 25.1523C66.6576 25.0872 66.7539 25.0039 66.8242 24.9023C66.8971 24.7982 66.9544 24.6667 66.9961 24.5078C67.0378 24.349 67.0651 24.1914 67.0781 24.0352C67.0938 23.8789 67.1016 23.7005 67.1016 23.5V23.25H66.1016V22.5078H68.1016V26H67.3516L67.1016 25.25C66.9062 25.7969 66.5729 26.0703 66.1016 26.0703ZM69.9023 26V23.75L68.4023 19H69.4023L70.4023 22.5L71.4023 19H72.4023L70.9023 23.75V26H69.9023Z" fill="#FCC30B"/>
<path d="M11.9482 26L15.3115 9.80908H10.4614V7.625H17.8135V8.88623L14.4707 26H11.9482Z" fill="#FCC30B"/>
</svg>
