<svg width="95" height="95" viewBox="0 0 95 95" fill="none" xmlns="http://www.w3.org/2000/svg">
<rect width="95" height="95" fill="white"/>
<path d="M83.558 66.163C80.964 62.525 69.231 48 47.423 48C25.609 48 13.88 62.525 11.283 66.163C11.173 66.319 11.077 66.453 11 66.568C11.077 66.685 11.173 66.819 11.283 66.9771C13.88 70.6131 25.609 85.139 47.423 85.139C69.231 85.139 80.964 70.6131 83.558 66.9771C83.671 66.819 83.764 66.685 83.839 66.568C83.764 66.453 83.671 66.319 83.558 66.163ZM35.256 57.186C35.452 56.897 36.106 56.074 36.185 55.97C36.353 55.752 36.686 55.708 36.921 55.667C37.152 55.622 37.46 55.752 37.498 55.927C37.537 56.102 37.408 56.7769 37.294 56.8929C36.974 57.2249 36.141 57.694 35.682 57.62C35.328 57.564 35.189 57.29 35.256 57.186ZM34.477 58.734C34.512 58.693 34.543 58.659 34.556 58.642C34.83 58.329 35.376 58.263 35.753 58.204C36.132 58.14 36.636 58.3301 36.697 58.5811C36.762 58.8311 35.749 59.2901 35.564 59.4611C35.039 59.9451 34.218 60.931 33.737 61.035C33.58 61.071 33.451 61.047 33.345 60.995C33.661 60.207 34.039 59.449 34.477 58.734ZM42.639 75.479C42.344 76.641 41.999 77.059 41.705 77.426C41.412 77.796 40.324 78.269 39.634 78.218C38.943 78.166 38.847 76.322 38.847 75.373C38.847 75.046 38.383 76.018 38.141 74.043C37.986 72.779 37.175 74.176 37.118 73.332C37.06 72.491 36.655 72.658 36.229 72.134C35.805 71.608 35.276 72.185 34.683 72.45C34.094 72.712 34.337 72.8501 33.499 72.5861C33.478 72.5791 33.467 72.5729 33.446 72.5649C32.677 70.7469 32.252 68.749 32.252 66.652C32.252 66.139 32.28 65.635 32.327 65.135C32.356 65.084 32.386 65.035 32.421 64.993C33.225 64.042 33.207 63.8199 33.207 63.8199L34.096 63.512C34.096 63.512 35.515 63.7301 36.585 64.1331C37.465 64.4631 38.853 65.21 39.659 64.882C40.242 64.641 40.698 64.321 40.644 63.837C40.578 63.227 40.098 63.0819 39.518 63.4919C39.303 63.6439 38.847 62.574 38.489 62.63C38.131 62.683 38.932 63.886 38.628 63.937C38.324 63.989 37.712 62.6829 37.607 62.4709C37.504 62.2609 37.031 61.737 36.608 62.137C35.711 62.988 34.256 62.936 33.964 63.155C33.074 63.821 32.84 62.9359 32.859 62.3979C32.895 62.2739 32.931 62.15 32.971 62.028C33.261 61.708 34.304 61.602 34.661 61.84C35.055 62.104 35.337 61.7731 35.49 61.6121C35.646 61.4571 35.591 61.204 35.493 60.995C35.394 60.784 35.69 60.63 35.893 60.575C36.098 60.521 36.775 60.0479 37.045 59.8879C37.318 59.7319 38.722 59.561 39.352 59.875C39.981 60.192 40.559 59.934 40.869 59.569C41.256 59.108 41.751 58.757 41.97 58.65C42.191 58.548 41.428 57.8371 40.801 58.6121C40.173 59.3841 39.854 59.455 39.558 59.455C39.263 59.455 37.509 59.018 37.293 58.464C37.079 57.91 37.841 57.495 38.489 57.182C39.136 56.873 40.907 56.878 41.36 56.775C42.281 56.573 43.458 56.111 44.05 56.514C44.641 56.91 41.575 57.609 42.582 58.153C42.941 58.35 44.562 57.221 45.117 56.932C46.424 56.258 43.85 56.035 44.184 54.665C44.562 53.116 41.027 53.716 39.266 53.848C41.628 52.333 44.435 51.452 47.448 51.452C54.615 51.452 60.62 56.4179 62.221 63.0959C62.232 63.4259 62.181 63.663 62.147 63.799C62.009 64.347 60.971 64.818 60.368 63.936C60.214 63.714 59.562 63.099 59.585 64.151C59.606 65.204 60.608 65.312 59.636 65.944C58.667 66.576 58.488 66.424 58.039 66.583C57.592 66.741 57.158 67.826 57.265 68.406C57.373 68.986 58.758 70.57 57.731 70.506C57.49 70.487 55.674 69.247 55.375 68.45C55.058 67.61 54.713 66.789 54.468 66.156C54.22 65.525 53.58 65.363 53.036 65.735C52.497 66.105 53.187 66.474 52.799 67.266C52.412 68.056 52.133 68.761 51.563 68.108C50.08 66.409 47.925 67.2481 47.587 65.3571C47.404 64.3311 46.521 64.43 45.784 63.849C45.042 63.272 44.629 62.957 44.504 63.375C44.394 63.742 46.826 65.6709 46.999 66.1639C47.257 66.8969 46.271 67.546 45.549 67.72C44.83 67.892 44.513 67.315 43.805 66.577C43.097 65.842 42.787 65.314 42.738 65.892C42.667 66.728 43.411 67.955 44.132 68.413C44.747 68.804 45.436 68.979 45.236 69.611C45.036 70.245 45.233 69.887 44.544 70.568C43.854 71.254 43.723 71.473 43.773 72.42C43.822 73.368 43.576 73.423 43.427 74.212C43.28 75.005 42.938 74.322 42.639 75.479ZM58.938 69.421C59.449 69.38 60.216 70.087 59.916 70.359C59.617 70.628 58.851 70.53 58.467 70.229C58.085 69.932 58.709 69.44 58.938 69.421ZM58.292 68.954C58.129 68.893 57.984 68.737 57.86 68.365C57.736 67.991 58.05 67.779 58.356 67.928C58.668 68.086 59.073 68.552 59.073 68.8C59.073 69.05 58.46 69.02 58.292 68.954ZM51.586 68.928C51.287 69.195 50.518 69.098 50.134 68.797C49.752 68.5 50.377 68.008 50.605 67.988C51.117 67.943 51.884 68.657 51.586 68.928ZM45.382 71.944C45.172 72.286 44.601 74.8419 44.217 74.5439C43.832 74.2459 44.373 71.5801 44.484 71.3781C45.084 70.2771 46.382 70.332 45.382 71.944ZM47.448 81.849C45.963 81.849 44.531 81.6321 43.177 81.2371C42.982 81.0781 42.871 80.812 42.993 80.494C43.463 79.268 44.863 78.789 45.968 78.682C48.432 78.442 51.67 80.281 52.185 79.985C52.702 79.688 53.744 78.333 55.272 78.39C56.315 78.431 56.307 78.606 56.657 78.738C54.102 80.687 50.912 81.849 47.448 81.849ZM58.163 77.426C58.011 77.383 57.855 77.333 57.686 77.248C56.857 76.826 56.956 77.5011 56.549 77.3521C56.138 77.2001 57.009 76.253 55.783 77.054C54.563 77.852 54.893 76.93 54.36 75.578C53.823 74.225 54.973 72.681 55.933 72.33C57.253 71.853 58.072 71.7561 58.692 71.6021C60.517 71.1471 60.903 70.064 61.234 70.723C61.296 70.846 61.357 70.964 61.412 71.074C61.518 71.271 61.64 71.67 61.647 72.064C60.871 74.097 59.676 75.92 58.163 77.426ZM62.325 69.754C61.918 69.644 60.211 67.284 61.56 65.733C61.784 65.478 61.108 64.727 61.293 64.712C62.031 64.655 62.423 65.113 62.617 65.774C62.631 66.065 62.643 66.358 62.643 66.655C62.643 67.717 62.532 68.753 62.325 69.754Z" fill="#3F7E44"/>
<path d="M29.2969 16.0703C29.0026 16.0703 28.7435 16.0286 28.5195 15.9453C28.2956 15.862 28.112 15.7474 27.9688 15.6016C27.8255 15.4531 27.7083 15.2695 27.6172 15.0508C27.5286 14.8294 27.4661 14.5938 27.4297 14.3438C27.3932 14.0938 27.375 13.8112 27.375 13.4961V11.5C27.375 11.1849 27.3932 10.9023 27.4297 10.6523C27.4661 10.4023 27.5286 10.168 27.6172 9.94922C27.7083 9.72786 27.8255 9.54427 27.9688 9.39844C28.112 9.2526 28.2956 9.13802 28.5195 9.05469C28.7435 8.97135 29.0026 8.92969 29.2969 8.92969C29.6224 8.92969 29.9036 8.97786 30.1406 9.07422C30.3776 9.17057 30.5664 9.3125 30.707 9.5C30.8503 9.6875 30.957 9.90495 31.0273 10.1523C31.1003 10.3997 31.1432 10.6888 31.1562 11.0195C31.1589 11.069 31.1602 11.1458 31.1602 11.25H30.1602V11.0273C30.1576 10.8893 30.1523 10.7721 30.1445 10.6758C30.1367 10.5768 30.1224 10.4753 30.1016 10.3711C30.0807 10.2669 30.0495 10.181 30.0078 10.1133C29.9688 10.043 29.918 9.97917 29.8555 9.92188C29.7956 9.86198 29.7188 9.81901 29.625 9.79297C29.5312 9.76432 29.4219 9.75 29.2969 9.75C29.1354 9.75 28.9961 9.77604 28.8789 9.82812C28.7643 9.88021 28.6745 9.94792 28.6094 10.0312C28.5443 10.112 28.4935 10.2214 28.457 10.3594C28.4232 10.4974 28.401 10.6328 28.3906 10.7656C28.3802 10.8958 28.375 11.0573 28.375 11.25V13.75C28.375 13.9167 28.3815 14.0677 28.3945 14.2031C28.4102 14.3385 28.4388 14.474 28.4805 14.6094C28.5221 14.7422 28.5755 14.8542 28.6406 14.9453C28.7083 15.0365 28.7969 15.1107 28.9062 15.168C29.0182 15.2227 29.1484 15.25 29.2969 15.25C29.4453 15.25 29.5729 15.2214 29.6797 15.1641C29.7865 15.1068 29.8698 15.0339 29.9297 14.9453C29.9922 14.8568 30.0404 14.7435 30.0742 14.6055C30.1107 14.4674 30.1341 14.3333 30.1445 14.2031C30.1549 14.0729 30.1602 13.9219 30.1602 13.75V13.5H31.1602V13.75C31.1602 14.112 31.1276 14.4297 31.0625 14.7031C31 14.9766 30.8971 15.2188 30.7539 15.4297C30.6133 15.638 30.4206 15.7969 30.1758 15.9062C29.9336 16.0156 29.6406 16.0703 29.2969 16.0703ZM31.8281 16V9H32.8281V15.25H34.5781V16H31.8281ZM35.0938 16V9H36.0938V16H35.0938ZM37.1641 16V9H38.5469L39.5391 14.3594L40.5312 9H41.9141V16H40.9141V10.4766L39.9141 16H39.1641L38.1641 10.4766V16H37.1641ZM43.9766 13.5H44.9766L44.4766 10.5L43.9766 13.5ZM42.4766 16L43.9766 9H44.9766L46.4766 16H45.4766L45.1016 14.25H43.8516L43.4766 16H42.4766ZM47.5898 16V9.89062H46.3398V9H49.8398V9.89062H48.5898V16H47.5898ZM50.3359 16V9H53.0859V9.75H51.3359V12H52.5859V12.75H51.3359V15.25H53.0859V16H50.3359ZM28.5625 23.5H29.5625L29.0625 20.5L28.5625 23.5ZM27.0625 26L28.5625 19H29.5625L31.0625 26H30.0625L29.6875 24.25H28.4375L28.0625 26H27.0625ZM33.3828 26.0703C33.0885 26.0703 32.8294 26.0286 32.6055 25.9453C32.3815 25.862 32.1979 25.7474 32.0547 25.6016C31.9115 25.4531 31.7943 25.2695 31.7031 25.0508C31.6146 24.8294 31.5521 24.5938 31.5156 24.3438C31.4792 24.0938 31.4609 23.8112 31.4609 23.4961V21.5C31.4609 21.1849 31.4792 20.9023 31.5156 20.6523C31.5521 20.4023 31.6146 20.168 31.7031 19.9492C31.7943 19.7279 31.9115 19.5443 32.0547 19.3984C32.1979 19.2526 32.3815 19.138 32.6055 19.0547C32.8294 18.9714 33.0885 18.9297 33.3828 18.9297C33.7083 18.9297 33.9896 18.9779 34.2266 19.0742C34.4635 19.1706 34.6523 19.3125 34.793 19.5C34.9362 19.6875 35.043 19.9049 35.1133 20.1523C35.1862 20.3997 35.2292 20.6888 35.2422 21.0195C35.2448 21.069 35.2461 21.1458 35.2461 21.25H34.2461V21.0273C34.2435 20.8893 34.2383 20.7721 34.2305 20.6758C34.2227 20.5768 34.2083 20.4753 34.1875 20.3711C34.1667 20.2669 34.1354 20.181 34.0938 20.1133C34.0547 20.043 34.0039 19.9792 33.9414 19.9219C33.8815 19.862 33.8047 19.819 33.7109 19.793C33.6172 19.7643 33.5078 19.75 33.3828 19.75C33.2214 19.75 33.082 19.776 32.9648 19.8281C32.8503 19.8802 32.7604 19.9479 32.6953 20.0312C32.6302 20.112 32.5794 20.2214 32.543 20.3594C32.5091 20.4974 32.487 20.6328 32.4766 20.7656C32.4661 20.8958 32.4609 21.0573 32.4609 21.25V23.75C32.4609 23.9167 32.4674 24.0677 32.4805 24.2031C32.4961 24.3385 32.5247 24.474 32.5664 24.6094C32.6081 24.7422 32.6615 24.8542 32.7266 24.9453C32.7943 25.0365 32.8828 25.1107 32.9922 25.168C33.1042 25.2227 33.2344 25.25 33.3828 25.25C33.5312 25.25 33.6589 25.2214 33.7656 25.1641C33.8724 25.1068 33.9557 25.0339 34.0156 24.9453C34.0781 24.8568 34.1263 24.7435 34.1602 24.6055C34.1966 24.4674 34.2201 24.3333 34.2305 24.2031C34.2409 24.0729 34.2461 23.9219 34.2461 23.75V23.5H35.2461V23.75C35.2461 24.112 35.2135 24.4297 35.1484 24.7031C35.0859 24.9766 34.9831 25.2188 34.8398 25.4297C34.6992 25.638 34.5065 25.7969 34.2617 25.9062C34.0195 26.0156 33.7266 26.0703 33.3828 26.0703ZM36.6602 26V19.8906H35.4102V19H38.9102V19.8906H37.6602V26H36.6602ZM39.4531 26V19H40.4531V26H39.4531ZM43.3281 26.0703C42.9766 26.0703 42.6745 26.0169 42.4219 25.9102C42.1719 25.8034 41.9727 25.6471 41.8242 25.4414C41.6758 25.2357 41.5677 24.9948 41.5 24.7188C41.4323 24.4401 41.3984 24.1172 41.3984 23.75V21.2109C41.3984 20.8438 41.4323 20.5234 41.5 20.25C41.5677 19.9766 41.6758 19.7396 41.8242 19.5391C41.9727 19.3359 42.1719 19.1836 42.4219 19.082C42.6745 18.9805 42.9766 18.9297 43.3281 18.9297C44.0104 18.9297 44.5026 19.125 44.8047 19.5156C45.1068 19.9062 45.2578 20.4714 45.2578 21.2109V23.75C45.2578 24.112 45.2227 24.4323 45.1523 24.7109C45.0846 24.987 44.9766 25.2292 44.8281 25.4375C44.6797 25.6432 44.4792 25.8008 44.2266 25.9102C43.9766 26.0169 43.6771 26.0703 43.3281 26.0703ZM42.5977 24.9336C42.7331 25.1445 42.9766 25.25 43.3281 25.25C43.6797 25.25 43.9219 25.1445 44.0547 24.9336C44.1901 24.7227 44.2578 24.4115 44.2578 24V20.9609C44.2578 20.5547 44.1914 20.2513 44.0586 20.0508C43.9258 19.8503 43.6823 19.75 43.3281 19.75C42.974 19.75 42.7305 19.8503 42.5977 20.0508C42.4648 20.2513 42.3984 20.5547 42.3984 20.9609V24C42.3984 24.4115 42.4648 24.7227 42.5977 24.9336ZM46.1328 26V19H46.8828L48.6328 23.3281V19H49.6328V26H48.9219L47.1328 21.3438V26H46.1328Z" fill="#3F7E44"/>
<path d="M7.625 26V11.5625H5.65625V9.59375C6.97559 9.12207 7.85059 8.46582 8.28125 7.625H10.25V26H7.625ZM16.9561 26.1846C15.4658 26.1846 14.3276 25.7676 13.5415 24.9336C12.7554 24.0928 12.3623 22.917 12.3623 21.4062V20.75H14.9873C14.9873 21.1602 14.9976 21.5122 15.0181 21.8062C15.0454 22.0933 15.0967 22.3872 15.1719 22.688C15.2539 22.9888 15.3633 23.2314 15.5 23.416C15.6367 23.5938 15.8281 23.7407 16.0742 23.8569C16.3203 23.9731 16.6143 24.0312 16.9561 24.0312C17.2979 24.0312 17.5918 23.9731 17.8379 23.8569C18.084 23.7407 18.2754 23.5938 18.4121 23.416C18.5488 23.2314 18.6548 22.9888 18.73 22.688C18.812 22.3872 18.8633 22.0933 18.8838 21.8062C18.9111 21.5122 18.9248 21.1602 18.9248 20.75C18.9248 19.6973 18.7197 18.8872 18.3096 18.3198C17.9062 17.7524 17.2363 17.4688 16.2998 17.4688V14.8438C17.2568 14.8438 17.9336 14.6489 18.3301 14.2593C18.7266 13.8628 18.9248 13.1826 18.9248 12.2188C18.9248 11.3506 18.7812 10.6978 18.4941 10.2603C18.207 9.81592 17.6943 9.59375 16.9561 9.59375C16.6143 9.59375 16.3203 9.65186 16.0742 9.76807C15.8281 9.88428 15.6367 10.0347 15.5 10.2192C15.3633 10.397 15.2539 10.6362 15.1719 10.937C15.0967 11.2378 15.0454 11.5352 15.0181 11.8291C14.9976 12.1162 14.9873 12.4648 14.9873 12.875H12.3623V12.2188C12.3623 10.7148 12.7554 9.54248 13.5415 8.70166C14.3345 7.86084 15.4727 7.44043 16.9561 7.44043C18.4463 7.44043 19.5845 7.86084 20.3706 8.70166C21.1567 9.53564 21.5498 10.708 21.5498 12.2188C21.5498 13.2578 21.3174 14.1123 20.8525 14.7822C20.3877 15.4453 19.7451 15.9033 18.9248 16.1562C19.7793 16.4434 20.4287 16.98 20.873 17.7661C21.3242 18.5522 21.5498 19.5469 21.5498 20.75C21.5498 22.4727 21.1807 23.8091 20.4424 24.7593C19.7041 25.7095 18.542 26.1846 16.9561 26.1846Z" fill="#3F7E44"/>
</svg>
