<svg width="95" height="95" viewBox="0 0 95 95" fill="none" xmlns="http://www.w3.org/2000/svg">
<rect width="95" height="95" fill="white"/>
<path d="M71.881 58.365C71.881 51.451 66.381 45.802 59.53 45.552C57.767 40.576 53.013 37 47.44 37C41.867 37 37.114 40.576 35.349 45.552C28.498 45.803 23 51.452 23 58.365C23 62.468 24.939 66.124 27.948 68.473C27.621 69.604 27.441 70.796 27.441 72.032C27.441 79.1 33.194 84.853 40.264 84.853C42.948 84.853 45.44 84.022 47.5 82.607C49.538 83.969 51.984 84.767 54.614 84.767C61.685 84.767 67.437 79.015 67.437 71.947C67.437 70.737 67.264 69.567 66.951 68.458C69.949 66.108 71.881 62.458 71.881 58.365ZM57.68 49.822C57.68 54.955 53.882 59.204 48.951 59.938C48.871 59.423 48.818 58.9 48.818 58.365C48.818 53.232 52.616 48.981 57.547 48.248C57.627 48.76 57.68 49.285 57.68 49.822ZM47.488 79.282C45.57 77.42 44.375 74.821 44.375 71.947C44.375 69.116 45.532 66.549 47.393 64.694C49.309 66.556 50.506 69.155 50.506 72.032C50.506 74.862 49.351 77.426 47.488 79.282ZM37.333 48.247C42.265 48.981 46.065 53.232 46.065 58.365C46.065 58.9 46.009 59.424 45.929 59.938C40.998 59.204 37.2 54.955 37.2 49.822C37.2 49.285 37.253 48.76 37.333 48.247ZM44.968 62.945C43.283 66.295 39.822 68.606 35.822 68.606C34.126 68.606 32.528 68.183 31.118 67.451C32.803 64.1 36.264 61.791 40.264 61.791C41.963 61.791 43.558 62.212 44.968 62.945ZM49.879 62.876C51.297 62.132 52.906 61.705 54.616 61.705C58.641 61.705 62.123 64.047 63.797 67.435C62.377 68.179 60.766 68.606 59.059 68.606C55.032 68.606 51.551 66.264 49.879 62.876ZM47.44 39.581C51.635 39.581 55.246 42.119 56.828 45.739C52.662 46.474 49.183 49.224 47.44 52.945C45.698 49.223 42.219 46.473 38.052 45.739C39.634 42.119 43.244 39.581 47.44 39.581ZM25.582 58.365C25.582 53.088 29.593 48.734 34.725 48.183C34.658 48.719 34.619 49.267 34.619 49.822C34.619 53.57 36.236 56.948 38.807 59.294C34.553 59.779 30.926 62.35 28.975 65.957C26.899 64.082 25.582 61.377 25.582 58.365ZM30.024 72.032C30.024 71.304 30.101 70.594 30.248 69.91C31.936 70.728 33.827 71.187 35.823 71.187C38.068 71.187 40.177 70.606 42.014 69.587C41.871 70.353 41.792 71.141 41.792 71.946C41.792 75.409 43.177 78.555 45.416 80.864C43.901 81.752 42.144 82.27 40.265 82.27C34.618 82.271 30.024 77.676 30.024 72.032ZM64.858 71.947C64.858 77.592 60.263 82.187 54.616 82.187C52.778 82.187 51.058 81.693 49.567 80.841C51.745 78.542 53.088 75.441 53.088 72.031C53.088 71.192 53.004 70.371 52.849 69.577C54.691 70.601 56.806 71.186 59.059 71.186C61.063 71.186 62.96 70.723 64.651 69.899C64.786 70.563 64.858 71.247 64.858 71.947ZM56.153 59.218C58.678 56.874 60.263 53.53 60.263 49.822C60.263 49.267 60.223 48.719 60.156 48.183C65.288 48.733 69.3 53.087 69.3 58.365C69.3 61.363 67.997 64.055 65.936 65.93C64.005 62.315 60.394 59.729 56.153 59.218Z" fill="#19486A"/>
<path d="M28.5 12H28.75C28.9766 12 29.1615 11.987 29.3047 11.9609C29.4505 11.9349 29.5781 11.8867 29.6875 11.8164C29.7995 11.7435 29.8789 11.6406 29.9258 11.5078C29.9753 11.375 30 11.2057 30 11C30 10.75 29.9818 10.5482 29.9453 10.3945C29.9089 10.2383 29.8411 10.1107 29.7422 10.0117C29.6458 9.91276 29.5195 9.84505 29.3633 9.80859C29.2096 9.76953 29.0052 9.75 28.75 9.75H28.5V12ZM27.5 16V9H29.25C30.4167 9 31 9.66667 31 11C31 11.5703 30.849 12.0052 30.5469 12.3047C30.2474 12.6016 29.8151 12.75 29.25 12.75H28.5V16H27.5ZM32.3906 13.5H33.3906L32.8906 10.5L32.3906 13.5ZM30.8906 16L32.3906 9H33.3906L34.8906 16H33.8906L33.5156 14.25H32.2656L31.8906 16H30.8906ZM36.4531 12H36.7031C37.1198 12 37.4323 11.9128 37.6406 11.7383C37.849 11.5612 37.9531 11.2734 37.9531 10.875C37.9531 10.4766 37.849 10.1901 37.6406 10.0156C37.4323 9.83854 37.1198 9.75 36.7031 9.75H36.4531V12ZM35.4531 16V9H36.7031C37.4479 9 38.0091 9.14453 38.3867 9.43359C38.7643 9.72266 38.9531 10.2031 38.9531 10.875C38.9531 11.2917 38.8789 11.6406 38.7305 11.9219C38.582 12.2031 38.3646 12.3958 38.0781 12.5L39.2031 16H38.2109L37.2031 12.75H36.4531V16H35.4531ZM40.5273 16V9.89062H39.2773V9H42.7773V9.89062H41.5273V16H40.5273ZM43.2734 16V9H44.0234L45.7734 13.3281V9H46.7734V16H46.0625L44.2734 11.3438V16H43.2734ZM47.7734 16V9H50.5234V9.75H48.7734V12H50.0234V12.75H48.7734V15.25H50.5234V16H47.7734ZM52.1406 12H52.3906C52.8073 12 53.1198 11.9128 53.3281 11.7383C53.5365 11.5612 53.6406 11.2734 53.6406 10.875C53.6406 10.4766 53.5365 10.1901 53.3281 10.0156C53.1198 9.83854 52.8073 9.75 52.3906 9.75H52.1406V12ZM51.1406 16V9H52.3906C53.1354 9 53.6966 9.14453 54.0742 9.43359C54.4518 9.72266 54.6406 10.2031 54.6406 10.875C54.6406 11.2917 54.5664 11.6406 54.418 11.9219C54.2695 12.2031 54.0521 12.3958 53.7656 12.5L54.8906 16H53.8984L52.8906 12.75H52.1406V16H51.1406ZM57.293 16.0703C56.6628 16.0703 56.181 15.8854 55.8477 15.5156C55.5169 15.1458 55.332 14.6406 55.293 14L56.293 13.75C56.3424 14.75 56.6758 15.25 57.293 15.25C57.793 15.25 58.043 15 58.043 14.5C58.043 14.3516 58.0221 14.2148 57.9805 14.0898C57.9414 13.9622 57.8802 13.8464 57.7969 13.7422C57.7135 13.6354 57.638 13.5508 57.5703 13.4883C57.5026 13.4232 57.4102 13.3438 57.293 13.25L56.043 12.25C55.8138 12.0703 55.6302 11.8424 55.4922 11.5664C55.3568 11.2878 55.2891 10.9714 55.2891 10.6172C55.2891 10.1016 55.4492 9.69141 55.7695 9.38672C56.0898 9.08203 56.5143 8.92969 57.043 8.92969C57.6107 8.92969 58.0612 9.06901 58.3945 9.34766C58.7305 9.6237 58.9375 10.0156 59.0156 10.5234C59.0234 10.5781 59.0326 10.6536 59.043 10.75L58.043 11C58.0404 10.9557 58.0339 10.8893 58.0234 10.8008C57.9792 10.4831 57.8789 10.2292 57.7227 10.0391C57.569 9.84635 57.3424 9.75 57.043 9.75C56.8034 9.75 56.6185 9.81771 56.4883 9.95312C56.3581 10.0859 56.293 10.2721 56.293 10.5117C56.293 10.9049 56.4596 11.2344 56.793 11.5L58.043 12.5C58.7096 13.0391 59.043 13.6836 59.043 14.4336C59.043 14.9466 58.8841 15.3477 58.5664 15.6367C58.2513 15.9258 57.8268 16.0703 57.293 16.0703ZM59.7734 16V9H60.7734V12H62.5234V9H63.5234V16H62.5234V12.75H60.7734V16H59.7734ZM64.5703 16V9H65.5703V16H64.5703ZM67.6406 12H67.8906C68.1172 12 68.3021 11.987 68.4453 11.9609C68.5911 11.9349 68.7188 11.8867 68.8281 11.8164C68.9401 11.7435 69.0195 11.6406 69.0664 11.5078C69.1159 11.375 69.1406 11.2057 69.1406 11C69.1406 10.75 69.1224 10.5482 69.0859 10.3945C69.0495 10.2383 68.9818 10.1107 68.8828 10.0117C68.7865 9.91276 68.6602 9.84505 68.5039 9.80859C68.3503 9.76953 68.1458 9.75 67.8906 9.75H67.6406V12ZM66.6406 16V9H68.3906C69.5573 9 70.1406 9.66667 70.1406 11C70.1406 11.5703 69.9896 12.0052 69.6875 12.3047C69.388 12.6016 68.9557 12.75 68.3906 12.75H67.6406V16H66.6406ZM72.5352 16.0703C71.9049 16.0703 71.4232 15.8854 71.0898 15.5156C70.7591 15.1458 70.5742 14.6406 70.5352 14L71.5352 13.75C71.5846 14.75 71.918 15.25 72.5352 15.25C73.0352 15.25 73.2852 15 73.2852 14.5C73.2852 14.3516 73.2643 14.2148 73.2227 14.0898C73.1836 13.9622 73.1224 13.8464 73.0391 13.7422C72.9557 13.6354 72.8802 13.5508 72.8125 13.4883C72.7448 13.4232 72.6523 13.3438 72.5352 13.25L71.2852 12.25C71.056 12.0703 70.8724 11.8424 70.7344 11.5664C70.599 11.2878 70.5312 10.9714 70.5312 10.6172C70.5312 10.1016 70.6914 9.69141 71.0117 9.38672C71.332 9.08203 71.7565 8.92969 72.2852 8.92969C72.8529 8.92969 73.3034 9.06901 73.6367 9.34766C73.9727 9.6237 74.1797 10.0156 74.2578 10.5234C74.2656 10.5781 74.2747 10.6536 74.2852 10.75L73.2852 11C73.2826 10.9557 73.276 10.8893 73.2656 10.8008C73.2214 10.4831 73.1211 10.2292 72.9648 10.0391C72.8112 9.84635 72.5846 9.75 72.2852 9.75C72.0456 9.75 71.8607 9.81771 71.7305 9.95312C71.6003 10.0859 71.5352 10.2721 71.5352 10.5117C71.5352 10.9049 71.7018 11.2344 72.0352 11.5L73.2852 12.5C73.9518 13.0391 74.2852 13.6836 74.2852 14.4336C74.2852 14.9466 74.1263 15.3477 73.8086 15.6367C73.4935 15.9258 73.069 16.0703 72.5352 16.0703ZM27.5 26V19H30.25V19.75H28.5V22H29.75V22.75H28.5V26H27.5ZM32.5156 26.0703C32.1641 26.0703 31.862 26.0169 31.6094 25.9102C31.3594 25.8034 31.1602 25.6471 31.0117 25.4414C30.8633 25.2357 30.7552 24.9948 30.6875 24.7188C30.6198 24.4401 30.5859 24.1172 30.5859 23.75V21.2109C30.5859 20.8438 30.6198 20.5234 30.6875 20.25C30.7552 19.9766 30.8633 19.7396 31.0117 19.5391C31.1602 19.3359 31.3594 19.1836 31.6094 19.082C31.862 18.9805 32.1641 18.9297 32.5156 18.9297C33.1979 18.9297 33.6901 19.125 33.9922 19.5156C34.2943 19.9062 34.4453 20.4714 34.4453 21.2109V23.75C34.4453 24.112 34.4102 24.4323 34.3398 24.7109C34.2721 24.987 34.1641 25.2292 34.0156 25.4375C33.8672 25.6432 33.6667 25.8008 33.4141 25.9102C33.1641 26.0169 32.8646 26.0703 32.5156 26.0703ZM31.7852 24.9336C31.9206 25.1445 32.1641 25.25 32.5156 25.25C32.8672 25.25 33.1094 25.1445 33.2422 24.9336C33.3776 24.7227 33.4453 24.4115 33.4453 24V20.9609C33.4453 20.5547 33.3789 20.2513 33.2461 20.0508C33.1133 19.8503 32.8698 19.75 32.5156 19.75C32.1615 19.75 31.918 19.8503 31.7852 20.0508C31.6523 20.2513 31.5859 20.5547 31.5859 20.9609V24C31.5859 24.4115 31.6523 24.7227 31.7852 24.9336ZM36.3203 22H36.5703C36.987 22 37.2995 21.9128 37.5078 21.7383C37.7161 21.5612 37.8203 21.2734 37.8203 20.875C37.8203 20.4766 37.7161 20.1901 37.5078 20.0156C37.2995 19.8385 36.987 19.75 36.5703 19.75H36.3203V22ZM35.3203 26V19H36.5703C37.3151 19 37.8763 19.1445 38.2539 19.4336C38.6315 19.7227 38.8203 20.2031 38.8203 20.875C38.8203 21.2917 38.7461 21.6406 38.5977 21.9219C38.4492 22.2031 38.2318 22.3958 37.9453 22.5L39.0703 26H38.0781L37.0703 22.75H36.3203V26H35.3203ZM42.0195 26V19.8906H40.7695V19H44.2695V19.8906H43.0195V26H42.0195ZM44.7656 26V19H45.7656V22H47.5156V19H48.5156V26H47.5156V22.75H45.7656V26H44.7656ZM49.5156 26V19H52.2656V19.75H50.5156V22H51.7656V22.75H50.5156V25.25H52.2656V26H49.5156ZM56.3828 26.0703C56.0625 26.0703 55.7839 26.0247 55.5469 25.9336C55.3125 25.8424 55.1211 25.7188 54.9727 25.5625C54.8242 25.4062 54.7057 25.207 54.6172 24.9648C54.5286 24.7227 54.4674 24.4674 54.4336 24.1992C54.3997 23.931 54.3828 23.6224 54.3828 23.2734V21.5C54.3828 19.7865 55.0625 18.9297 56.4219 18.9297C56.7474 18.9297 57.0299 18.9792 57.2695 19.0781C57.5091 19.1745 57.7031 19.3164 57.8516 19.5039C58 19.6914 58.112 19.9115 58.1875 20.1641C58.263 20.4141 58.3073 20.7044 58.3203 21.0352C58.3229 21.082 58.3242 21.1536 58.3242 21.25H57.3242V21.0391C57.3216 20.875 57.3125 20.7344 57.2969 20.6172C57.2839 20.4974 57.2578 20.3802 57.2188 20.2656C57.1823 20.151 57.1315 20.0586 57.0664 19.9883C57.0013 19.9154 56.9141 19.8581 56.8047 19.8164C56.6979 19.7721 56.5703 19.75 56.4219 19.75C56.2188 19.75 56.0469 19.7878 55.9062 19.8633C55.7682 19.9362 55.6615 20.0443 55.5859 20.1875C55.513 20.3281 55.4609 20.4844 55.4297 20.6562C55.3984 20.8255 55.3828 21.0234 55.3828 21.25V23.5C55.3828 23.6667 55.388 23.8177 55.3984 23.9531C55.4089 24.0859 55.4258 24.2227 55.4492 24.3633C55.4753 24.5013 55.5117 24.6211 55.5586 24.7227C55.6081 24.8242 55.668 24.9167 55.7383 25C55.8112 25.0807 55.901 25.1432 56.0078 25.1875C56.1172 25.2292 56.2422 25.25 56.3828 25.25C56.5495 25.25 56.694 25.2174 56.8164 25.1523C56.9388 25.0872 57.0352 25.0039 57.1055 24.9023C57.1784 24.7982 57.2357 24.6667 57.2773 24.5078C57.319 24.349 57.3464 24.1914 57.3594 24.0352C57.375 23.8789 57.3828 23.7005 57.3828 23.5V23.25H56.3828V22.5078H58.3828V26H57.6328L57.3828 25.25C57.1875 25.7969 56.8542 26.0703 56.3828 26.0703ZM61 26.0703C60.6484 26.0703 60.3464 26.0169 60.0938 25.9102C59.8438 25.8034 59.6445 25.6471 59.4961 25.4414C59.3477 25.2357 59.2396 24.9948 59.1719 24.7188C59.1042 24.4401 59.0703 24.1172 59.0703 23.75V21.2109C59.0703 20.8438 59.1042 20.5234 59.1719 20.25C59.2396 19.9766 59.3477 19.7396 59.4961 19.5391C59.6445 19.3359 59.8438 19.1836 60.0938 19.082C60.3464 18.9805 60.6484 18.9297 61 18.9297C61.6823 18.9297 62.1745 19.125 62.4766 19.5156C62.7786 19.9062 62.9297 20.4714 62.9297 21.2109V23.75C62.9297 24.112 62.8945 24.4323 62.8242 24.7109C62.7565 24.987 62.6484 25.2292 62.5 25.4375C62.3516 25.6432 62.151 25.8008 61.8984 25.9102C61.6484 26.0169 61.349 26.0703 61 26.0703ZM60.2695 24.9336C60.4049 25.1445 60.6484 25.25 61 25.25C61.3516 25.25 61.5938 25.1445 61.7266 24.9336C61.862 24.7227 61.9297 24.4115 61.9297 24V20.9609C61.9297 20.5547 61.8633 20.2513 61.7305 20.0508C61.5977 19.8503 61.3542 19.75 61 19.75C60.6458 19.75 60.4023 19.8503 60.2695 20.0508C60.1367 20.2513 60.0703 20.5547 60.0703 20.9609V24C60.0703 24.4115 60.1367 24.7227 60.2695 24.9336ZM64.8203 23.5H65.8203L65.3203 20.5L64.8203 23.5ZM63.3203 26L64.8203 19H65.8203L67.3203 26H66.3203L65.9453 24.25H64.6953L64.3203 26H63.3203ZM67.8828 26V19H68.8828V25.25H70.6328V26H67.8828ZM72.9258 26.0703C72.2956 26.0703 71.8138 25.8854 71.4805 25.5156C71.1497 25.1458 70.9648 24.6406 70.9258 24L71.9258 23.75C71.9753 24.75 72.3086 25.25 72.9258 25.25C73.4258 25.25 73.6758 25 73.6758 24.5C73.6758 24.3516 73.6549 24.2148 73.6133 24.0898C73.5742 23.9622 73.513 23.8464 73.4297 23.7422C73.3464 23.6354 73.2708 23.5508 73.2031 23.4883C73.1354 23.4232 73.043 23.3438 72.9258 23.25L71.6758 22.25C71.4466 22.0703 71.263 21.8424 71.125 21.5664C70.9896 21.2878 70.9219 20.9714 70.9219 20.6172C70.9219 20.1016 71.082 19.6914 71.4023 19.3867C71.7227 19.082 72.1471 18.9297 72.6758 18.9297C73.2435 18.9297 73.694 19.069 74.0273 19.3477C74.3633 19.6237 74.5703 20.0156 74.6484 20.5234C74.6562 20.5781 74.6654 20.6536 74.6758 20.75L73.6758 21C73.6732 20.9557 73.6667 20.8893 73.6562 20.8008C73.612 20.4831 73.5117 20.2292 73.3555 20.0391C73.2018 19.8464 72.9753 19.75 72.6758 19.75C72.4362 19.75 72.2513 19.8177 72.1211 19.9531C71.9909 20.0859 71.9258 20.2721 71.9258 20.5117C71.9258 20.9049 72.0924 21.2344 72.4258 21.5L73.6758 22.5C74.3424 23.0391 74.6758 23.6836 74.6758 24.4336C74.6758 24.9466 74.5169 25.3477 74.1992 25.6367C73.8841 25.9258 73.4596 26.0703 72.9258 26.0703Z" fill="#19486A"/>
<path d="M7.625 26V11.5625H5.65625V9.59375C6.97559 9.12207 7.85059 8.46582 8.28125 7.625H10.25V26H7.625ZM13.5107 26L16.874 9.80908H12.0239V7.625H19.376V8.88623L16.0332 26H13.5107Z" fill="#19486A"/>
</svg>
