<svg width="95" height="95" viewBox="0 0 95 95" fill="none" xmlns="http://www.w3.org/2000/svg">
<rect width="95" height="95" fill="white"/>
<path d="M65.4559 35.141C65.3719 35.051 65.2599 35 65.1329 35H29.4169C29.2929 35 29.1789 35.051 29.0949 35.141C29.0169 35.241 28.9859 35.364 29.0059 35.479L35.0059 71.772C35.0389 71.973 35.2149 72.121 35.4179 72.121H42.7819L43.2869 78.032L40.1869 78.036L47.3979 85.247L54.6269 78.019L51.5269 78.023L52.0309 72.121H59.5248C59.7308 72.121 59.9039 71.973 59.9339 71.765L65.5479 35.479C65.5689 35.355 65.5319 35.236 65.4559 35.141ZM51.6519 64.196C51.6519 64.196 50.0289 65.863 47.3899 65.683C44.7439 65.863 43.1229 64.196 43.1229 64.196C40.4469 61.523 41.4019 58.197 42.3339 56.479C42.9089 55.402 47.0198 49.228 47.3738 48.703V48.661C47.3738 48.661 47.3799 48.669 47.3899 48.681L47.4039 48.661V48.703C47.7499 49.228 51.8669 55.402 52.4419 56.479C53.3739 58.197 54.3259 61.523 51.6519 64.196ZM62.9819 42.777C62.0139 42.351 60.7879 42.504 59.6089 42.981C55.1769 44.778 52.1619 45.424 47.5009 43.964C44.5649 43.046 41.8178 41.121 38.5718 42.293C36.4178 43.068 34.4109 43.807 31.9739 43.788L30.5669 36.575H63.9939L62.9819 42.777Z" fill="#26BDE2"/>
<path d="M29.2969 16.0703C29.0026 16.0703 28.7435 16.0286 28.5195 15.9453C28.2956 15.862 28.112 15.7474 27.9688 15.6016C27.8255 15.4531 27.7083 15.2695 27.6172 15.0508C27.5286 14.8294 27.4661 14.5938 27.4297 14.3438C27.3932 14.0938 27.375 13.8112 27.375 13.4961V11.5C27.375 11.1849 27.3932 10.9023 27.4297 10.6523C27.4661 10.4023 27.5286 10.168 27.6172 9.94922C27.7083 9.72786 27.8255 9.54427 27.9688 9.39844C28.112 9.2526 28.2956 9.13802 28.5195 9.05469C28.7435 8.97135 29.0026 8.92969 29.2969 8.92969C29.6224 8.92969 29.9036 8.97786 30.1406 9.07422C30.3776 9.17057 30.5664 9.3125 30.707 9.5C30.8503 9.6875 30.957 9.90495 31.0273 10.1523C31.1003 10.3997 31.1432 10.6888 31.1562 11.0195C31.1589 11.069 31.1602 11.1458 31.1602 11.25H30.1602V11.0273C30.1576 10.8893 30.1523 10.7721 30.1445 10.6758C30.1367 10.5768 30.1224 10.4753 30.1016 10.3711C30.0807 10.2669 30.0495 10.181 30.0078 10.1133C29.9688 10.043 29.918 9.97917 29.8555 9.92188C29.7956 9.86198 29.7188 9.81901 29.625 9.79297C29.5312 9.76432 29.4219 9.75 29.2969 9.75C29.1354 9.75 28.9961 9.77604 28.8789 9.82812C28.7643 9.88021 28.6745 9.94792 28.6094 10.0312C28.5443 10.112 28.4935 10.2214 28.457 10.3594C28.4232 10.4974 28.401 10.6328 28.3906 10.7656C28.3802 10.8958 28.375 11.0573 28.375 11.25V13.75C28.375 13.9167 28.3815 14.0677 28.3945 14.2031C28.4102 14.3385 28.4388 14.474 28.4805 14.6094C28.5221 14.7422 28.5755 14.8542 28.6406 14.9453C28.7083 15.0365 28.7969 15.1107 28.9062 15.168C29.0182 15.2227 29.1484 15.25 29.2969 15.25C29.4453 15.25 29.5729 15.2214 29.6797 15.1641C29.7865 15.1068 29.8698 15.0339 29.9297 14.9453C29.9922 14.8568 30.0404 14.7435 30.0742 14.6055C30.1107 14.4674 30.1341 14.3333 30.1445 14.2031C30.1549 14.0729 30.1602 13.9219 30.1602 13.75V13.5H31.1602V13.75C31.1602 14.112 31.1276 14.4297 31.0625 14.7031C31 14.9766 30.8971 15.2188 30.7539 15.4297C30.6133 15.638 30.4206 15.7969 30.1758 15.9062C29.9336 16.0156 29.6406 16.0703 29.2969 16.0703ZM31.8281 16V9H32.8281V15.25H34.5781V16H31.8281ZM35.0469 16V9H37.7969V9.75H36.0469V12H37.2969V12.75H36.0469V15.25H37.7969V16H35.0469ZM39.4766 13.5H40.4766L39.9766 10.5L39.4766 13.5ZM37.9766 16L39.4766 9H40.4766L41.9766 16H40.9766L40.6016 14.25H39.3516L38.9766 16H37.9766ZM42.5391 16V9H43.2891L45.0391 13.3281V9H46.0391V16H45.3281L43.5391 11.3438V16H42.5391ZM49.457 16L48.207 9H49.207L49.707 12.25L49.9609 14.25L50.207 12.25L50.707 9H51.707L52.207 12.25L52.4531 14.25L52.707 12.25L53.207 9H54.207L52.957 16H51.957L51.457 12.75L51.207 10.75L50.957 12.75L50.457 16H49.457ZM55.6484 13.5H56.6484L56.1484 10.5L55.6484 13.5ZM54.1484 16L55.6484 9H56.6484L58.1484 16H57.1484L56.7734 14.25H55.5234L55.1484 16H54.1484ZM59.2617 16V9.89062H58.0117V9H61.5117V9.89062H60.2617V16H59.2617ZM62.0078 16V9H64.7578V9.75H63.0078V12H64.2578V12.75H63.0078V15.25H64.7578V16H62.0078ZM66.375 12H66.625C67.0417 12 67.3542 11.9128 67.5625 11.7383C67.7708 11.5612 67.875 11.2734 67.875 10.875C67.875 10.4766 67.7708 10.1901 67.5625 10.0156C67.3542 9.83854 67.0417 9.75 66.625 9.75H66.375V12ZM65.375 16V9H66.625C67.3698 9 67.931 9.14453 68.3086 9.43359C68.6862 9.72266 68.875 10.2031 68.875 10.875C68.875 11.2917 68.8008 11.6406 68.6523 11.9219C68.5039 12.2031 68.2865 12.3958 68 12.5L69.125 16H68.1328L67.125 12.75H66.375V16H65.375ZM28.5625 23.5H29.5625L29.0625 20.5L28.5625 23.5ZM27.0625 26L28.5625 19H29.5625L31.0625 26H30.0625L29.6875 24.25H28.4375L28.0625 26H27.0625ZM31.625 26V19H32.375L34.125 23.3281V19H35.125V26H34.4141L32.625 21.3438V26H31.625ZM36.125 26V19H37.6758C38.4076 19 38.9232 19.1497 39.2227 19.4492C39.5247 19.7487 39.6758 20.2656 39.6758 21V23.75C39.6758 24.5182 39.5221 25.0859 39.2148 25.4531C38.9102 25.8177 38.3945 26 37.668 26H36.125ZM37.125 25.25H37.6758C37.8398 25.25 37.9805 25.2357 38.0977 25.207C38.2148 25.1758 38.3099 25.1211 38.3828 25.043C38.4557 24.9622 38.513 24.8867 38.5547 24.8164C38.5964 24.7435 38.625 24.6315 38.6406 24.4805C38.6589 24.3294 38.6693 24.2057 38.6719 24.1094C38.6745 24.0104 38.6758 23.8581 38.6758 23.6523C38.6758 23.5846 38.6758 23.5339 38.6758 23.5V21.25C38.6758 21.1224 38.6745 21.0208 38.6719 20.9453C38.6719 20.8698 38.668 20.7812 38.6602 20.6797C38.6549 20.5755 38.6458 20.4935 38.6328 20.4336C38.6198 20.3737 38.6016 20.3073 38.5781 20.2344C38.5547 20.1589 38.5247 20.1003 38.4883 20.0586C38.4544 20.0169 38.4115 19.974 38.3594 19.9297C38.3099 19.8828 38.2513 19.849 38.1836 19.8281C38.1185 19.8047 38.0417 19.7865 37.9531 19.7734C37.8646 19.7578 37.7656 19.75 37.6562 19.75H37.125V25.25ZM44.0039 26.0703C43.3737 26.0703 42.8919 25.8854 42.5586 25.5156C42.2279 25.1458 42.043 24.6406 42.0039 24L43.0039 23.75C43.0534 24.75 43.3867 25.25 44.0039 25.25C44.5039 25.25 44.7539 25 44.7539 24.5C44.7539 24.3516 44.7331 24.2148 44.6914 24.0898C44.6523 23.9622 44.5911 23.8464 44.5078 23.7422C44.4245 23.6354 44.349 23.5508 44.2812 23.4883C44.2135 23.4232 44.1211 23.3438 44.0039 23.25L42.7539 22.25C42.5247 22.0703 42.3411 21.8424 42.2031 21.5664C42.0677 21.2878 42 20.9714 42 20.6172C42 20.1016 42.1602 19.6914 42.4805 19.3867C42.8008 19.082 43.2253 18.9297 43.7539 18.9297C44.3216 18.9297 44.7721 19.069 45.1055 19.3477C45.4414 19.6237 45.6484 20.0156 45.7266 20.5234C45.7344 20.5781 45.7435 20.6536 45.7539 20.75L44.7539 21C44.7513 20.9557 44.7448 20.8893 44.7344 20.8008C44.6901 20.4831 44.5898 20.2292 44.4336 20.0391C44.2799 19.8464 44.0534 19.75 43.7539 19.75C43.5143 19.75 43.3294 19.8177 43.1992 19.9531C43.069 20.0859 43.0039 20.2721 43.0039 20.5117C43.0039 20.9049 43.1706 21.2344 43.5039 21.5L44.7539 22.5C45.4206 23.0391 45.7539 23.6836 45.7539 24.4336C45.7539 24.9466 45.5951 25.3477 45.2773 25.6367C44.9622 25.9258 44.5378 26.0703 44.0039 26.0703ZM47.5469 23.5H48.5469L48.0469 20.5L47.5469 23.5ZM46.0469 26L47.5469 19H48.5469L50.0469 26H49.0469L48.6719 24.25H47.4219L47.0469 26H46.0469ZM50.6094 26V19H51.3594L53.1094 23.3281V19H54.1094V26H53.3984L51.6094 21.3438V26H50.6094ZM55.1562 26V19H56.1562V26H55.1562ZM57.9727 26V19.8906H56.7227V19H60.2227V19.8906H58.9727V26H57.9727ZM61.6797 23.5H62.6797L62.1797 20.5L61.6797 23.5ZM60.1797 26L61.6797 19H62.6797L64.1797 26H63.1797L62.8047 24.25H61.5547L61.1797 26H60.1797ZM65.293 26V19.8906H64.043V19H67.543V19.8906H66.293V26H65.293ZM68.0859 26V19H69.0859V26H68.0859ZM71.9609 26.0703C71.6094 26.0703 71.3073 26.0169 71.0547 25.9102C70.8047 25.8034 70.6055 25.6471 70.457 25.4414C70.3086 25.2357 70.2005 24.9948 70.1328 24.7188C70.0651 24.4401 70.0312 24.1172 70.0312 23.75V21.2109C70.0312 20.8438 70.0651 20.5234 70.1328 20.25C70.2005 19.9766 70.3086 19.7396 70.457 19.5391C70.6055 19.3359 70.8047 19.1836 71.0547 19.082C71.3073 18.9805 71.6094 18.9297 71.9609 18.9297C72.6432 18.9297 73.1354 19.125 73.4375 19.5156C73.7396 19.9062 73.8906 20.4714 73.8906 21.2109V23.75C73.8906 24.112 73.8555 24.4323 73.7852 24.7109C73.7174 24.987 73.6094 25.2292 73.4609 25.4375C73.3125 25.6432 73.112 25.8008 72.8594 25.9102C72.6094 26.0169 72.3099 26.0703 71.9609 26.0703ZM71.2305 24.9336C71.3659 25.1445 71.6094 25.25 71.9609 25.25C72.3125 25.25 72.5547 25.1445 72.6875 24.9336C72.8229 24.7227 72.8906 24.4115 72.8906 24V20.9609C72.8906 20.5547 72.8242 20.2513 72.6914 20.0508C72.5586 19.8503 72.3151 19.75 71.9609 19.75C71.6068 19.75 71.3633 19.8503 71.2305 20.0508C71.0977 20.2513 71.0312 20.5547 71.0312 20.9609V24C71.0312 24.4115 71.0977 24.7227 71.2305 24.9336ZM74.7656 26V19H75.5156L77.2656 23.3281V19H78.2656V26H77.5547L75.7656 21.3438V26H74.7656Z" fill="#26BDE2"/>
<path d="M14.7783 23.7544C15.0449 23.939 15.3662 24.0312 15.7422 24.0312C16.1182 24.0312 16.4395 23.939 16.7061 23.7544C16.9727 23.5698 17.1743 23.3135 17.311 22.9854C17.4546 22.6572 17.5571 22.312 17.6187 21.9497C17.6802 21.5806 17.7109 21.1807 17.7109 20.75C17.7109 20.4902 17.7109 20.2954 17.7109 20.1655C17.7109 20.0288 17.7041 19.8374 17.6904 19.5913C17.6836 19.3452 17.6699 19.1572 17.6494 19.0273C17.6357 18.8906 17.6118 18.7197 17.5776 18.5146C17.5503 18.3096 17.5127 18.1523 17.4648 18.043C17.417 17.9268 17.3555 17.7935 17.2803 17.6431C17.2119 17.4858 17.1299 17.3662 17.0342 17.2842C16.9385 17.2021 16.8291 17.1201 16.7061 17.0381C16.583 16.9561 16.4395 16.8979 16.2754 16.8638C16.1113 16.8296 15.9336 16.8125 15.7422 16.8125C14.8945 16.8125 14.2383 17.25 13.7734 18.125V20.75C13.7734 21.1875 13.8042 21.5874 13.8657 21.9497C13.9272 22.312 14.0264 22.6572 14.1631 22.9854C14.3066 23.3135 14.5117 23.5698 14.7783 23.7544ZM15.7422 26.1846C15.1133 26.1846 14.5425 26.0786 14.0298 25.8667C13.5171 25.6548 13.083 25.3643 12.7275 24.9951C12.3789 24.626 12.0815 24.1851 11.8354 23.6724C11.5962 23.1528 11.4219 22.5957 11.3125 22.001C11.2031 21.3994 11.1484 20.7637 11.1484 20.0938V14.1875C11.1484 13.4355 11.1929 12.7417 11.2817 12.106C11.3706 11.4634 11.5244 10.8516 11.7432 10.2705C11.9619 9.68262 12.2422 9.18359 12.584 8.77344C12.9258 8.36328 13.3633 8.03857 13.8965 7.79932C14.4365 7.56006 15.0518 7.44043 15.7422 7.44043C17.2188 7.44043 18.3535 7.86084 19.1465 8.70166C19.9395 9.53564 20.3359 10.708 20.3359 12.2188H17.7109C17.7109 11.3438 17.5674 10.6875 17.2803 10.25C17 9.8125 16.4873 9.59375 15.7422 9.59375C14.4297 9.59375 13.7734 10.9062 13.7734 13.5312V16.1562C14.2793 15.2812 15.1543 14.8438 16.3984 14.8438C17.1367 14.8438 17.7656 14.9736 18.2852 15.2334C18.8115 15.4863 19.2183 15.8589 19.5054 16.3511C19.7993 16.8364 20.0112 17.3833 20.1411 17.9917C20.271 18.6001 20.3359 19.3008 20.3359 20.0938C20.3359 20.9551 20.2505 21.7446 20.0796 22.4624C19.9087 23.1733 19.6455 23.8125 19.29 24.3799C18.9346 24.9473 18.4561 25.3916 17.8545 25.7129C17.2529 26.0273 16.5488 26.1846 15.7422 26.1846Z" fill="#26BDE2"/>
</svg>
