<svg width="95" height="95" viewBox="0 0 95 95" fill="none" xmlns="http://www.w3.org/2000/svg">
<rect width="95" height="95" fill="white"/>
<path d="M14.439 71.1192H14.59H29.2469C29.4469 71.1192 29.61 70.9552 29.61 70.7552C29.61 70.6612 29.572 70.5782 29.515 70.5142L29.494 70.4932L22.126 60.9602L22.056 60.8822C21.989 60.8092 21.894 60.7642 21.787 60.7642C21.695 60.7642 21.614 60.8022 21.548 60.8572L21.504 60.9092L21.436 60.9862L14.248 70.4192L14.1379 70.5542C14.0989 70.6122 14.075 70.6822 14.075 70.7572C14.075 70.9552 14.238 71.1192 14.439 71.1192Z" fill="#FD9D24"/>
<path d="M29.202 72.4639H14.364C14.163 72.4639 14 72.6269 14 72.8259V84.4379C14 84.6389 14.163 84.8029 14.364 84.8029H19.14V77.4969C19.14 77.2949 19.302 77.1339 19.502 77.1339H23.936C24.137 77.1339 24.299 77.2949 24.299 77.4969V84.8029H29.201C29.401 84.8029 29.564 84.6389 29.564 84.4379V72.8259C29.566 72.6269 29.403 72.4639 29.202 72.4639Z" fill="#FD9D24"/>
<path d="M80.486 69.4229H65.799C65.601 69.4229 65.441 69.5778 65.441 69.7738V84.6029C65.441 84.7939 65.601 84.9519 65.799 84.9519H80.486C80.685 84.9519 80.846 84.7949 80.846 84.6029V69.7738C80.846 69.5778 80.685 69.4229 80.486 69.4229ZM72.45 79.1059C72.45 79.2989 72.29 79.4568 72.093 79.4568H67.704C67.505 79.4568 67.343 79.2999 67.343 79.1059V76.4398C67.343 76.2448 67.505 76.0889 67.704 76.0889H72.093C72.29 76.0889 72.45 76.2438 72.45 76.4398V79.1059ZM72.45 74.1768C72.45 74.3698 72.29 74.5278 72.093 74.5278H67.704C67.505 74.5278 67.343 74.3708 67.343 74.1768V71.5089C67.343 71.3169 67.505 71.1599 67.704 71.1599H72.093C72.29 71.1599 72.45 71.3159 72.45 71.5089V74.1768ZM79.156 79.1059C79.156 79.2989 78.996 79.4568 78.796 79.4568H74.41C74.21 79.4568 74.05 79.2999 74.05 79.1059V76.4398C74.05 76.2448 74.21 76.0889 74.41 76.0889H78.796C78.996 76.0889 79.156 76.2438 79.156 76.4398V79.1059ZM79.156 74.1768C79.156 74.3698 78.996 74.5278 78.796 74.5278H74.41C74.21 74.5278 74.05 74.3708 74.05 74.1768V71.5089C74.05 71.3169 74.21 71.1599 74.41 71.1599H78.796C78.996 71.1599 79.156 71.3159 79.156 71.5089V74.1768Z" fill="#FD9D24"/>
<path d="M46.3461 35H31.9751C31.7821 35 31.6221 35.157 31.6221 35.353V84.472C31.6221 84.664 31.7811 84.823 31.9751 84.823H46.3461C46.5381 84.823 46.7001 84.665 46.7001 84.472V35.353C46.7001 35.157 46.5381 35 46.3461 35ZM37.7961 79.228C37.7961 79.331 37.7111 79.416 37.6081 79.416H34.3171C34.2131 79.416 34.1281 79.331 34.1281 79.228V75.56C34.1281 75.456 34.2131 75.372 34.3171 75.372H37.6081C37.7111 75.372 37.7961 75.455 37.7961 75.56V79.228ZM37.7961 70.805C37.7961 70.91 37.7111 70.993 37.6081 70.993H34.3171C34.2131 70.993 34.1281 70.91 34.1281 70.805V67.139C34.1281 67.032 34.2131 66.95 34.3171 66.95H37.6081C37.7111 66.95 37.7961 67.032 37.7961 67.139V70.805ZM37.7961 62.384C37.7961 62.488 37.7111 62.572 37.6081 62.572H34.3171C34.2131 62.572 34.1281 62.487 34.1281 62.384V58.716C34.1281 58.611 34.2131 58.527 34.3171 58.527H37.6081C37.7111 58.527 37.7961 58.611 37.7961 58.716V62.384ZM37.7961 53.962C37.7961 54.066 37.7111 54.15 37.6081 54.15H34.3171C34.2131 54.15 34.1281 54.066 34.1281 53.962V50.292C34.1281 50.188 34.2131 50.106 34.3171 50.106H37.6081C37.7111 50.106 37.7961 50.188 37.7961 50.292V53.962ZM37.7961 45.54C37.7961 45.644 37.7111 45.728 37.6081 45.728H34.3171C34.2131 45.728 34.1281 45.644 34.1281 45.54V41.872C34.1281 41.767 34.2131 41.683 34.3171 41.683H37.6081C37.7111 41.683 37.7961 41.767 37.7961 41.872V45.54ZM44.2501 79.228C44.2501 79.331 44.1651 79.416 44.0611 79.416H40.7721C40.6671 79.416 40.5831 79.331 40.5831 79.228V75.56C40.5831 75.456 40.6671 75.372 40.7721 75.372H44.0611C44.1651 75.372 44.2501 75.455 44.2501 75.56V79.228ZM44.2501 70.805C44.2501 70.91 44.1651 70.993 44.0611 70.993H40.7721C40.6671 70.993 40.5831 70.91 40.5831 70.805V67.139C40.5831 67.032 40.6671 66.95 40.7721 66.95H44.0611C44.1651 66.95 44.2501 67.032 44.2501 67.139V70.805ZM44.2501 62.384C44.2501 62.488 44.1651 62.572 44.0611 62.572H40.7721C40.6671 62.572 40.5831 62.487 40.5831 62.384V58.716C40.5831 58.611 40.6671 58.527 40.7721 58.527H44.0611C44.1651 58.527 44.2501 58.611 44.2501 58.716V62.384ZM44.2501 53.962C44.2501 54.066 44.1651 54.15 44.0611 54.15H40.7721C40.6671 54.15 40.5831 54.066 40.5831 53.962V50.292C40.5831 50.188 40.6671 50.106 40.7721 50.106H44.0611C44.1651 50.106 44.2501 50.188 44.2501 50.292V53.962ZM44.2501 45.54C44.2501 45.644 44.1651 45.728 44.0611 45.728H40.7721C40.6671 45.728 40.5831 45.644 40.5831 45.54V41.872C40.5831 41.767 40.6671 41.683 40.7721 41.683H44.0611C44.1651 41.683 44.2501 41.767 44.2501 41.872V45.54Z" fill="#FD9D24"/>
<path d="M80.8281 67.9322C80.8281 68.0972 80.6961 68.2282 80.5331 68.2282H65.7511C65.5881 68.2282 65.4561 68.0972 65.4561 67.9322V64.9762C65.4561 64.8132 65.5881 64.6812 65.7511 64.6812H80.5331C80.6961 64.6812 80.8281 64.8132 80.8281 64.9762V67.9322Z" fill="#FD9D24"/>
<path d="M63.7059 44.275C63.6579 44.118 63.518 44.001 63.345 44.001C63.267 44.001 63.2 44.029 63.14 44.069C63.13 44.075 63.122 44.079 63.114 44.087L62.993 44.239L48.8669 62.159L48.8019 62.246C48.7289 62.318 48.682 62.416 48.679 62.526V62.549V84.544C48.679 84.737 48.837 84.895 49.033 84.895H63.39C63.585 84.895 63.7419 84.738 63.7419 84.544V44.422C63.7409 44.37 63.7259 44.319 63.7059 44.275ZM57.759 54.007L57.86 53.88C58.828 52.64 60.4559 50.634 61.2499 49.661L61.3539 49.536C61.4289 49.446 61.543 49.388 61.671 49.388C61.867 49.388 62.024 49.531 62.062 49.716V49.874V50.005V54.249C62.062 54.468 61.8879 54.644 61.6719 54.653C61.6659 54.653 61.66 54.657 61.654 54.657C61.647 54.657 61.6419 54.653 61.6349 54.653H58.2809H58.105C58.098 54.653 58.093 54.657 58.087 54.657C58.081 54.657 58.076 54.653 58.069 54.653C57.851 54.643 57.6769 54.467 57.6769 54.249C57.6789 54.159 57.709 54.075 57.759 54.007ZM55.524 79.103C55.524 79.297 55.369 79.455 55.173 79.455H50.889C50.694 79.455 50.537 79.298 50.537 79.103V76.421C50.537 76.227 50.693 76.071 50.889 76.071H55.173C55.368 76.071 55.524 76.226 55.524 76.421V79.103ZM55.524 74.15C55.524 74.343 55.369 74.501 55.173 74.501H50.889C50.694 74.501 50.537 74.344 50.537 74.15V71.467C50.537 71.272 50.693 71.116 50.889 71.116H55.173C55.368 71.116 55.524 71.271 55.524 71.467V74.15ZM55.524 69.194C55.524 69.386 55.369 69.544 55.173 69.544H50.889C50.694 69.544 50.537 69.387 50.537 69.194V66.512C50.537 66.318 50.693 66.16 50.889 66.16H55.173C55.368 66.16 55.524 66.317 55.524 66.512V69.194ZM55.5359 58.337V58.466V64.244C55.5359 64.439 55.377 64.596 55.184 64.596H50.902C50.706 64.596 50.548 64.44 50.548 64.244V63.53V63.501C50.55 63.454 50.56 63.41 50.575 63.37C50.583 63.355 50.5839 63.349 50.5959 63.329C50.6039 63.311 50.617 63.297 50.627 63.282C50.638 63.265 50.654 63.244 50.667 63.224C51.214 62.441 53.685 59.397 54.723 58.123L54.827 57.998C54.902 57.908 55.015 57.848 55.142 57.848C55.339 57.848 55.496 57.993 55.535 58.178V58.337H55.5359ZM62.0729 79.103C62.0729 79.297 61.9139 79.455 61.7209 79.455H57.438C57.243 79.455 57.085 79.298 57.085 79.103V76.421C57.085 76.227 57.242 76.071 57.438 76.071H61.7209C61.9129 76.071 62.0729 76.226 62.0729 76.421V79.103ZM62.0729 74.15C62.0729 74.343 61.9139 74.501 61.7209 74.501H57.438C57.243 74.501 57.085 74.344 57.085 74.15V71.467C57.085 71.272 57.242 71.116 57.438 71.116H61.7209C61.9129 71.116 62.0729 71.271 62.0729 71.467V74.15ZM62.0729 69.194C62.0729 69.386 61.9139 69.544 61.7209 69.544H57.438C57.243 69.544 57.085 69.387 57.085 69.194V66.512C57.085 66.318 57.242 66.16 57.438 66.16H61.7209C61.9129 66.16 62.0729 66.317 62.0729 66.512V69.194ZM62.0729 64.239C62.0729 64.432 61.9139 64.589 61.7209 64.589H57.438C57.243 64.589 57.085 64.433 57.085 64.239V61.557C57.085 61.363 57.242 61.206 57.438 61.206H61.7209C61.9129 61.206 62.0729 61.362 62.0729 61.557V64.239ZM62.0729 59.284C62.0729 59.479 61.9139 59.634 61.7209 59.634H57.438C57.243 59.634 57.085 59.48 57.085 59.284V56.602C57.085 56.407 57.242 56.248 57.438 56.248H61.7209C61.9129 56.248 62.0729 56.406 62.0729 56.602V59.284Z" fill="#FD9D24"/>
<path d="M29.3242 16.0703C28.694 16.0703 28.2122 15.8854 27.8789 15.5156C27.5482 15.1458 27.3633 14.6406 27.3242 14L28.3242 13.75C28.3737 14.75 28.707 15.25 29.3242 15.25C29.8242 15.25 30.0742 15 30.0742 14.5C30.0742 14.3516 30.0534 14.2148 30.0117 14.0898C29.9727 13.9622 29.9115 13.8464 29.8281 13.7422C29.7448 13.6354 29.6693 13.5508 29.6016 13.4883C29.5339 13.4232 29.4414 13.3438 29.3242 13.25L28.0742 12.25C27.8451 12.0703 27.6615 11.8424 27.5234 11.5664C27.388 11.2878 27.3203 10.9714 27.3203 10.6172C27.3203 10.1016 27.4805 9.69141 27.8008 9.38672C28.1211 9.08203 28.5456 8.92969 29.0742 8.92969C29.6419 8.92969 30.0924 9.06901 30.4258 9.34766C30.7617 9.6237 30.9688 10.0156 31.0469 10.5234C31.0547 10.5781 31.0638 10.6536 31.0742 10.75L30.0742 11C30.0716 10.9557 30.0651 10.8893 30.0547 10.8008C30.0104 10.4831 29.9102 10.2292 29.7539 10.0391C29.6003 9.84635 29.3737 9.75 29.0742 9.75C28.8346 9.75 28.6497 9.81771 28.5195 9.95312C28.3893 10.0859 28.3242 10.2721 28.3242 10.5117C28.3242 10.9049 28.4909 11.2344 28.8242 11.5L30.0742 12.5C30.7409 13.0391 31.0742 13.6836 31.0742 14.4336C31.0742 14.9466 30.9154 15.3477 30.5977 15.6367C30.2826 15.9258 29.8581 16.0703 29.3242 16.0703ZM34.5547 15.9531C34.3229 16.0339 34.0547 16.0742 33.75 16.0742C33.4453 16.0742 33.1771 16.0339 32.9453 15.9531C32.7135 15.8724 32.5221 15.7604 32.3711 15.6172C32.2227 15.4714 32.1016 15.2891 32.0078 15.0703C31.9141 14.8516 31.8477 14.6159 31.8086 14.3633C31.7695 14.1081 31.75 13.8203 31.75 13.5V9H32.75V13.5C32.75 13.7161 32.7539 13.8971 32.7617 14.043C32.7721 14.1888 32.7969 14.3451 32.8359 14.5117C32.875 14.6758 32.9284 14.8073 32.9961 14.9062C33.0664 15.0052 33.1641 15.0872 33.2891 15.1523C33.4167 15.2174 33.5703 15.25 33.75 15.25C33.9297 15.25 34.082 15.2174 34.207 15.1523C34.3346 15.0872 34.4323 15.0052 34.5 14.9062C34.5703 14.8073 34.625 14.6758 34.6641 14.5117C34.7031 14.3451 34.7266 14.1888 34.7344 14.043C34.7448 13.8971 34.75 13.7161 34.75 13.5V9H35.75V13.5C35.75 13.8203 35.7305 14.1081 35.6914 14.3633C35.6523 14.6159 35.5859 14.8516 35.4922 15.0703C35.3984 15.2891 35.276 15.4714 35.125 15.6172C34.9766 15.7604 34.7865 15.8724 34.5547 15.9531ZM38.5195 16.0703C37.8893 16.0703 37.4076 15.8854 37.0742 15.5156C36.7435 15.1458 36.5586 14.6406 36.5195 14L37.5195 13.75C37.569 14.75 37.9023 15.25 38.5195 15.25C39.0195 15.25 39.2695 15 39.2695 14.5C39.2695 14.3516 39.2487 14.2148 39.207 14.0898C39.168 13.9622 39.1068 13.8464 39.0234 13.7422C38.9401 13.6354 38.8646 13.5508 38.7969 13.4883C38.7292 13.4232 38.6367 13.3438 38.5195 13.25L37.2695 12.25C37.0404 12.0703 36.8568 11.8424 36.7188 11.5664C36.5833 11.2878 36.5156 10.9714 36.5156 10.6172C36.5156 10.1016 36.6758 9.69141 36.9961 9.38672C37.3164 9.08203 37.7409 8.92969 38.2695 8.92969C38.8372 8.92969 39.2878 9.06901 39.6211 9.34766C39.957 9.6237 40.1641 10.0156 40.2422 10.5234C40.25 10.5781 40.2591 10.6536 40.2695 10.75L39.2695 11C39.2669 10.9557 39.2604 10.8893 39.25 10.8008C39.2057 10.4831 39.1055 10.2292 38.9492 10.0391C38.7956 9.84635 38.569 9.75 38.2695 9.75C38.0299 9.75 37.8451 9.81771 37.7148 9.95312C37.5846 10.0859 37.5195 10.2721 37.5195 10.5117C37.5195 10.9049 37.6862 11.2344 38.0195 11.5L39.2695 12.5C39.9362 13.0391 40.2695 13.6836 40.2695 14.4336C40.2695 14.9466 40.1107 15.3477 39.793 15.6367C39.4779 15.9258 39.0534 16.0703 38.5195 16.0703ZM41.7461 16V9.89062H40.4961V9H43.9961V9.89062H42.7461V16H41.7461ZM45.4531 13.5H46.4531L45.9531 10.5L45.4531 13.5ZM43.9531 16L45.4531 9H46.4531L47.9531 16H46.9531L46.5781 14.25H45.3281L44.9531 16H43.9531ZM48.5625 16V9H49.5625V16H48.5625ZM50.6328 16V9H51.3828L53.1328 13.3281V9H54.1328V16H53.4219L51.6328 11.3438V16H50.6328ZM56.1953 13.5H57.1953L56.6953 10.5L56.1953 13.5ZM54.6953 16L56.1953 9H57.1953L58.6953 16H57.6953L57.3203 14.25H56.0703L55.6953 16H54.6953ZM60.2578 12H60.7578C61.5911 12 62.0078 11.5833 62.0078 10.75C62.0078 10.612 61.9909 10.4909 61.957 10.3867C61.9232 10.2799 61.8828 10.1914 61.8359 10.1211C61.7891 10.0508 61.7174 9.99219 61.6211 9.94531C61.5273 9.89583 61.4414 9.85807 61.3633 9.83203C61.2852 9.80599 61.1732 9.78776 61.0273 9.77734C60.8841 9.76432 60.7643 9.75651 60.668 9.75391C60.5716 9.7513 60.4349 9.75 60.2578 9.75V12ZM60.2578 15.25H60.7578C61.1901 15.25 61.5065 15.151 61.707 14.9531C61.9076 14.7526 62.0078 14.4349 62.0078 14C62.0078 13.5651 61.9076 13.2487 61.707 13.0508C61.5065 12.8503 61.1901 12.75 60.7578 12.75H60.2578V15.25ZM59.2578 16V9H60.7578C61.0807 9 61.3698 9.03385 61.625 9.10156C61.8802 9.16927 62.1029 9.27214 62.293 9.41016C62.4857 9.54818 62.6328 9.73047 62.7344 9.95703C62.8385 10.1836 62.8906 10.4479 62.8906 10.75C62.8906 11.1875 62.7982 11.5208 62.6133 11.75C62.4284 11.9766 62.1432 12.1432 61.7578 12.25C62.1745 12.388 62.487 12.5911 62.6953 12.8594C62.9036 13.125 63.0078 13.5052 63.0078 14C63.0078 14.6172 62.8281 15.1055 62.4688 15.4648C62.112 15.8216 61.625 16 61.0078 16H59.2578ZM63.7344 16V9H64.7344V15.25H66.4844V16H63.7344ZM66.9531 16V9H69.7031V9.75H67.9531V12H69.2031V12.75H67.9531V15.25H69.7031V16H66.9531ZM73.7422 16.0703C73.4479 16.0703 73.1888 16.0286 72.9648 15.9453C72.7409 15.862 72.5573 15.7474 72.4141 15.6016C72.2708 15.4531 72.1536 15.2695 72.0625 15.0508C71.974 14.8294 71.9115 14.5938 71.875 14.3438C71.8385 14.0938 71.8203 13.8112 71.8203 13.4961V11.5C71.8203 11.1849 71.8385 10.9023 71.875 10.6523C71.9115 10.4023 71.974 10.168 72.0625 9.94922C72.1536 9.72786 72.2708 9.54427 72.4141 9.39844C72.5573 9.2526 72.7409 9.13802 72.9648 9.05469C73.1888 8.97135 73.4479 8.92969 73.7422 8.92969C74.0677 8.92969 74.349 8.97786 74.5859 9.07422C74.8229 9.17057 75.0117 9.3125 75.1523 9.5C75.2956 9.6875 75.4023 9.90495 75.4727 10.1523C75.5456 10.3997 75.5885 10.6888 75.6016 11.0195C75.6042 11.069 75.6055 11.1458 75.6055 11.25H74.6055V11.0273C74.6029 10.8893 74.5977 10.7721 74.5898 10.6758C74.582 10.5768 74.5677 10.4753 74.5469 10.3711C74.526 10.2669 74.4948 10.181 74.4531 10.1133C74.4141 10.043 74.3633 9.97917 74.3008 9.92188C74.2409 9.86198 74.1641 9.81901 74.0703 9.79297C73.9766 9.76432 73.8672 9.75 73.7422 9.75C73.5807 9.75 73.4414 9.77604 73.3242 9.82812C73.2096 9.88021 73.1198 9.94792 73.0547 10.0312C72.9896 10.112 72.9388 10.2214 72.9023 10.3594C72.8685 10.4974 72.8464 10.6328 72.8359 10.7656C72.8255 10.8958 72.8203 11.0573 72.8203 11.25V13.75C72.8203 13.9167 72.8268 14.0677 72.8398 14.2031C72.8555 14.3385 72.8841 14.474 72.9258 14.6094C72.9674 14.7422 73.0208 14.8542 73.0859 14.9453C73.1536 15.0365 73.2422 15.1107 73.3516 15.168C73.4635 15.2227 73.5938 15.25 73.7422 15.25C73.8906 15.25 74.0182 15.2214 74.125 15.1641C74.2318 15.1068 74.3151 15.0339 74.375 14.9453C74.4375 14.8568 74.4857 14.7435 74.5195 14.6055C74.556 14.4674 74.5794 14.3333 74.5898 14.2031C74.6003 14.0729 74.6055 13.9219 74.6055 13.75V13.5H75.6055V13.75C75.6055 14.112 75.5729 14.4297 75.5078 14.7031C75.4453 14.9766 75.3424 15.2188 75.1992 15.4297C75.0586 15.638 74.8659 15.7969 74.6211 15.9062C74.3789 16.0156 74.0859 16.0703 73.7422 16.0703ZM76.3203 16V9H77.3203V16H76.3203ZM79.1367 16V9.89062H77.8867V9H81.3867V9.89062H80.1367V16H79.1367ZM81.9297 16V9H82.9297V16H81.9297ZM84 16V9H86.75V9.75H85V12H86.25V12.75H85V15.25H86.75V16H84ZM89.1914 16.0703C88.5612 16.0703 88.0794 15.8854 87.7461 15.5156C87.4154 15.1458 87.2305 14.6406 87.1914 14L88.1914 13.75C88.2409 14.75 88.5742 15.25 89.1914 15.25C89.6914 15.25 89.9414 15 89.9414 14.5C89.9414 14.3516 89.9206 14.2148 89.8789 14.0898C89.8398 13.9622 89.7786 13.8464 89.6953 13.7422C89.612 13.6354 89.5365 13.5508 89.4688 13.4883C89.401 13.4232 89.3086 13.3438 89.1914 13.25L87.9414 12.25C87.7122 12.0703 87.5286 11.8424 87.3906 11.5664C87.2552 11.2878 87.1875 10.9714 87.1875 10.6172C87.1875 10.1016 87.3477 9.69141 87.668 9.38672C87.9883 9.08203 88.4128 8.92969 88.9414 8.92969C89.5091 8.92969 89.9596 9.06901 90.293 9.34766C90.6289 9.6237 90.8359 10.0156 90.9141 10.5234C90.9219 10.5781 90.931 10.6536 90.9414 10.75L89.9414 11C89.9388 10.9557 89.9323 10.8893 89.9219 10.8008C89.8776 10.4831 89.7773 10.2292 89.6211 10.0391C89.4674 9.84635 89.2409 9.75 88.9414 9.75C88.7018 9.75 88.5169 9.81771 88.3867 9.95312C88.2565 10.0859 88.1914 10.2721 88.1914 10.5117C88.1914 10.9049 88.3581 11.2344 88.6914 11.5L89.9414 12.5C90.6081 13.0391 90.9414 13.6836 90.9414 14.4336C90.9414 14.9466 90.7826 15.3477 90.4648 15.6367C90.1497 15.9258 89.7253 16.0703 89.1914 16.0703ZM28.5625 23.5H29.5625L29.0625 20.5L28.5625 23.5ZM27.0625 26L28.5625 19H29.5625L31.0625 26H30.0625L29.6875 24.25H28.4375L28.0625 26H27.0625ZM31.625 26V19H32.375L34.125 23.3281V19H35.125V26H34.4141L32.625 21.3438V26H31.625ZM36.125 26V19H37.6758C38.4076 19 38.9232 19.1497 39.2227 19.4492C39.5247 19.7487 39.6758 20.2656 39.6758 21V23.75C39.6758 24.5182 39.5221 25.0859 39.2148 25.4531C38.9102 25.8177 38.3945 26 37.668 26H36.125ZM37.125 25.25H37.6758C37.8398 25.25 37.9805 25.2357 38.0977 25.207C38.2148 25.1758 38.3099 25.1211 38.3828 25.043C38.4557 24.9622 38.513 24.8867 38.5547 24.8164C38.5964 24.7435 38.625 24.6315 38.6406 24.4805C38.6589 24.3294 38.6693 24.2057 38.6719 24.1094C38.6745 24.0104 38.6758 23.8581 38.6758 23.6523C38.6758 23.5846 38.6758 23.5339 38.6758 23.5V21.25C38.6758 21.1224 38.6745 21.0208 38.6719 20.9453C38.6719 20.8698 38.668 20.7812 38.6602 20.6797C38.6549 20.5755 38.6458 20.4935 38.6328 20.4336C38.6198 20.3737 38.6016 20.3073 38.5781 20.2344C38.5547 20.1589 38.5247 20.1003 38.4883 20.0586C38.4544 20.0169 38.4115 19.974 38.3594 19.9297C38.3099 19.8828 38.2513 19.849 38.1836 19.8281C38.1185 19.8047 38.0417 19.7865 37.9531 19.7734C37.8646 19.7578 37.7656 19.75 37.6562 19.75H37.125V25.25ZM43.9766 26.0703C43.6823 26.0703 43.4232 26.0286 43.1992 25.9453C42.9753 25.862 42.7917 25.7474 42.6484 25.6016C42.5052 25.4531 42.388 25.2695 42.2969 25.0508C42.2083 24.8294 42.1458 24.5938 42.1094 24.3438C42.0729 24.0938 42.0547 23.8112 42.0547 23.4961V21.5C42.0547 21.1849 42.0729 20.9023 42.1094 20.6523C42.1458 20.4023 42.2083 20.168 42.2969 19.9492C42.388 19.7279 42.5052 19.5443 42.6484 19.3984C42.7917 19.2526 42.9753 19.138 43.1992 19.0547C43.4232 18.9714 43.6823 18.9297 43.9766 18.9297C44.3021 18.9297 44.5833 18.9779 44.8203 19.0742C45.0573 19.1706 45.2461 19.3125 45.3867 19.5C45.5299 19.6875 45.6367 19.9049 45.707 20.1523C45.7799 20.3997 45.8229 20.6888 45.8359 21.0195C45.8385 21.069 45.8398 21.1458 45.8398 21.25H44.8398V21.0273C44.8372 20.8893 44.832 20.7721 44.8242 20.6758C44.8164 20.5768 44.8021 20.4753 44.7812 20.3711C44.7604 20.2669 44.7292 20.181 44.6875 20.1133C44.6484 20.043 44.5977 19.9792 44.5352 19.9219C44.4753 19.862 44.3984 19.819 44.3047 19.793C44.2109 19.7643 44.1016 19.75 43.9766 19.75C43.8151 19.75 43.6758 19.776 43.5586 19.8281C43.444 19.8802 43.3542 19.9479 43.2891 20.0312C43.224 20.112 43.1732 20.2214 43.1367 20.3594C43.1029 20.4974 43.0807 20.6328 43.0703 20.7656C43.0599 20.8958 43.0547 21.0573 43.0547 21.25V23.75C43.0547 23.9167 43.0612 24.0677 43.0742 24.2031C43.0898 24.3385 43.1185 24.474 43.1602 24.6094C43.2018 24.7422 43.2552 24.8542 43.3203 24.9453C43.388 25.0365 43.4766 25.1107 43.5859 25.168C43.6979 25.2227 43.8281 25.25 43.9766 25.25C44.125 25.25 44.2526 25.2214 44.3594 25.1641C44.4661 25.1068 44.5495 25.0339 44.6094 24.9453C44.6719 24.8568 44.7201 24.7435 44.7539 24.6055C44.7904 24.4674 44.8138 24.3333 44.8242 24.2031C44.8346 24.0729 44.8398 23.9219 44.8398 23.75V23.5H45.8398V23.75C45.8398 24.112 45.8073 24.4297 45.7422 24.7031C45.6797 24.9766 45.5768 25.2188 45.4336 25.4297C45.293 25.638 45.1003 25.7969 44.8555 25.9062C44.6133 26.0156 44.3203 26.0703 43.9766 26.0703ZM48.3125 26.0703C47.9609 26.0703 47.6589 26.0169 47.4062 25.9102C47.1562 25.8034 46.957 25.6471 46.8086 25.4414C46.6602 25.2357 46.5521 24.9948 46.4844 24.7188C46.4167 24.4401 46.3828 24.1172 46.3828 23.75V21.2109C46.3828 20.8438 46.4167 20.5234 46.4844 20.25C46.5521 19.9766 46.6602 19.7396 46.8086 19.5391C46.957 19.3359 47.1562 19.1836 47.4062 19.082C47.6589 18.9805 47.9609 18.9297 48.3125 18.9297C48.9948 18.9297 49.487 19.125 49.7891 19.5156C50.0911 19.9062 50.2422 20.4714 50.2422 21.2109V23.75C50.2422 24.112 50.207 24.4323 50.1367 24.7109C50.069 24.987 49.9609 25.2292 49.8125 25.4375C49.6641 25.6432 49.4635 25.8008 49.2109 25.9102C48.9609 26.0169 48.6615 26.0703 48.3125 26.0703ZM47.582 24.9336C47.7174 25.1445 47.9609 25.25 48.3125 25.25C48.6641 25.25 48.9062 25.1445 49.0391 24.9336C49.1745 24.7227 49.2422 24.4115 49.2422 24V20.9609C49.2422 20.5547 49.1758 20.2513 49.043 20.0508C48.9102 19.8503 48.6667 19.75 48.3125 19.75C47.9583 19.75 47.7148 19.8503 47.582 20.0508C47.4492 20.2513 47.3828 20.5547 47.3828 20.9609V24C47.3828 24.4115 47.4492 24.7227 47.582 24.9336ZM51.1172 26V19H52.5L53.4922 24.3594L54.4844 19H55.8672V26H54.8672V20.4766L53.8672 26H53.1172L52.1172 20.4766V26H51.1172ZM56.8672 26V19H58.25L59.2422 24.3594L60.2344 19H61.6172V26H60.6172V20.4766L59.6172 26H58.8672L57.8672 20.4766V26H56.8672ZM65.3672 25.9531C65.1354 26.0339 64.8672 26.0742 64.5625 26.0742C64.2578 26.0742 63.9896 26.0339 63.7578 25.9531C63.526 25.8724 63.3346 25.7604 63.1836 25.6172C63.0352 25.4714 62.9141 25.2891 62.8203 25.0703C62.7266 24.8516 62.6602 24.6159 62.6211 24.3633C62.582 24.1081 62.5625 23.8203 62.5625 23.5V19H63.5625V23.5C63.5625 23.7161 63.5664 23.8971 63.5742 24.043C63.5846 24.1888 63.6094 24.3451 63.6484 24.5117C63.6875 24.6758 63.7409 24.8073 63.8086 24.9062C63.8789 25.0052 63.9766 25.0872 64.1016 25.1523C64.2292 25.2174 64.3828 25.25 64.5625 25.25C64.7422 25.25 64.8945 25.2174 65.0195 25.1523C65.1471 25.0872 65.2448 25.0052 65.3125 24.9062C65.3828 24.8073 65.4375 24.6758 65.4766 24.5117C65.5156 24.3451 65.5391 24.1888 65.5469 24.043C65.5573 23.8971 65.5625 23.7161 65.5625 23.5V19H66.5625V23.5C66.5625 23.8203 66.543 24.1081 66.5039 24.3633C66.4648 24.6159 66.3984 24.8516 66.3047 25.0703C66.2109 25.2891 66.0885 25.4714 65.9375 25.6172C65.7891 25.7604 65.599 25.8724 65.3672 25.9531ZM67.5078 26V19H68.2578L70.0078 23.3281V19H71.0078V26H70.2969L68.5078 21.3438V26H67.5078ZM72.0547 26V19H73.0547V26H72.0547ZM74.8711 26V19.8906H73.6211V19H77.1211V19.8906H75.8711V26H74.8711ZM77.6641 26V19H78.6641V26H77.6641ZM79.7344 26V19H82.4844V19.75H80.7344V22H81.9844V22.75H80.7344V25.25H82.4844V26H79.7344ZM84.9258 26.0703C84.2956 26.0703 83.8138 25.8854 83.4805 25.5156C83.1497 25.1458 82.9648 24.6406 82.9258 24L83.9258 23.75C83.9753 24.75 84.3086 25.25 84.9258 25.25C85.4258 25.25 85.6758 25 85.6758 24.5C85.6758 24.3516 85.6549 24.2148 85.6133 24.0898C85.5742 23.9622 85.513 23.8464 85.4297 23.7422C85.3464 23.6354 85.2708 23.5508 85.2031 23.4883C85.1354 23.4232 85.043 23.3438 84.9258 23.25L83.6758 22.25C83.4466 22.0703 83.263 21.8424 83.125 21.5664C82.9896 21.2878 82.9219 20.9714 82.9219 20.6172C82.9219 20.1016 83.082 19.6914 83.4023 19.3867C83.7227 19.082 84.1471 18.9297 84.6758 18.9297C85.2435 18.9297 85.694 19.069 86.0273 19.3477C86.3633 19.6237 86.5703 20.0156 86.6484 20.5234C86.6562 20.5781 86.6654 20.6536 86.6758 20.75L85.6758 21C85.6732 20.9557 85.6667 20.8893 85.6562 20.8008C85.612 20.4831 85.5117 20.2292 85.3555 20.0391C85.2018 19.8464 84.9753 19.75 84.6758 19.75C84.4362 19.75 84.2513 19.8177 84.1211 19.9531C83.9909 20.0859 83.9258 20.2721 83.9258 20.5117C83.9258 20.9049 84.0924 21.2344 84.4258 21.5L85.6758 22.5C86.3424 23.0391 86.6758 23.6836 86.6758 24.4336C86.6758 24.9466 86.5169 25.3477 86.1992 25.6367C85.8841 25.9258 85.4596 26.0703 84.9258 26.0703Z" fill="#FD9D24"/>
<path d="M7.625 26V11.5625H5.65625V9.59375C6.97559 9.12207 7.85059 8.46582 8.28125 7.625H10.25V26H7.625ZM14.1875 26V11.5625H12.2188V9.59375C13.5381 9.12207 14.4131 8.46582 14.8438 7.625H16.8125V26H14.1875Z" fill="#FD9D24"/>
</svg>
