<svg width="95" height="95" viewBox="0 0 95 95" fill="none" xmlns="http://www.w3.org/2000/svg">
<rect width="95" height="95" fill="white"/>
<path d="M56.1712 63.2449H38.8843C38.7745 63.2523 38.6914 63.3458 38.6973 63.4556V68.6495C38.6914 68.7593 38.776 68.8543 38.8843 68.8617H56.1697C56.278 68.8543 56.3626 68.7608 56.3552 68.6495V63.4556C56.3611 63.3458 56.2795 63.2538 56.1712 63.2449Z" fill="#DD1367"/>
<path d="M56.1714 52.1904H38.8845C38.7747 52.1978 38.6916 52.2913 38.6976 52.4012V57.5951C38.6916 57.7064 38.7747 57.8014 38.8845 57.8058H56.1699C56.2783 57.8014 56.3629 57.7064 56.3554 57.5951V52.4012C56.3614 52.2913 56.2798 52.1964 56.1714 52.1904Z" fill="#DD1367"/>
<path d="M55.9277 44.3381L47.6292 36.0412C47.5728 35.9863 47.4838 35.9863 47.4274 36.0412L39.1305 44.3381C39.0741 44.3945 39.0741 44.485 39.1305 44.5399C39.1572 44.5666 39.1928 44.5815 39.2299 44.5815H55.8253C55.9054 44.5815 55.9692 44.5177 55.9677 44.4375C55.9677 44.4004 55.9514 44.3648 55.9277 44.3381Z" fill="#DD1367"/>
<path d="M63.7175 68.9227L72.0145 60.6258C72.0709 60.5694 72.0709 60.4789 72.0145 60.424L63.7175 52.1255C63.6597 52.0692 63.5706 52.0692 63.5127 52.1255C63.4875 52.1523 63.4712 52.1879 63.4712 52.2265V68.8233C63.4742 68.9034 63.5365 68.9672 63.6151 68.9657C63.6552 68.9643 63.6893 68.9494 63.7175 68.9227Z" fill="#DD1367"/>
<path d="M39.1309 76.7142L47.4278 85.0097C47.4812 85.0631 47.5732 85.0646 47.6296 85.0097L55.928 76.7113C55.9829 76.6564 55.9844 76.5644 55.928 76.508C55.8998 76.4798 55.8642 76.4664 55.8271 76.4664H39.2303C39.1516 76.4634 39.0849 76.5258 39.0834 76.6059C39.0834 76.6475 39.0997 76.686 39.1309 76.7142Z" fill="#DD1367"/>
<path d="M31.34 52.1268L23.043 60.4252C22.9867 60.4801 22.9852 60.5721 23.0416 60.6255C23.0416 60.627 23.043 60.627 23.043 60.627L31.34 68.9239C31.3964 68.9803 31.4869 68.9803 31.5418 68.9239C31.57 68.8972 31.5833 68.8616 31.5833 68.8245V52.2277C31.5833 52.1475 31.5195 52.0852 31.4394 52.0852C31.4038 52.0852 31.3667 52.1015 31.34 52.1268Z" fill="#DD1367"/>
<path d="M28.5 12H28.75C29.1667 12 29.4792 11.9128 29.6875 11.7383C29.8958 11.5612 30 11.2734 30 10.875C30 10.4766 29.8958 10.1901 29.6875 10.0156C29.4792 9.83854 29.1667 9.75 28.75 9.75H28.5V12ZM27.5 16V9H28.75C29.4948 9 30.056 9.14453 30.4336 9.43359C30.8112 9.72266 31 10.2031 31 10.875C31 11.2917 30.9258 11.6406 30.7773 11.9219C30.6289 12.2031 30.4115 12.3958 30.125 12.5L31.25 16H30.2578L29.25 12.75H28.5V16H27.5ZM31.8281 16V9H34.5781V9.75H32.8281V12H34.0781V12.75H32.8281V15.25H34.5781V16H31.8281ZM35.1953 16V9H36.7461C37.4779 9 37.9935 9.14974 38.293 9.44922C38.5951 9.7487 38.7461 10.2656 38.7461 11V13.75C38.7461 14.5182 38.5924 15.0859 38.2852 15.4531C37.9805 15.8177 37.4648 16 36.7383 16H35.1953ZM36.1953 15.25H36.7461C36.9102 15.25 37.0508 15.2357 37.168 15.207C37.2852 15.1758 37.3802 15.1211 37.4531 15.043C37.526 14.9622 37.5833 14.8867 37.625 14.8164C37.6667 14.7435 37.6953 14.6315 37.7109 14.4805C37.7292 14.3294 37.7396 14.2057 37.7422 14.1094C37.7448 14.0104 37.7461 13.8581 37.7461 13.6523C37.7461 13.5846 37.7461 13.5339 37.7461 13.5V11.25C37.7461 11.1224 37.7448 11.0208 37.7422 10.9453C37.7422 10.8698 37.7383 10.7812 37.7305 10.6797C37.7253 10.5755 37.7161 10.4935 37.7031 10.4336C37.6901 10.3737 37.6719 10.3073 37.6484 10.2344C37.625 10.1589 37.5951 10.1003 37.5586 10.0586C37.5247 10.0169 37.4818 9.97396 37.4297 9.92969C37.3802 9.88281 37.3216 9.84896 37.2539 9.82812C37.1888 9.80469 37.112 9.78646 37.0234 9.77344C36.9349 9.75781 36.8359 9.75 36.7266 9.75H36.1953V15.25ZM42.375 15.9531C42.1432 16.0339 41.875 16.0742 41.5703 16.0742C41.2656 16.0742 40.9974 16.0339 40.7656 15.9531C40.5339 15.8724 40.3424 15.7604 40.1914 15.6172C40.043 15.4714 39.9219 15.2891 39.8281 15.0703C39.7344 14.8516 39.668 14.6159 39.6289 14.3633C39.5898 14.1081 39.5703 13.8203 39.5703 13.5V9H40.5703V13.5C40.5703 13.7161 40.5742 13.8971 40.582 14.043C40.5924 14.1888 40.6172 14.3451 40.6562 14.5117C40.6953 14.6758 40.7487 14.8073 40.8164 14.9062C40.8867 15.0052 40.9844 15.0872 41.1094 15.1523C41.237 15.2174 41.3906 15.25 41.5703 15.25C41.75 15.25 41.9023 15.2174 42.0273 15.1523C42.1549 15.0872 42.2526 15.0052 42.3203 14.9062C42.3906 14.8073 42.4453 14.6758 42.4844 14.5117C42.5234 14.3451 42.5469 14.1888 42.5547 14.043C42.5651 13.8971 42.5703 13.7161 42.5703 13.5V9H43.5703V13.5C43.5703 13.8203 43.5508 14.1081 43.5117 14.3633C43.4727 14.6159 43.4062 14.8516 43.3125 15.0703C43.2188 15.2891 43.0964 15.4714 42.9453 15.6172C42.7969 15.7604 42.6068 15.8724 42.375 15.9531ZM46.3125 16.0703C46.0182 16.0703 45.7591 16.0286 45.5352 15.9453C45.3112 15.862 45.1276 15.7474 44.9844 15.6016C44.8411 15.4531 44.724 15.2695 44.6328 15.0508C44.5443 14.8294 44.4818 14.5938 44.4453 14.3438C44.4089 14.0938 44.3906 13.8112 44.3906 13.4961V11.5C44.3906 11.1849 44.4089 10.9023 44.4453 10.6523C44.4818 10.4023 44.5443 10.168 44.6328 9.94922C44.724 9.72786 44.8411 9.54427 44.9844 9.39844C45.1276 9.2526 45.3112 9.13802 45.5352 9.05469C45.7591 8.97135 46.0182 8.92969 46.3125 8.92969C46.638 8.92969 46.9193 8.97786 47.1562 9.07422C47.3932 9.17057 47.582 9.3125 47.7227 9.5C47.8659 9.6875 47.9727 9.90495 48.043 10.1523C48.1159 10.3997 48.1589 10.6888 48.1719 11.0195C48.1745 11.069 48.1758 11.1458 48.1758 11.25H47.1758V11.0273C47.1732 10.8893 47.168 10.7721 47.1602 10.6758C47.1523 10.5768 47.138 10.4753 47.1172 10.3711C47.0964 10.2669 47.0651 10.181 47.0234 10.1133C46.9844 10.043 46.9336 9.97917 46.8711 9.92188C46.8112 9.86198 46.7344 9.81901 46.6406 9.79297C46.5469 9.76432 46.4375 9.75 46.3125 9.75C46.151 9.75 46.0117 9.77604 45.8945 9.82812C45.7799 9.88021 45.6901 9.94792 45.625 10.0312C45.5599 10.112 45.5091 10.2214 45.4727 10.3594C45.4388 10.4974 45.4167 10.6328 45.4062 10.7656C45.3958 10.8958 45.3906 11.0573 45.3906 11.25V13.75C45.3906 13.9167 45.3971 14.0677 45.4102 14.2031C45.4258 14.3385 45.4544 14.474 45.4961 14.6094C45.5378 14.7422 45.5911 14.8542 45.6562 14.9453C45.724 15.0365 45.8125 15.1107 45.9219 15.168C46.0339 15.2227 46.1641 15.25 46.3125 15.25C46.4609 15.25 46.5885 15.2214 46.6953 15.1641C46.8021 15.1068 46.8854 15.0339 46.9453 14.9453C47.0078 14.8568 47.056 14.7435 47.0898 14.6055C47.1263 14.4674 47.1497 14.3333 47.1602 14.2031C47.1706 14.0729 47.1758 13.9219 47.1758 13.75V13.5H48.1758V13.75C48.1758 14.112 48.1432 14.4297 48.0781 14.7031C48.0156 14.9766 47.9128 15.2188 47.7695 15.4297C47.6289 15.638 47.4362 15.7969 47.1914 15.9062C46.9492 16.0156 46.6562 16.0703 46.3125 16.0703ZM48.8438 16V9H51.5938V9.75H49.8438V12H51.0938V12.75H49.8438V15.25H51.5938V16H48.8438ZM52.2109 16V9H53.7617C54.4935 9 55.0091 9.14974 55.3086 9.44922C55.6107 9.7487 55.7617 10.2656 55.7617 11V13.75C55.7617 14.5182 55.6081 15.0859 55.3008 15.4531C54.9961 15.8177 54.4805 16 53.7539 16H52.2109ZM53.2109 15.25H53.7617C53.9258 15.25 54.0664 15.2357 54.1836 15.207C54.3008 15.1758 54.3958 15.1211 54.4688 15.043C54.5417 14.9622 54.599 14.8867 54.6406 14.8164C54.6823 14.7435 54.7109 14.6315 54.7266 14.4805C54.7448 14.3294 54.7552 14.2057 54.7578 14.1094C54.7604 14.0104 54.7617 13.8581 54.7617 13.6523C54.7617 13.5846 54.7617 13.5339 54.7617 13.5V11.25C54.7617 11.1224 54.7604 11.0208 54.7578 10.9453C54.7578 10.8698 54.7539 10.7812 54.7461 10.6797C54.7409 10.5755 54.7318 10.4935 54.7188 10.4336C54.7057 10.3737 54.6875 10.3073 54.6641 10.2344C54.6406 10.1589 54.6107 10.1003 54.5742 10.0586C54.5404 10.0169 54.4974 9.97396 54.4453 9.92969C54.3958 9.88281 54.3372 9.84896 54.2695 9.82812C54.2044 9.80469 54.1276 9.78646 54.0391 9.77344C53.9505 9.75781 53.8516 9.75 53.7422 9.75H53.2109V15.25ZM27.5469 26V19H28.5469V26H27.5469ZM29.6172 26V19H30.3672L32.1172 23.3281V19H33.1172V26H32.4062L30.6172 21.3438V26H29.6172ZM34.1172 26V19H36.8672V19.75H35.1172V22H36.3672V22.75H35.1172V25.25H36.8672V26H34.1172ZM38.5586 24.9336C38.694 25.1445 38.9375 25.25 39.2891 25.25C39.6406 25.25 39.8828 25.1445 40.0156 24.9336C40.151 24.7227 40.2188 24.4115 40.2188 24V20.9609C40.2188 20.5547 40.1523 20.2513 40.0195 20.0508C39.8867 19.8503 39.6432 19.75 39.2891 19.75C38.9349 19.75 38.6914 19.8503 38.5586 20.0508C38.4258 20.2513 38.3594 20.5547 38.3594 20.9609V24C38.3594 24.4115 38.4258 24.7227 38.5586 24.9336ZM41.1367 27C40.8529 27 40.5703 26.901 40.2891 26.7031C40.0104 26.5052 39.8073 26.2852 39.6797 26.043C39.5677 26.0612 39.4375 26.0703 39.2891 26.0703C38.9375 26.0703 38.6354 26.0169 38.3828 25.9102C38.1328 25.8034 37.9336 25.6471 37.7852 25.4414C37.6367 25.2357 37.5286 24.9948 37.4609 24.7188C37.3932 24.4401 37.3594 24.1172 37.3594 23.75V21.2109C37.3594 20.8438 37.3932 20.5234 37.4609 20.25C37.5286 19.9766 37.6367 19.7396 37.7852 19.5391C37.9336 19.3359 38.1328 19.1836 38.3828 19.082C38.6354 18.9805 38.9375 18.9297 39.2891 18.9297C39.9714 18.9297 40.4635 19.125 40.7656 19.5156C41.0677 19.9062 41.2188 20.4714 41.2188 21.2109V23.75C41.2188 24.7812 40.9388 25.4674 40.3789 25.8086C40.4544 25.918 40.5677 26.0065 40.7188 26.0742C40.8724 26.1445 41.0117 26.1797 41.1367 26.1797V27ZM44.8438 25.9531C44.612 26.0339 44.3438 26.0742 44.0391 26.0742C43.7344 26.0742 43.4661 26.0339 43.2344 25.9531C43.0026 25.8724 42.8112 25.7604 42.6602 25.6172C42.5117 25.4714 42.3906 25.2891 42.2969 25.0703C42.2031 24.8516 42.1367 24.6159 42.0977 24.3633C42.0586 24.1081 42.0391 23.8203 42.0391 23.5V19H43.0391V23.5C43.0391 23.7161 43.043 23.8971 43.0508 24.043C43.0612 24.1888 43.0859 24.3451 43.125 24.5117C43.1641 24.6758 43.2174 24.8073 43.2852 24.9062C43.3555 25.0052 43.4531 25.0872 43.5781 25.1523C43.7057 25.2174 43.8594 25.25 44.0391 25.25C44.2188 25.25 44.3711 25.2174 44.4961 25.1523C44.6237 25.0872 44.7214 25.0052 44.7891 24.9062C44.8594 24.8073 44.9141 24.6758 44.9531 24.5117C44.9922 24.3451 45.0156 24.1888 45.0234 24.043C45.0339 23.8971 45.0391 23.7161 45.0391 23.5V19H46.0391V23.5C46.0391 23.8203 46.0195 24.1081 45.9805 24.3633C45.9414 24.6159 45.875 24.8516 45.7812 25.0703C45.6875 25.2891 45.5651 25.4714 45.4141 25.6172C45.2656 25.7604 45.0755 25.8724 44.8438 25.9531ZM47.9922 23.5H48.9922L48.4922 20.5L47.9922 23.5ZM46.4922 26L47.9922 19H48.9922L50.4922 26H49.4922L49.1172 24.25H47.8672L47.4922 26H46.4922ZM51.0547 26V19H52.0547V25.25H53.8047V26H51.0547ZM54.3203 26V19H55.3203V26H54.3203ZM57.1367 26V19.8906H55.8867V19H59.3867V19.8906H58.1367V26H57.1367ZM59.9297 26V19H60.9297V26H59.9297ZM62 26V19H64.75V19.75H63V22H64.25V22.75H63V25.25H64.75V26H62ZM67.1914 26.0703C66.5612 26.0703 66.0794 25.8854 65.7461 25.5156C65.4154 25.1458 65.2305 24.6406 65.1914 24L66.1914 23.75C66.2409 24.75 66.5742 25.25 67.1914 25.25C67.6914 25.25 67.9414 25 67.9414 24.5C67.9414 24.3516 67.9206 24.2148 67.8789 24.0898C67.8398 23.9622 67.7786 23.8464 67.6953 23.7422C67.612 23.6354 67.5365 23.5508 67.4688 23.4883C67.401 23.4232 67.3086 23.3438 67.1914 23.25L65.9414 22.25C65.7122 22.0703 65.5286 21.8424 65.3906 21.5664C65.2552 21.2878 65.1875 20.9714 65.1875 20.6172C65.1875 20.1016 65.3477 19.6914 65.668 19.3867C65.9883 19.082 66.4128 18.9297 66.9414 18.9297C67.5091 18.9297 67.9596 19.069 68.293 19.3477C68.6289 19.6237 68.8359 20.0156 68.9141 20.5234C68.9219 20.5781 68.931 20.6536 68.9414 20.75L67.9414 21C67.9388 20.9557 67.9323 20.8893 67.9219 20.8008C67.8776 20.4831 67.7773 20.2292 67.6211 20.0391C67.4674 19.8464 67.2409 19.75 66.9414 19.75C66.7018 19.75 66.5169 19.8177 66.3867 19.9531C66.2565 20.0859 66.1914 20.2721 66.1914 20.5117C66.1914 20.9049 66.3581 21.2344 66.6914 21.5L67.9414 22.5C68.6081 23.0391 68.9414 23.6836 68.9414 24.4336C68.9414 24.9466 68.7826 25.3477 68.4648 25.6367C68.1497 25.9258 67.7253 26.0703 67.1914 26.0703Z" fill="#DD1367"/>
<path d="M7.625 26V11.5625H5.65625V9.59375C6.97559 9.12207 7.85059 8.46582 8.28125 7.625H10.25V26H7.625ZM17.1406 26.1846C16.1426 26.1846 15.2915 25.9487 14.5874 25.4771C13.8901 25.0054 13.374 24.3696 13.0391 23.5698C12.7109 22.7632 12.5469 21.8232 12.5469 20.75V12.875C12.5469 11.1865 12.9297 9.86035 13.6953 8.89648C14.4609 7.92578 15.6094 7.44043 17.1406 7.44043C18.665 7.44043 19.8101 7.92578 20.5757 8.89648C21.3481 9.86719 21.7344 11.1934 21.7344 12.875V20.75C21.7344 22.3975 21.3413 23.7168 20.5552 24.708C19.7759 25.6924 18.6377 26.1846 17.1406 26.1846ZM17.1406 24.0312C18.4531 24.0312 19.1094 22.9375 19.1094 20.75V12.875C19.1094 12.5059 19.0957 12.1777 19.0684 11.8906C19.041 11.5967 18.9829 11.3027 18.894 11.0088C18.812 10.708 18.6992 10.4585 18.5557 10.2603C18.4189 10.062 18.231 9.90137 17.9917 9.77832C17.7524 9.65527 17.4688 9.59375 17.1406 9.59375C16.8125 9.59375 16.5288 9.65527 16.2896 9.77832C16.0503 9.90137 15.8589 10.062 15.7153 10.2603C15.5786 10.4585 15.4658 10.708 15.377 11.0088C15.2949 11.3027 15.2402 11.5967 15.2129 11.8906C15.1855 12.1777 15.1719 12.5059 15.1719 12.875V20.75C15.1719 21.1807 15.1992 21.5771 15.2539 21.9395C15.3154 22.3018 15.4146 22.647 15.5513 22.9751C15.6948 23.3032 15.8999 23.563 16.1665 23.7544C16.4331 23.939 16.7578 24.0312 17.1406 24.0312Z" fill="#DD1367"/>
</svg>
