<svg width="95" height="95" viewBox="0 0 95 95" fill="none" xmlns="http://www.w3.org/2000/svg">
<rect width="95" height="95" fill="white"/>
<path d="M66.7787 46.8421L56.7727 56.3611C56.3947 56.7381 56.2007 57.0151 56.2007 57.7911V84.4711C56.2007 84.7841 56.4567 85.0401 56.7727 85.0401H67.1087C67.4237 85.0401 67.6777 84.7841 67.6777 84.4711V47.0821C67.6777 46.7671 67.4317 46.1931 66.7787 46.8421Z" fill="#A21942"/>
<path d="M37.9508 59.2431L27.9428 68.7621C27.5668 69.1381 27.3728 69.4141 27.3728 70.1921V84.4701C27.3728 84.7831 27.6288 85.0381 27.9428 85.0381H38.2798C38.5958 85.0381 38.8499 84.7821 38.8499 84.4701V59.4841C38.8499 59.1671 38.6008 58.5911 37.9508 59.2431Z" fill="#A21942"/>
<path d="M71.3277 35.298C71.3317 35.222 71.3047 35.142 71.2427 35.081C71.1897 35.03 71.1227 35.006 71.0577 35L71.0027 35.004L70.9208 35.008L63.2588 36.737L63.1197 36.751C63.0647 36.762 63.0128 36.79 62.9698 36.829C62.8568 36.942 62.8568 37.127 62.9698 37.241L63.0567 37.328L64.8067 39.078L47.4447 56.44L39.4258 48.42C39.3348 48.328 39.1907 48.328 39.0987 48.42L36.9237 50.596C36.9217 50.596 36.9217 50.598 36.9217 50.598L24.0668 63.452C23.9778 63.542 23.9778 63.689 24.0668 63.778L26.2458 65.956C26.3348 66.047 26.4797 66.047 26.5697 65.956L39.2637 53.265L45.0837 59.083C45.0887 59.093 45.0917 59.103 45.1017 59.112L47.2777 61.286C47.3687 61.377 47.5137 61.377 47.6047 61.286L67.3097 41.581L69.1477 43.417C69.2597 43.53 69.4438 43.53 69.5558 43.417C69.6088 43.364 69.6357 43.298 69.6387 43.229L69.6407 43.204L71.3238 35.382L71.3277 35.298Z" fill="#A21942"/>
<path d="M52.4218 60.9139L47.5798 65.7959C47.4888 65.8719 47.3538 65.8689 47.2678 65.7839L42.8818 61.3119C42.0788 60.5129 41.9058 61.1609 41.9058 61.4759V84.4679C41.9058 84.7809 42.1577 85.0369 42.4717 85.0369H52.8118C53.1238 85.0369 53.3798 84.7799 53.3798 84.4679V61.0939C53.3798 60.7799 53.1318 60.2029 52.4218 60.9139Z" fill="#A21942"/>
<path d="M27.5 16V9H29.0508C29.7826 9 30.2982 9.14974 30.5977 9.44922C30.8997 9.7487 31.0508 10.2656 31.0508 11V13.75C31.0508 14.5182 30.8971 15.0859 30.5898 15.4531C30.2852 15.8177 29.7695 16 29.043 16H27.5ZM28.5 15.25H29.0508C29.2148 15.25 29.3555 15.2357 29.4727 15.207C29.5898 15.1758 29.6849 15.1211 29.7578 15.043C29.8307 14.9622 29.888 14.8867 29.9297 14.8164C29.9714 14.7435 30 14.6315 30.0156 14.4805C30.0339 14.3294 30.0443 14.2057 30.0469 14.1094C30.0495 14.0104 30.0508 13.8581 30.0508 13.6523C30.0508 13.5846 30.0508 13.5339 30.0508 13.5V11.25C30.0508 11.1224 30.0495 11.0208 30.0469 10.9453C30.0469 10.8698 30.043 10.7812 30.0352 10.6797C30.0299 10.5755 30.0208 10.4935 30.0078 10.4336C29.9948 10.3737 29.9766 10.3073 29.9531 10.2344C29.9297 10.1589 29.8997 10.1003 29.8633 10.0586C29.8294 10.0169 29.7865 9.97396 29.7344 9.92969C29.6849 9.88281 29.6263 9.84896 29.5586 9.82812C29.4935 9.80469 29.4167 9.78646 29.3281 9.77344C29.2396 9.75781 29.1406 9.75 29.0312 9.75H28.5V15.25ZM31.9297 16V9H34.6797V9.75H32.9297V12H34.1797V12.75H32.9297V15.25H34.6797V16H31.9297ZM37.0938 16.0703C36.7995 16.0703 36.5404 16.0286 36.3164 15.9453C36.0924 15.862 35.9089 15.7474 35.7656 15.6016C35.6224 15.4531 35.5052 15.2695 35.4141 15.0508C35.3255 14.8294 35.263 14.5938 35.2266 14.3438C35.1901 14.0938 35.1719 13.8112 35.1719 13.4961V11.5C35.1719 11.1849 35.1901 10.9023 35.2266 10.6523C35.263 10.4023 35.3255 10.168 35.4141 9.94922C35.5052 9.72786 35.6224 9.54427 35.7656 9.39844C35.9089 9.2526 36.0924 9.13802 36.3164 9.05469C36.5404 8.97135 36.7995 8.92969 37.0938 8.92969C37.4193 8.92969 37.7005 8.97786 37.9375 9.07422C38.1745 9.17057 38.3633 9.3125 38.5039 9.5C38.6471 9.6875 38.7539 9.90495 38.8242 10.1523C38.8971 10.3997 38.9401 10.6888 38.9531 11.0195C38.9557 11.069 38.957 11.1458 38.957 11.25H37.957V11.0273C37.9544 10.8893 37.9492 10.7721 37.9414 10.6758C37.9336 10.5768 37.9193 10.4753 37.8984 10.3711C37.8776 10.2669 37.8464 10.181 37.8047 10.1133C37.7656 10.043 37.7148 9.97917 37.6523 9.92188C37.5924 9.86198 37.5156 9.81901 37.4219 9.79297C37.3281 9.76432 37.2188 9.75 37.0938 9.75C36.9323 9.75 36.793 9.77604 36.6758 9.82812C36.5612 9.88021 36.4714 9.94792 36.4062 10.0312C36.3411 10.112 36.2904 10.2214 36.2539 10.3594C36.2201 10.4974 36.1979 10.6328 36.1875 10.7656C36.1771 10.8958 36.1719 11.0573 36.1719 11.25V13.75C36.1719 13.9167 36.1784 14.0677 36.1914 14.2031C36.207 14.3385 36.2357 14.474 36.2773 14.6094C36.319 14.7422 36.3724 14.8542 36.4375 14.9453C36.5052 15.0365 36.5938 15.1107 36.7031 15.168C36.8151 15.2227 36.9453 15.25 37.0938 15.25C37.2422 15.25 37.3698 15.2214 37.4766 15.1641C37.5833 15.1068 37.6667 15.0339 37.7266 14.9453C37.7891 14.8568 37.8372 14.7435 37.8711 14.6055C37.9076 14.4674 37.931 14.3333 37.9414 14.2031C37.9518 14.0729 37.957 13.9219 37.957 13.75V13.5H38.957V13.75C38.957 14.112 38.9245 14.4297 38.8594 14.7031C38.7969 14.9766 38.694 15.2188 38.5508 15.4297C38.4102 15.638 38.2174 15.7969 37.9727 15.9062C37.7305 16.0156 37.4375 16.0703 37.0938 16.0703ZM39.625 16V9H42.375V9.75H40.625V12H41.875V12.75H40.625V15.25H42.375V16H39.625ZM42.9922 16V9H43.7422L45.4922 13.3281V9H46.4922V16H45.7812L43.9922 11.3438V16H42.9922ZM48.2383 16V9.89062H46.9883V9H50.4883V9.89062H49.2383V16H48.2383ZM53.4023 16L52.1523 9H53.1523L53.6523 12.25L53.9062 14.25L54.1523 12.25L54.6523 9H55.6523L56.1523 12.25L56.3984 14.25L56.6523 12.25L57.1523 9H58.1523L56.9023 16H55.9023L55.4023 12.75L55.1523 10.75L54.9023 12.75L54.4023 16H53.4023ZM60.5 16.0703C60.1484 16.0703 59.8464 16.0169 59.5938 15.9102C59.3438 15.8034 59.1445 15.6471 58.9961 15.4414C58.8477 15.2357 58.7396 14.9948 58.6719 14.7188C58.6042 14.4401 58.5703 14.1172 58.5703 13.75V11.2109C58.5703 10.8438 58.6042 10.5234 58.6719 10.25C58.7396 9.97656 58.8477 9.73958 58.9961 9.53906C59.1445 9.33594 59.3438 9.18359 59.5938 9.08203C59.8464 8.98047 60.1484 8.92969 60.5 8.92969C61.1823 8.92969 61.6745 9.125 61.9766 9.51562C62.2786 9.90625 62.4297 10.4714 62.4297 11.2109V13.75C62.4297 14.112 62.3945 14.4323 62.3242 14.7109C62.2565 14.987 62.1484 15.2292 62 15.4375C61.8516 15.6432 61.651 15.8008 61.3984 15.9102C61.1484 16.0169 60.849 16.0703 60.5 16.0703ZM59.7695 14.9336C59.9049 15.1445 60.1484 15.25 60.5 15.25C60.8516 15.25 61.0938 15.1445 61.2266 14.9336C61.362 14.7227 61.4297 14.4115 61.4297 14V10.9609C61.4297 10.5547 61.3633 10.2513 61.2305 10.0508C61.0977 9.85026 60.8542 9.75 60.5 9.75C60.1458 9.75 59.9023 9.85026 59.7695 10.0508C59.6367 10.2513 59.5703 10.5547 59.5703 10.9609V14C59.5703 14.4115 59.6367 14.7227 59.7695 14.9336ZM64.3047 12H64.5547C64.9714 12 65.2839 11.9128 65.4922 11.7383C65.7005 11.5612 65.8047 11.2734 65.8047 10.875C65.8047 10.4766 65.7005 10.1901 65.4922 10.0156C65.2839 9.83854 64.9714 9.75 64.5547 9.75H64.3047V12ZM63.3047 16V9H64.5547C65.2995 9 65.8607 9.14453 66.2383 9.43359C66.6159 9.72266 66.8047 10.2031 66.8047 10.875C66.8047 11.2917 66.7305 11.6406 66.582 11.9219C66.4336 12.2031 66.2161 12.3958 65.9297 12.5L67.0547 16H66.0625L65.0547 12.75H64.3047V16H63.3047ZM67.6328 16V9H68.6328V12L70.1328 9H71.3828L69.8789 11.75L71.6328 16H70.3828L69.1328 12.75L68.6328 13.75V16H67.6328ZM74.6875 13.5H75.6875L75.1875 10.5L74.6875 13.5ZM73.1875 16L74.6875 9H75.6875L77.1875 16H76.1875L75.8125 14.25H74.5625L74.1875 16H73.1875ZM77.75 16V9H78.5L80.25 13.3281V9H81.25V16H80.5391L78.75 11.3438V16H77.75ZM82.25 16V9H83.8008C84.5326 9 85.0482 9.14974 85.3477 9.44922C85.6497 9.7487 85.8008 10.2656 85.8008 11V13.75C85.8008 14.5182 85.6471 15.0859 85.3398 15.4531C85.0352 15.8177 84.5195 16 83.793 16H82.25ZM83.25 15.25H83.8008C83.9648 15.25 84.1055 15.2357 84.2227 15.207C84.3398 15.1758 84.4349 15.1211 84.5078 15.043C84.5807 14.9622 84.638 14.8867 84.6797 14.8164C84.7214 14.7435 84.75 14.6315 84.7656 14.4805C84.7839 14.3294 84.7943 14.2057 84.7969 14.1094C84.7995 14.0104 84.8008 13.8581 84.8008 13.6523C84.8008 13.5846 84.8008 13.5339 84.8008 13.5V11.25C84.8008 11.1224 84.7995 11.0208 84.7969 10.9453C84.7969 10.8698 84.793 10.7812 84.7852 10.6797C84.7799 10.5755 84.7708 10.4935 84.7578 10.4336C84.7448 10.3737 84.7266 10.3073 84.7031 10.2344C84.6797 10.1589 84.6497 10.1003 84.6133 10.0586C84.5794 10.0169 84.5365 9.97396 84.4844 9.92969C84.4349 9.88281 84.3763 9.84896 84.3086 9.82812C84.2435 9.80469 84.1667 9.78646 84.0781 9.77344C83.9896 9.75781 83.8906 9.75 83.7812 9.75H83.25V15.25ZM27.5 26V19H30.25V19.75H28.5V22H29.75V22.75H28.5V25.25H30.25V26H27.5ZM32.6641 26.0703C32.3698 26.0703 32.1107 26.0286 31.8867 25.9453C31.6628 25.862 31.4792 25.7474 31.3359 25.6016C31.1927 25.4531 31.0755 25.2695 30.9844 25.0508C30.8958 24.8294 30.8333 24.5938 30.7969 24.3438C30.7604 24.0938 30.7422 23.8112 30.7422 23.4961V21.5C30.7422 21.1849 30.7604 20.9023 30.7969 20.6523C30.8333 20.4023 30.8958 20.168 30.9844 19.9492C31.0755 19.7279 31.1927 19.5443 31.3359 19.3984C31.4792 19.2526 31.6628 19.138 31.8867 19.0547C32.1107 18.9714 32.3698 18.9297 32.6641 18.9297C32.9896 18.9297 33.2708 18.9779 33.5078 19.0742C33.7448 19.1706 33.9336 19.3125 34.0742 19.5C34.2174 19.6875 34.3242 19.9049 34.3945 20.1523C34.4674 20.3997 34.5104 20.6888 34.5234 21.0195C34.526 21.069 34.5273 21.1458 34.5273 21.25H33.5273V21.0273C33.5247 20.8893 33.5195 20.7721 33.5117 20.6758C33.5039 20.5768 33.4896 20.4753 33.4688 20.3711C33.4479 20.2669 33.4167 20.181 33.375 20.1133C33.3359 20.043 33.2852 19.9792 33.2227 19.9219C33.1628 19.862 33.0859 19.819 32.9922 19.793C32.8984 19.7643 32.7891 19.75 32.6641 19.75C32.5026 19.75 32.3633 19.776 32.2461 19.8281C32.1315 19.8802 32.0417 19.9479 31.9766 20.0312C31.9115 20.112 31.8607 20.2214 31.8242 20.3594C31.7904 20.4974 31.7682 20.6328 31.7578 20.7656C31.7474 20.8958 31.7422 21.0573 31.7422 21.25V23.75C31.7422 23.9167 31.7487 24.0677 31.7617 24.2031C31.7773 24.3385 31.806 24.474 31.8477 24.6094C31.8893 24.7422 31.9427 24.8542 32.0078 24.9453C32.0755 25.0365 32.1641 25.1107 32.2734 25.168C32.3854 25.2227 32.5156 25.25 32.6641 25.25C32.8125 25.25 32.9401 25.2214 33.0469 25.1641C33.1536 25.1068 33.237 25.0339 33.2969 24.9453C33.3594 24.8568 33.4076 24.7435 33.4414 24.6055C33.4779 24.4674 33.5013 24.3333 33.5117 24.2031C33.5221 24.0729 33.5273 23.9219 33.5273 23.75V23.5H34.5273V23.75C34.5273 24.112 34.4948 24.4297 34.4297 24.7031C34.3672 24.9766 34.2643 25.2188 34.1211 25.4297C33.9805 25.638 33.7878 25.7969 33.543 25.9062C33.3008 26.0156 33.0078 26.0703 32.6641 26.0703ZM37 26.0703C36.6484 26.0703 36.3464 26.0169 36.0938 25.9102C35.8438 25.8034 35.6445 25.6471 35.4961 25.4414C35.3477 25.2357 35.2396 24.9948 35.1719 24.7188C35.1042 24.4401 35.0703 24.1172 35.0703 23.75V21.2109C35.0703 20.8438 35.1042 20.5234 35.1719 20.25C35.2396 19.9766 35.3477 19.7396 35.4961 19.5391C35.6445 19.3359 35.8438 19.1836 36.0938 19.082C36.3464 18.9805 36.6484 18.9297 37 18.9297C37.6823 18.9297 38.1745 19.125 38.4766 19.5156C38.7786 19.9062 38.9297 20.4714 38.9297 21.2109V23.75C38.9297 24.112 38.8945 24.4323 38.8242 24.7109C38.7565 24.987 38.6484 25.2292 38.5 25.4375C38.3516 25.6432 38.151 25.8008 37.8984 25.9102C37.6484 26.0169 37.349 26.0703 37 26.0703ZM36.2695 24.9336C36.4049 25.1445 36.6484 25.25 37 25.25C37.3516 25.25 37.5938 25.1445 37.7266 24.9336C37.862 24.7227 37.9297 24.4115 37.9297 24V20.9609C37.9297 20.5547 37.8633 20.2513 37.7305 20.0508C37.5977 19.8503 37.3542 19.75 37 19.75C36.6458 19.75 36.4023 19.8503 36.2695 20.0508C36.1367 20.2513 36.0703 20.5547 36.0703 20.9609V24C36.0703 24.4115 36.1367 24.7227 36.2695 24.9336ZM39.8047 26V19H40.5547L42.3047 23.3281V19H43.3047V26H42.5938L40.8047 21.3438V26H39.8047ZM46.1094 26.0703C45.7578 26.0703 45.4557 26.0169 45.2031 25.9102C44.9531 25.8034 44.7539 25.6471 44.6055 25.4414C44.457 25.2357 44.349 24.9948 44.2812 24.7188C44.2135 24.4401 44.1797 24.1172 44.1797 23.75V21.2109C44.1797 20.8438 44.2135 20.5234 44.2812 20.25C44.349 19.9766 44.457 19.7396 44.6055 19.5391C44.7539 19.3359 44.9531 19.1836 45.2031 19.082C45.4557 18.9805 45.7578 18.9297 46.1094 18.9297C46.7917 18.9297 47.2839 19.125 47.5859 19.5156C47.888 19.9062 48.0391 20.4714 48.0391 21.2109V23.75C48.0391 24.112 48.0039 24.4323 47.9336 24.7109C47.8659 24.987 47.7578 25.2292 47.6094 25.4375C47.4609 25.6432 47.2604 25.8008 47.0078 25.9102C46.7578 26.0169 46.4583 26.0703 46.1094 26.0703ZM45.3789 24.9336C45.5143 25.1445 45.7578 25.25 46.1094 25.25C46.4609 25.25 46.7031 25.1445 46.8359 24.9336C46.9714 24.7227 47.0391 24.4115 47.0391 24V20.9609C47.0391 20.5547 46.9727 20.2513 46.8398 20.0508C46.707 19.8503 46.4635 19.75 46.1094 19.75C45.7552 19.75 45.5117 19.8503 45.3789 20.0508C45.2461 20.2513 45.1797 20.5547 45.1797 20.9609V24C45.1797 24.4115 45.2461 24.7227 45.3789 24.9336ZM48.9141 26V19H50.2969L51.2891 24.3594L52.2812 19H53.6641V26H52.6641V20.4766L51.6641 26H50.9141L49.9141 20.4766V26H48.9141ZM54.7109 26V19H55.7109V26H54.7109ZM58.5781 26.0703C58.2839 26.0703 58.0247 26.0286 57.8008 25.9453C57.5768 25.862 57.3932 25.7474 57.25 25.6016C57.1068 25.4531 56.9896 25.2695 56.8984 25.0508C56.8099 24.8294 56.7474 24.5938 56.7109 24.3438C56.6745 24.0938 56.6562 23.8112 56.6562 23.4961V21.5C56.6562 21.1849 56.6745 20.9023 56.7109 20.6523C56.7474 20.4023 56.8099 20.168 56.8984 19.9492C56.9896 19.7279 57.1068 19.5443 57.25 19.3984C57.3932 19.2526 57.5768 19.138 57.8008 19.0547C58.0247 18.9714 58.2839 18.9297 58.5781 18.9297C58.9036 18.9297 59.1849 18.9779 59.4219 19.0742C59.6589 19.1706 59.8477 19.3125 59.9883 19.5C60.1315 19.6875 60.2383 19.9049 60.3086 20.1523C60.3815 20.3997 60.4245 20.6888 60.4375 21.0195C60.4401 21.069 60.4414 21.1458 60.4414 21.25H59.4414V21.0273C59.4388 20.8893 59.4336 20.7721 59.4258 20.6758C59.418 20.5768 59.4036 20.4753 59.3828 20.3711C59.362 20.2669 59.3307 20.181 59.2891 20.1133C59.25 20.043 59.1992 19.9792 59.1367 19.9219C59.0768 19.862 59 19.819 58.9062 19.793C58.8125 19.7643 58.7031 19.75 58.5781 19.75C58.4167 19.75 58.2773 19.776 58.1602 19.8281C58.0456 19.8802 57.9557 19.9479 57.8906 20.0312C57.8255 20.112 57.7747 20.2214 57.7383 20.3594C57.7044 20.4974 57.6823 20.6328 57.6719 20.7656C57.6615 20.8958 57.6562 21.0573 57.6562 21.25V23.75C57.6562 23.9167 57.6628 24.0677 57.6758 24.2031C57.6914 24.3385 57.7201 24.474 57.7617 24.6094C57.8034 24.7422 57.8568 24.8542 57.9219 24.9453C57.9896 25.0365 58.0781 25.1107 58.1875 25.168C58.2995 25.2227 58.4297 25.25 58.5781 25.25C58.7266 25.25 58.8542 25.2214 58.9609 25.1641C59.0677 25.1068 59.151 25.0339 59.2109 24.9453C59.2734 24.8568 59.3216 24.7435 59.3555 24.6055C59.3919 24.4674 59.4154 24.3333 59.4258 24.2031C59.4362 24.0729 59.4414 23.9219 59.4414 23.75V23.5H60.4414V23.75C60.4414 24.112 60.4089 24.4297 60.3438 24.7031C60.2812 24.9766 60.1784 25.2188 60.0352 25.4297C59.8945 25.638 59.7018 25.7969 59.457 25.9062C59.2148 26.0156 58.9219 26.0703 58.5781 26.0703ZM64.6094 26.0703C64.2891 26.0703 64.0104 26.0247 63.7734 25.9336C63.5391 25.8424 63.3477 25.7188 63.1992 25.5625C63.0508 25.4062 62.9323 25.207 62.8438 24.9648C62.7552 24.7227 62.694 24.4674 62.6602 24.1992C62.6263 23.931 62.6094 23.6224 62.6094 23.2734V21.5C62.6094 19.7865 63.2891 18.9297 64.6484 18.9297C64.974 18.9297 65.2565 18.9792 65.4961 19.0781C65.7357 19.1745 65.9297 19.3164 66.0781 19.5039C66.2266 19.6914 66.3385 19.9115 66.4141 20.1641C66.4896 20.4141 66.5339 20.7044 66.5469 21.0352C66.5495 21.082 66.5508 21.1536 66.5508 21.25H65.5508V21.0391C65.5482 20.875 65.5391 20.7344 65.5234 20.6172C65.5104 20.4974 65.4844 20.3802 65.4453 20.2656C65.4089 20.151 65.3581 20.0586 65.293 19.9883C65.2279 19.9154 65.1406 19.8581 65.0312 19.8164C64.9245 19.7721 64.7969 19.75 64.6484 19.75C64.4453 19.75 64.2734 19.7878 64.1328 19.8633C63.9948 19.9362 63.888 20.0443 63.8125 20.1875C63.7396 20.3281 63.6875 20.4844 63.6562 20.6562C63.625 20.8255 63.6094 21.0234 63.6094 21.25V23.5C63.6094 23.6667 63.6146 23.8177 63.625 23.9531C63.6354 24.0859 63.6523 24.2227 63.6758 24.3633C63.7018 24.5013 63.7383 24.6211 63.7852 24.7227C63.8346 24.8242 63.8945 24.9167 63.9648 25C64.0378 25.0807 64.1276 25.1432 64.2344 25.1875C64.3438 25.2292 64.4688 25.25 64.6094 25.25C64.776 25.25 64.9206 25.2174 65.043 25.1523C65.1654 25.0872 65.2617 25.0039 65.332 24.9023C65.4049 24.7982 65.4622 24.6667 65.5039 24.5078C65.5456 24.349 65.5729 24.1914 65.5859 24.0352C65.6016 23.8789 65.6094 23.7005 65.6094 23.5V23.25H64.6094V22.5078H66.6094V26H65.8594L65.6094 25.25C65.4141 25.7969 65.0807 26.0703 64.6094 26.0703ZM68.4219 22H68.6719C69.0885 22 69.401 21.9128 69.6094 21.7383C69.8177 21.5612 69.9219 21.2734 69.9219 20.875C69.9219 20.4766 69.8177 20.1901 69.6094 20.0156C69.401 19.8385 69.0885 19.75 68.6719 19.75H68.4219V22ZM67.4219 26V19H68.6719C69.4167 19 69.9779 19.1445 70.3555 19.4336C70.7331 19.7227 70.9219 20.2031 70.9219 20.875C70.9219 21.2917 70.8477 21.6406 70.6992 21.9219C70.5508 22.2031 70.3333 22.3958 70.0469 22.5L71.1719 26H70.1797L69.1719 22.75H68.4219V26H67.4219ZM73.5547 26.0703C73.2031 26.0703 72.901 26.0169 72.6484 25.9102C72.3984 25.8034 72.1992 25.6471 72.0508 25.4414C71.9023 25.2357 71.7943 24.9948 71.7266 24.7188C71.6589 24.4401 71.625 24.1172 71.625 23.75V21.2109C71.625 20.8438 71.6589 20.5234 71.7266 20.25C71.7943 19.9766 71.9023 19.7396 72.0508 19.5391C72.1992 19.3359 72.3984 19.1836 72.6484 19.082C72.901 18.9805 73.2031 18.9297 73.5547 18.9297C74.237 18.9297 74.7292 19.125 75.0312 19.5156C75.3333 19.9062 75.4844 20.4714 75.4844 21.2109V23.75C75.4844 24.112 75.4492 24.4323 75.3789 24.7109C75.3112 24.987 75.2031 25.2292 75.0547 25.4375C74.9062 25.6432 74.7057 25.8008 74.4531 25.9102C74.2031 26.0169 73.9036 26.0703 73.5547 26.0703ZM72.8242 24.9336C72.9596 25.1445 73.2031 25.25 73.5547 25.25C73.9062 25.25 74.1484 25.1445 74.2812 24.9336C74.4167 24.7227 74.4844 24.4115 74.4844 24V20.9609C74.4844 20.5547 74.418 20.2513 74.2852 20.0508C74.1523 19.8503 73.9089 19.75 73.5547 19.75C73.2005 19.75 72.957 19.8503 72.8242 20.0508C72.6914 20.2513 72.625 20.5547 72.625 20.9609V24C72.625 24.4115 72.6914 24.7227 72.8242 24.9336ZM77.1523 26L75.9023 19H76.9023L77.4023 22.25L77.6562 24.25L77.9023 22.25L78.4023 19H79.4023L79.9023 22.25L80.1484 24.25L80.4023 22.25L80.9023 19H81.9023L80.6523 26H79.6523L79.1523 22.75L78.9023 20.75L78.6523 22.75L78.1523 26H77.1523ZM83.1914 26V19.8906H81.9414V19H85.4414V19.8906H84.1914V26H83.1914ZM85.9375 26V19H86.9375V22H88.6875V19H89.6875V26H88.6875V22.75H86.9375V26H85.9375Z" fill="#A21942"/>
<path d="M15.2603 15.1001C15.6021 15.1001 15.8857 15.0215 16.1113 14.8643C16.3438 14.707 16.5146 14.4814 16.624 14.1875C16.7334 13.8867 16.8052 13.5859 16.8394 13.2852C16.8804 12.9844 16.9009 12.6289 16.9009 12.2188C16.9009 10.4688 16.354 9.59375 15.2603 9.59375C14.1528 9.59375 13.5991 10.4688 13.5991 12.2188C13.5991 12.6289 13.6196 12.9878 13.6606 13.2954C13.7017 13.5962 13.7769 13.8936 13.8862 14.1875C13.9956 14.4814 14.1631 14.707 14.3887 14.8643C14.6211 15.0215 14.9116 15.1001 15.2603 15.1001ZM14.3784 23.8569C14.6245 23.9731 14.9185 24.0312 15.2603 24.0312C15.6021 24.0312 15.896 23.9697 16.1421 23.8467C16.3882 23.7236 16.5796 23.5698 16.7163 23.3853C16.853 23.2007 16.959 22.958 17.0342 22.6572C17.1162 22.3496 17.1675 22.0557 17.188 21.7754C17.2085 21.4951 17.2188 21.1567 17.2188 20.7603C17.2188 20.3228 17.1914 19.9331 17.1367 19.5913C17.082 19.2427 16.9863 18.9111 16.8496 18.5967C16.7129 18.2822 16.5112 18.0396 16.2446 17.8687C15.978 17.6978 15.6499 17.6123 15.2603 17.6123C14.8706 17.6123 14.5391 17.6978 14.2656 17.8687C13.999 18.0396 13.7939 18.2822 13.6504 18.5967C13.5137 18.9043 13.418 19.2324 13.3633 19.5811C13.3086 19.9229 13.2812 20.3159 13.2812 20.7603C13.2812 21.1567 13.2915 21.4985 13.312 21.7856C13.3394 22.0659 13.3906 22.3599 13.4658 22.6675C13.5479 22.9683 13.6572 23.2109 13.7939 23.3955C13.9375 23.5801 14.1323 23.7339 14.3784 23.8569ZM15.2603 26.1846C13.647 26.1846 12.4746 25.7197 11.7432 24.79C11.0186 23.8535 10.6562 22.5103 10.6562 20.7603C10.6562 19.6187 10.8135 18.7026 11.1279 18.0122C11.4424 17.3149 11.9482 16.7441 12.6455 16.2998C12.0576 15.8555 11.6235 15.3086 11.3433 14.6592C11.063 14.0098 10.9229 13.1963 10.9229 12.2188C10.9229 10.7012 11.2852 9.52539 12.0098 8.69141C12.7344 7.85742 13.8179 7.44043 15.2603 7.44043C16.6958 7.44043 17.7725 7.86084 18.4902 8.70166C19.2148 9.53564 19.5771 10.708 19.5771 12.2188C19.5771 13.2031 19.437 14.02 19.1567 14.6694C18.8833 15.312 18.4526 15.8555 17.8647 16.2998C18.5552 16.751 19.0576 17.3252 19.3721 18.0225C19.6865 18.7197 19.8438 19.6323 19.8438 20.7603C19.8438 22.5103 19.4814 23.8535 18.7568 24.79C18.0322 25.7197 16.8667 26.1846 15.2603 26.1846Z" fill="#A21942"/>
</svg>
