<svg width="95" height="95" viewBox="0 0 95 95" fill="none" xmlns="http://www.w3.org/2000/svg">
<rect width="95" height="95" fill="white"/>
<path d="M72.6 63.0513L60.897 56.2963V42.7843C60.897 42.4993 60.745 42.2353 60.498 42.0933L48.398 35.1073C48.151 34.9642 47.847 34.9642 47.6 35.1073L35.499 42.0933C35.252 42.2363 35.1 42.4993 35.1 42.7843V56.2963L23.399 63.0513C23.152 63.1953 23 63.4573 23 63.7423V77.7172C23 78.0022 23.152 78.2653 23.399 78.4093L35.499 85.3933C35.623 85.4633 35.761 85.4993 35.899 85.4993C36.036 85.4993 36.174 85.4633 36.298 85.3933L47.999 78.6383L59.7 85.3933C59.823 85.4633 59.961 85.4993 60.098 85.4993C60.237 85.4993 60.374 85.4633 60.498 85.3933L72.6 78.4093C72.847 78.2653 72.999 78.0022 72.999 77.7172V63.7423C72.999 63.4573 72.848 63.1943 72.6 63.0513ZM47.201 76.3342L37.496 70.7313L47.202 65.1262V76.3342H47.201ZM58.502 56.7573L48.798 62.3613V51.1542L58.502 56.7573ZM47.201 62.3602L37.496 56.7573L47.201 51.1533V62.3602ZM49.597 63.7432L60.099 57.6793L70.605 63.7423L60.099 69.8073L49.597 63.7432ZM59.301 55.3743L49.596 49.7703L59.301 44.1663V55.3743ZM46.402 49.7713L36.697 55.3753V44.1682L46.402 49.7713ZM35.1 83.3192L24.596 77.2562V65.1253L35.1 71.1912V83.3192ZM36.697 83.3192V72.1132L46.402 77.7172L36.697 83.3192ZM71.403 77.2562L60.897 83.3192V71.1912L71.403 65.1253V77.2562Z" fill="#FD6925"/>
<path d="M20.5469 16V9H21.5469V16H20.5469ZM22.6172 16V9H23.3672L25.1172 13.3281V9H26.1172V16H25.4062L23.6172 11.3438V16H22.6172ZM27.1172 16V9H28.668C29.3997 9 29.9154 9.14974 30.2148 9.44922C30.5169 9.7487 30.668 10.2656 30.668 11V13.75C30.668 14.5182 30.5143 15.0859 30.207 15.4531C29.9023 15.8177 29.3867 16 28.6602 16H27.1172ZM28.1172 15.25H28.668C28.832 15.25 28.9727 15.2357 29.0898 15.207C29.207 15.1758 29.3021 15.1211 29.375 15.043C29.4479 14.9622 29.5052 14.8867 29.5469 14.8164C29.5885 14.7435 29.6172 14.6315 29.6328 14.4805C29.651 14.3294 29.6615 14.2057 29.6641 14.1094C29.6667 14.0104 29.668 13.8581 29.668 13.6523C29.668 13.5846 29.668 13.5339 29.668 13.5V11.25C29.668 11.1224 29.6667 11.0208 29.6641 10.9453C29.6641 10.8698 29.6602 10.7812 29.6523 10.6797C29.6471 10.5755 29.638 10.4935 29.625 10.4336C29.612 10.3737 29.5938 10.3073 29.5703 10.2344C29.5469 10.1589 29.5169 10.1003 29.4805 10.0586C29.4466 10.0169 29.4036 9.97396 29.3516 9.92969C29.3021 9.88281 29.2435 9.84896 29.1758 9.82812C29.1107 9.80469 29.0339 9.78646 28.9453 9.77344C28.8568 9.75781 28.7578 9.75 28.6484 9.75H28.1172V15.25ZM34.2969 15.9531C34.0651 16.0339 33.7969 16.0742 33.4922 16.0742C33.1875 16.0742 32.9193 16.0339 32.6875 15.9531C32.4557 15.8724 32.2643 15.7604 32.1133 15.6172C31.9648 15.4714 31.8438 15.2891 31.75 15.0703C31.6562 14.8516 31.5898 14.6159 31.5508 14.3633C31.5117 14.1081 31.4922 13.8203 31.4922 13.5V9H32.4922V13.5C32.4922 13.7161 32.4961 13.8971 32.5039 14.043C32.5143 14.1888 32.5391 14.3451 32.5781 14.5117C32.6172 14.6758 32.6706 14.8073 32.7383 14.9062C32.8086 15.0052 32.9062 15.0872 33.0312 15.1523C33.1589 15.2174 33.3125 15.25 33.4922 15.25C33.6719 15.25 33.8242 15.2174 33.9492 15.1523C34.0768 15.0872 34.1745 15.0052 34.2422 14.9062C34.3125 14.8073 34.3672 14.6758 34.4062 14.5117C34.4453 14.3451 34.4688 14.1888 34.4766 14.043C34.487 13.8971 34.4922 13.7161 34.4922 13.5V9H35.4922V13.5C35.4922 13.8203 35.4727 14.1081 35.4336 14.3633C35.3945 14.6159 35.3281 14.8516 35.2344 15.0703C35.1406 15.2891 35.0182 15.4714 34.8672 15.6172C34.7188 15.7604 34.5286 15.8724 34.2969 15.9531ZM38.2617 16.0703C37.6315 16.0703 37.1497 15.8854 36.8164 15.5156C36.4857 15.1458 36.3008 14.6406 36.2617 14L37.2617 13.75C37.3112 14.75 37.6445 15.25 38.2617 15.25C38.7617 15.25 39.0117 15 39.0117 14.5C39.0117 14.3516 38.9909 14.2148 38.9492 14.0898C38.9102 13.9622 38.849 13.8464 38.7656 13.7422C38.6823 13.6354 38.6068 13.5508 38.5391 13.4883C38.4714 13.4232 38.3789 13.3438 38.2617 13.25L37.0117 12.25C36.7826 12.0703 36.599 11.8424 36.4609 11.5664C36.3255 11.2878 36.2578 10.9714 36.2578 10.6172C36.2578 10.1016 36.418 9.69141 36.7383 9.38672C37.0586 9.08203 37.4831 8.92969 38.0117 8.92969C38.5794 8.92969 39.0299 9.06901 39.3633 9.34766C39.6992 9.6237 39.9062 10.0156 39.9844 10.5234C39.9922 10.5781 40.0013 10.6536 40.0117 10.75L39.0117 11C39.0091 10.9557 39.0026 10.8893 38.9922 10.8008C38.9479 10.4831 38.8477 10.2292 38.6914 10.0391C38.5378 9.84635 38.3112 9.75 38.0117 9.75C37.7721 9.75 37.5872 9.81771 37.457 9.95312C37.3268 10.0859 37.2617 10.2721 37.2617 10.5117C37.2617 10.9049 37.4284 11.2344 37.7617 11.5L39.0117 12.5C39.6784 13.0391 40.0117 13.6836 40.0117 14.4336C40.0117 14.9466 39.8529 15.3477 39.5352 15.6367C39.2201 15.9258 38.7956 16.0703 38.2617 16.0703ZM41.4883 16V9.89062H40.2383V9H43.7383V9.89062H42.4883V16H41.4883ZM45.2344 12H45.4844C45.901 12 46.2135 11.9128 46.4219 11.7383C46.6302 11.5612 46.7344 11.2734 46.7344 10.875C46.7344 10.4766 46.6302 10.1901 46.4219 10.0156C46.2135 9.83854 45.901 9.75 45.4844 9.75H45.2344V12ZM44.2344 16V9H45.4844C46.2292 9 46.7904 9.14453 47.168 9.43359C47.5456 9.72266 47.7344 10.2031 47.7344 10.875C47.7344 11.2917 47.6602 11.6406 47.5117 11.9219C47.3633 12.2031 47.1458 12.3958 46.8594 12.5L47.9844 16H46.9922L45.9844 12.75H45.2344V16H44.2344ZM49.4258 16V13.75L47.9258 9H48.9258L49.9258 12.5L50.9258 9H51.9258L50.4258 13.75V16H49.4258ZM52.2578 17L52.0078 16.5C52.1875 16.5 52.3151 16.4609 52.3906 16.3828C52.4688 16.3047 52.5078 16.1771 52.5078 16H52.0078V15H53.0078C53.0078 15.375 53.0039 15.6901 52.9961 15.9453C52.9909 16.0859 52.9831 16.2044 52.9727 16.3008C52.9622 16.3971 52.9414 16.4922 52.9102 16.5859C52.8789 16.6823 52.8372 16.7578 52.7852 16.8125C52.7331 16.8698 52.6628 16.9154 52.5742 16.9492C52.4883 16.9831 52.3828 17 52.2578 17ZM55.4766 16V9H56.4766V16H55.4766ZM57.5469 16V9H58.2969L60.0469 13.3281V9H61.0469V16H60.3359L58.5469 11.3438V16H57.5469ZM62.0469 16V9H62.7969L64.5469 13.3281V9H65.5469V16H64.8359L63.0469 11.3438V16H62.0469ZM68.3516 16.0703C68 16.0703 67.6979 16.0169 67.4453 15.9102C67.1953 15.8034 66.9961 15.6471 66.8477 15.4414C66.6992 15.2357 66.5911 14.9948 66.5234 14.7188C66.4557 14.4401 66.4219 14.1172 66.4219 13.75V11.2109C66.4219 10.8438 66.4557 10.5234 66.5234 10.25C66.5911 9.97656 66.6992 9.73958 66.8477 9.53906C66.9961 9.33594 67.1953 9.18359 67.4453 9.08203C67.6979 8.98047 68 8.92969 68.3516 8.92969C69.0339 8.92969 69.526 9.125 69.8281 9.51562C70.1302 9.90625 70.2812 10.4714 70.2812 11.2109V13.75C70.2812 14.112 70.2461 14.4323 70.1758 14.7109C70.1081 14.987 70 15.2292 69.8516 15.4375C69.7031 15.6432 69.5026 15.8008 69.25 15.9102C69 16.0169 68.7005 16.0703 68.3516 16.0703ZM67.6211 14.9336C67.7565 15.1445 68 15.25 68.3516 15.25C68.7031 15.25 68.9453 15.1445 69.0781 14.9336C69.2135 14.7227 69.2812 14.4115 69.2812 14V10.9609C69.2812 10.5547 69.2148 10.2513 69.082 10.0508C68.9492 9.85026 68.7057 9.75 68.3516 9.75C67.9974 9.75 67.7539 9.85026 67.6211 10.0508C67.4883 10.2513 67.4219 10.5547 67.4219 10.9609V14C67.4219 14.4115 67.4883 14.7227 67.6211 14.9336ZM72.2031 16L70.7031 9H71.7031L72.4414 12.75L72.6992 14.5L72.9648 12.75L73.7031 9H74.7031L73.2031 16H72.2031ZM76.1016 13.5H77.1016L76.6016 10.5L76.1016 13.5ZM74.6016 16L76.1016 9H77.1016L78.6016 16H77.6016L77.2266 14.25H75.9766L75.6016 16H74.6016ZM79.7148 16V9.89062H78.4648V9H81.9648V9.89062H80.7148V16H79.7148ZM82.5078 16V9H83.5078V16H82.5078ZM86.3828 16.0703C86.0312 16.0703 85.7292 16.0169 85.4766 15.9102C85.2266 15.8034 85.0273 15.6471 84.8789 15.4414C84.7305 15.2357 84.6224 14.9948 84.5547 14.7188C84.487 14.4401 84.4531 14.1172 84.4531 13.75V11.2109C84.4531 10.8438 84.487 10.5234 84.5547 10.25C84.6224 9.97656 84.7305 9.73958 84.8789 9.53906C85.0273 9.33594 85.2266 9.18359 85.4766 9.08203C85.7292 8.98047 86.0312 8.92969 86.3828 8.92969C87.0651 8.92969 87.5573 9.125 87.8594 9.51562C88.1615 9.90625 88.3125 10.4714 88.3125 11.2109V13.75C88.3125 14.112 88.2773 14.4323 88.207 14.7109C88.1393 14.987 88.0312 15.2292 87.8828 15.4375C87.7344 15.6432 87.5339 15.8008 87.2812 15.9102C87.0312 16.0169 86.7318 16.0703 86.3828 16.0703ZM85.6523 14.9336C85.7878 15.1445 86.0312 15.25 86.3828 15.25C86.7344 15.25 86.9766 15.1445 87.1094 14.9336C87.2448 14.7227 87.3125 14.4115 87.3125 14V10.9609C87.3125 10.5547 87.2461 10.2513 87.1133 10.0508C86.9805 9.85026 86.737 9.75 86.3828 9.75C86.0286 9.75 85.7852 9.85026 85.6523 10.0508C85.5195 10.2513 85.4531 10.5547 85.4531 10.9609V14C85.4531 14.4115 85.5195 14.7227 85.6523 14.9336ZM89.1875 16V9H89.9375L91.6875 13.3281V9H92.6875V16H91.9766L90.1875 11.3438V16H89.1875ZM21.5625 23.5H22.5625L22.0625 20.5L21.5625 23.5ZM20.0625 26L21.5625 19H22.5625L24.0625 26H23.0625L22.6875 24.25H21.4375L21.0625 26H20.0625ZM24.625 26V19H25.375L27.125 23.3281V19H28.125V26H27.4141L25.625 21.3438V26H24.625ZM29.125 26V19H30.6758C31.4076 19 31.9232 19.1497 32.2227 19.4492C32.5247 19.7487 32.6758 20.2656 32.6758 21V23.75C32.6758 24.5182 32.5221 25.0859 32.2148 25.4531C31.9102 25.8177 31.3945 26 30.668 26H29.125ZM30.125 25.25H30.6758C30.8398 25.25 30.9805 25.2357 31.0977 25.207C31.2148 25.1758 31.3099 25.1211 31.3828 25.043C31.4557 24.9622 31.513 24.8867 31.5547 24.8164C31.5964 24.7435 31.625 24.6315 31.6406 24.4805C31.6589 24.3294 31.6693 24.2057 31.6719 24.1094C31.6745 24.0104 31.6758 23.8581 31.6758 23.6523C31.6758 23.5846 31.6758 23.5339 31.6758 23.5V21.25C31.6758 21.1224 31.6745 21.0208 31.6719 20.9453C31.6719 20.8698 31.668 20.7812 31.6602 20.6797C31.6549 20.5755 31.6458 20.4935 31.6328 20.4336C31.6198 20.3737 31.6016 20.3073 31.5781 20.2344C31.5547 20.1589 31.5247 20.1003 31.4883 20.0586C31.4544 20.0169 31.4115 19.974 31.3594 19.9297C31.3099 19.8828 31.2513 19.849 31.1836 19.8281C31.1185 19.8047 31.0417 19.7865 30.9531 19.7734C30.8646 19.7578 30.7656 19.75 30.6562 19.75H30.125V25.25ZM35.2266 26V19H36.2266V26H35.2266ZM37.2969 26V19H38.0469L39.7969 23.3281V19H40.7969V26H40.0859L38.2969 21.3438V26H37.2969ZM41.7969 26V19H44.5469V19.75H42.7969V22H44.0469V22.75H42.7969V26H41.7969ZM46.0078 22H46.2578C46.6745 22 46.987 21.9128 47.1953 21.7383C47.4036 21.5612 47.5078 21.2734 47.5078 20.875C47.5078 20.4766 47.4036 20.1901 47.1953 20.0156C46.987 19.8385 46.6745 19.75 46.2578 19.75H46.0078V22ZM45.0078 26V19H46.2578C47.0026 19 47.5638 19.1445 47.9414 19.4336C48.319 19.7227 48.5078 20.2031 48.5078 20.875C48.5078 21.2917 48.4336 21.6406 48.2852 21.9219C48.1367 22.2031 47.9193 22.3958 47.6328 22.5L48.7578 26H47.7656L46.7578 22.75H46.0078V26H45.0078ZM50.3984 23.5H51.3984L50.8984 20.5L50.3984 23.5ZM48.8984 26L50.3984 19H51.3984L52.8984 26H51.8984L51.5234 24.25H50.2734L49.8984 26H48.8984ZM55.2852 26.0703C54.6549 26.0703 54.1732 25.8854 53.8398 25.5156C53.5091 25.1458 53.3242 24.6406 53.2852 24L54.2852 23.75C54.3346 24.75 54.668 25.25 55.2852 25.25C55.7852 25.25 56.0352 25 56.0352 24.5C56.0352 24.3516 56.0143 24.2148 55.9727 24.0898C55.9336 23.9622 55.8724 23.8464 55.7891 23.7422C55.7057 23.6354 55.6302 23.5508 55.5625 23.4883C55.4948 23.4232 55.4023 23.3438 55.2852 23.25L54.0352 22.25C53.806 22.0703 53.6224 21.8424 53.4844 21.5664C53.349 21.2878 53.2812 20.9714 53.2812 20.6172C53.2812 20.1016 53.4414 19.6914 53.7617 19.3867C54.082 19.082 54.5065 18.9297 55.0352 18.9297C55.6029 18.9297 56.0534 19.069 56.3867 19.3477C56.7227 19.6237 56.9297 20.0156 57.0078 20.5234C57.0156 20.5781 57.0247 20.6536 57.0352 20.75L56.0352 21C56.0326 20.9557 56.026 20.8893 56.0156 20.8008C55.9714 20.4831 55.8711 20.2292 55.7148 20.0391C55.5612 19.8464 55.3346 19.75 55.0352 19.75C54.7956 19.75 54.6107 19.8177 54.4805 19.9531C54.3503 20.0859 54.2852 20.2721 54.2852 20.5117C54.2852 20.9049 54.4518 21.2344 54.7852 21.5L56.0352 22.5C56.7018 23.0391 57.0352 23.6836 57.0352 24.4336C57.0352 24.9466 56.8763 25.3477 56.5586 25.6367C56.2435 25.9258 55.819 26.0703 55.2852 26.0703ZM58.5117 26V19.8906H57.2617V19H60.7617V19.8906H59.5117V26H58.5117ZM62.2578 22H62.5078C62.9245 22 63.237 21.9128 63.4453 21.7383C63.6536 21.5612 63.7578 21.2734 63.7578 20.875C63.7578 20.4766 63.6536 20.1901 63.4453 20.0156C63.237 19.8385 62.9245 19.75 62.5078 19.75H62.2578V22ZM61.2578 26V19H62.5078C63.2526 19 63.8138 19.1445 64.1914 19.4336C64.569 19.7227 64.7578 20.2031 64.7578 20.875C64.7578 21.2917 64.6836 21.6406 64.5352 21.9219C64.3867 22.2031 64.1693 22.3958 63.8828 22.5L65.0078 26H64.0156L63.0078 22.75H62.2578V26H61.2578ZM68.2891 25.9531C68.0573 26.0339 67.7891 26.0742 67.4844 26.0742C67.1797 26.0742 66.9115 26.0339 66.6797 25.9531C66.4479 25.8724 66.2565 25.7604 66.1055 25.6172C65.957 25.4714 65.8359 25.2891 65.7422 25.0703C65.6484 24.8516 65.582 24.6159 65.543 24.3633C65.5039 24.1081 65.4844 23.8203 65.4844 23.5V19H66.4844V23.5C66.4844 23.7161 66.4883 23.8971 66.4961 24.043C66.5065 24.1888 66.5312 24.3451 66.5703 24.5117C66.6094 24.6758 66.6628 24.8073 66.7305 24.9062C66.8008 25.0052 66.8984 25.0872 67.0234 25.1523C67.151 25.2174 67.3047 25.25 67.4844 25.25C67.6641 25.25 67.8164 25.2174 67.9414 25.1523C68.069 25.0872 68.1667 25.0052 68.2344 24.9062C68.3047 24.8073 68.3594 24.6758 68.3984 24.5117C68.4375 24.3451 68.4609 24.1888 68.4688 24.043C68.4792 23.8971 68.4844 23.7161 68.4844 23.5V19H69.4844V23.5C69.4844 23.8203 69.4648 24.1081 69.4258 24.3633C69.3867 24.6159 69.3203 24.8516 69.2266 25.0703C69.1328 25.2891 69.0104 25.4714 68.8594 25.6172C68.7109 25.7604 68.5208 25.8724 68.2891 25.9531ZM72.2266 26.0703C71.9323 26.0703 71.6732 26.0286 71.4492 25.9453C71.2253 25.862 71.0417 25.7474 70.8984 25.6016C70.7552 25.4531 70.638 25.2695 70.5469 25.0508C70.4583 24.8294 70.3958 24.5938 70.3594 24.3438C70.3229 24.0938 70.3047 23.8112 70.3047 23.4961V21.5C70.3047 21.1849 70.3229 20.9023 70.3594 20.6523C70.3958 20.4023 70.4583 20.168 70.5469 19.9492C70.638 19.7279 70.7552 19.5443 70.8984 19.3984C71.0417 19.2526 71.2253 19.138 71.4492 19.0547C71.6732 18.9714 71.9323 18.9297 72.2266 18.9297C72.5521 18.9297 72.8333 18.9779 73.0703 19.0742C73.3073 19.1706 73.4961 19.3125 73.6367 19.5C73.7799 19.6875 73.8867 19.9049 73.957 20.1523C74.0299 20.3997 74.0729 20.6888 74.0859 21.0195C74.0885 21.069 74.0898 21.1458 74.0898 21.25H73.0898V21.0273C73.0872 20.8893 73.082 20.7721 73.0742 20.6758C73.0664 20.5768 73.0521 20.4753 73.0312 20.3711C73.0104 20.2669 72.9792 20.181 72.9375 20.1133C72.8984 20.043 72.8477 19.9792 72.7852 19.9219C72.7253 19.862 72.6484 19.819 72.5547 19.793C72.4609 19.7643 72.3516 19.75 72.2266 19.75C72.0651 19.75 71.9258 19.776 71.8086 19.8281C71.694 19.8802 71.6042 19.9479 71.5391 20.0312C71.474 20.112 71.4232 20.2214 71.3867 20.3594C71.3529 20.4974 71.3307 20.6328 71.3203 20.7656C71.3099 20.8958 71.3047 21.0573 71.3047 21.25V23.75C71.3047 23.9167 71.3112 24.0677 71.3242 24.2031C71.3398 24.3385 71.3685 24.474 71.4102 24.6094C71.4518 24.7422 71.5052 24.8542 71.5703 24.9453C71.638 25.0365 71.7266 25.1107 71.8359 25.168C71.9479 25.2227 72.0781 25.25 72.2266 25.25C72.375 25.25 72.5026 25.2214 72.6094 25.1641C72.7161 25.1068 72.7995 25.0339 72.8594 24.9453C72.9219 24.8568 72.9701 24.7435 73.0039 24.6055C73.0404 24.4674 73.0638 24.3333 73.0742 24.2031C73.0846 24.0729 73.0898 23.9219 73.0898 23.75V23.5H74.0898V23.75C74.0898 24.112 74.0573 24.4297 73.9922 24.7031C73.9297 24.9766 73.8268 25.2188 73.6836 25.4297C73.543 25.638 73.3503 25.7969 73.1055 25.9062C72.8633 26.0156 72.5703 26.0703 72.2266 26.0703ZM75.5039 26V19.8906H74.2539V19H77.7539V19.8906H76.5039V26H75.5039ZM81 25.9531C80.7682 26.0339 80.5 26.0742 80.1953 26.0742C79.8906 26.0742 79.6224 26.0339 79.3906 25.9531C79.1589 25.8724 78.9674 25.7604 78.8164 25.6172C78.668 25.4714 78.5469 25.2891 78.4531 25.0703C78.3594 24.8516 78.293 24.6159 78.2539 24.3633C78.2148 24.1081 78.1953 23.8203 78.1953 23.5V19H79.1953V23.5C79.1953 23.7161 79.1992 23.8971 79.207 24.043C79.2174 24.1888 79.2422 24.3451 79.2812 24.5117C79.3203 24.6758 79.3737 24.8073 79.4414 24.9062C79.5117 25.0052 79.6094 25.0872 79.7344 25.1523C79.862 25.2174 80.0156 25.25 80.1953 25.25C80.375 25.25 80.5273 25.2174 80.6523 25.1523C80.7799 25.0872 80.8776 25.0052 80.9453 24.9062C81.0156 24.8073 81.0703 24.6758 81.1094 24.5117C81.1484 24.3451 81.1719 24.1888 81.1797 24.043C81.1901 23.8971 81.1953 23.7161 81.1953 23.5V19H82.1953V23.5C82.1953 23.8203 82.1758 24.1081 82.1367 24.3633C82.0977 24.6159 82.0312 24.8516 81.9375 25.0703C81.8438 25.2891 81.7214 25.4714 81.5703 25.6172C81.4219 25.7604 81.2318 25.8724 81 25.9531ZM84.1406 22H84.3906C84.8073 22 85.1198 21.9128 85.3281 21.7383C85.5365 21.5612 85.6406 21.2734 85.6406 20.875C85.6406 20.4766 85.5365 20.1901 85.3281 20.0156C85.1198 19.8385 84.8073 19.75 84.3906 19.75H84.1406V22ZM83.1406 26V19H84.3906C85.1354 19 85.6966 19.1445 86.0742 19.4336C86.4518 19.7227 86.6406 20.2031 86.6406 20.875C86.6406 21.2917 86.5664 21.6406 86.418 21.9219C86.2695 22.2031 86.0521 22.3958 85.7656 22.5L86.8906 26H85.8984L84.8906 22.75H84.1406V26H83.1406ZM87.4688 26V19H90.2188V19.75H88.4688V22H89.7188V22.75H88.4688V25.25H90.2188V26H87.4688Z" fill="#FD6925"/>
<path d="M10.5371 16.8125C11.3711 16.8125 12.0273 16.375 12.5059 15.5V12.875C12.5059 12.4375 12.4751 12.0376 12.4136 11.6753C12.3521 11.313 12.2495 10.9678 12.106 10.6396C11.9692 10.3115 11.7676 10.0552 11.501 9.87061C11.2344 9.68604 10.9131 9.59375 10.5371 9.59375C10.1611 9.59375 9.83984 9.68604 9.57324 9.87061C9.30664 10.0552 9.10156 10.3115 8.95801 10.6396C8.82129 10.9678 8.72217 11.3164 8.66064 11.6855C8.59912 12.0479 8.56836 12.4443 8.56836 12.875C8.56836 13.1348 8.56836 13.333 8.56836 13.4697C8.56836 13.5996 8.57178 13.7876 8.57861 14.0337C8.59229 14.2798 8.60596 14.4712 8.61963 14.6079C8.64014 14.7378 8.66406 14.9053 8.69141 15.1104C8.72559 15.3154 8.7666 15.4761 8.81445 15.5923C8.8623 15.7017 8.92041 15.835 8.98877 15.9922C9.06396 16.1426 9.14941 16.2588 9.24512 16.3408C9.34082 16.4229 9.4502 16.5049 9.57324 16.5869C9.69629 16.6689 9.83984 16.7271 10.0039 16.7612C10.168 16.7954 10.3457 16.8125 10.5371 16.8125ZM10.5371 26.1846C9.06055 26.1846 7.92578 25.7676 7.13281 24.9336C6.33984 24.0928 5.94336 22.917 5.94336 21.4062H8.56836C8.56836 22.2812 8.7085 22.9375 8.98877 23.375C9.27588 23.8125 9.79199 24.0312 10.5371 24.0312C11.8496 24.0312 12.5059 22.7188 12.5059 20.0938V17.4688C11.9863 18.3438 11.1113 18.7812 9.88086 18.7812C9.14258 18.7812 8.51025 18.6548 7.98389 18.4019C7.46436 18.1421 7.05762 17.7695 6.76367 17.2842C6.47656 16.792 6.26807 16.2417 6.13818 15.6333C6.0083 15.0249 5.94336 14.3242 5.94336 13.5312C5.94336 12.6699 6.02881 11.8838 6.19971 11.1729C6.37061 10.4551 6.63379 9.8125 6.98926 9.24512C7.34473 8.67773 7.82324 8.23682 8.4248 7.92236C9.02637 7.60107 9.73047 7.44043 10.5371 7.44043C11.166 7.44043 11.7368 7.54639 12.2495 7.7583C12.7622 7.97021 13.1929 8.26074 13.5415 8.62988C13.897 8.99902 14.1943 9.44336 14.4336 9.96289C14.6797 10.4756 14.8574 11.0327 14.9668 11.6343C15.0762 12.229 15.1309 12.8613 15.1309 13.5312V19.4375C15.1309 20.1895 15.0864 20.8867 14.9976 21.5293C14.9087 22.165 14.7549 22.7769 14.5361 23.3647C14.3174 23.9458 14.0371 24.4414 13.6953 24.8516C13.3535 25.2617 12.9126 25.5864 12.3726 25.8257C11.8394 26.0649 11.2275 26.1846 10.5371 26.1846Z" fill="#FD6925"/>
</svg>
