<svg width="95" height="95" viewBox="0 0 95 95" fill="none" xmlns="http://www.w3.org/2000/svg">
<rect width="95" height="95" fill="white"/>
<path d="M74.617 54.514C70.601 51.342 65.788 51 63.904 51C62.911 51 61.992 51.09 61.319 51.25L61.053 51.311C58.511 51.913 54.255 52.9159 49.3 59.0649L49.155 59.2469C49.073 59.3639 49.031 59.489 49.031 59.619C49.031 59.731 49.059 59.8389 49.117 59.9449L49.23 60.13C50.047 61.497 50.728 62.685 51.268 63.693C51.46 64.068 51.978 64.19 52.327 63.842C52.362 63.796 52.397 63.748 52.42 63.712C56.7 57.793 60.054 57.004 62.274 56.481L62.547 56.417C62.854 56.345 63.349 56.302 63.907 56.302C64.939 56.302 68.525 56.474 71.323 58.683C73.813 60.648 75.075 63.787 75.075 68.012C75.075 75.091 71.649 77.853 68.775 78.923C67.677 79.333 66.497 79.541 65.261 79.541C62.302 79.541 60.024 78.355 59.993 78.34L59.788 78.241C57.316 77.167 53.624 74.929 50.135 67.922C42.982 53.554 36.973 52.193 32.994 51.292L32.784 51.245C32.48 51.175 31.62 51.015 30.22 51.015C27.916 51.015 23.485 51.468 19.686 54.499C17.092 56.567 14 60.588 14 67.981C14 72.488 14.928 75.463 17.306 78.593C17.754 79.204 21.9 84.557 29.86 84.557C31.039 84.557 32.261 84.437 33.494 84.202C34.947 83.923 37.19 83.205 39.694 81.369L41.787 83.256C42.021 83.47 42.426 83.447 42.636 83.217C42.739 83.108 42.792 82.963 42.787 82.819L44.405 72.848L44.407 72.7319C44.404 72.5619 44.33 72.4 44.212 72.298C44.107 72.197 43.969 72.1429 43.793 72.1429H43.788L34.081 74.827L33.896 74.8569C33.774 74.8819 33.666 74.946 33.587 75.036C33.478 75.158 33.421 75.312 33.43 75.475C33.439 75.636 33.51 75.786 33.628 75.889L35.64 77.708C34.582 78.356 33.526 78.786 32.497 78.984C31.622 79.151 30.755 79.236 29.922 79.236C24.422 79.236 21.715 75.627 21.605 75.473L21.55 75.3979C19.876 73.2009 19.312 71.33 19.312 67.981C19.312 63.744 20.552 60.603 22.999 58.647C25.721 56.477 29.224 56.307 30.234 56.307C30.785 56.307 31.287 56.348 31.609 56.422L31.824 56.4709C35 57.1899 39.348 58.174 45.379 70.288C48.565 76.682 52.558 80.865 57.578 83.069C58.162 83.368 61.275 84.8519 65.266 84.8519C67.13 84.8519 68.934 84.533 70.631 83.901C73.564 82.806 80.385 79.066 80.385 68.01C80.386 60.621 77.249 56.592 74.617 54.514Z" fill="#BF8B2E"/>
<path d="M28.5 12H28.75C29.1667 12 29.4792 11.9128 29.6875 11.7383C29.8958 11.5612 30 11.2734 30 10.875C30 10.4766 29.8958 10.1901 29.6875 10.0156C29.4792 9.83854 29.1667 9.75 28.75 9.75H28.5V12ZM27.5 16V9H28.75C29.4948 9 30.056 9.14453 30.4336 9.43359C30.8112 9.72266 31 10.2031 31 10.875C31 11.2917 30.9258 11.6406 30.7773 11.9219C30.6289 12.2031 30.4115 12.3958 30.125 12.5L31.25 16H30.2578L29.25 12.75H28.5V16H27.5ZM31.8281 16V9H34.5781V9.75H32.8281V12H34.0781V12.75H32.8281V15.25H34.5781V16H31.8281ZM37.0195 16.0703C36.3893 16.0703 35.9076 15.8854 35.5742 15.5156C35.2435 15.1458 35.0586 14.6406 35.0195 14L36.0195 13.75C36.069 14.75 36.4023 15.25 37.0195 15.25C37.5195 15.25 37.7695 15 37.7695 14.5C37.7695 14.3516 37.7487 14.2148 37.707 14.0898C37.668 13.9622 37.6068 13.8464 37.5234 13.7422C37.4401 13.6354 37.3646 13.5508 37.2969 13.4883C37.2292 13.4232 37.1367 13.3438 37.0195 13.25L35.7695 12.25C35.5404 12.0703 35.3568 11.8424 35.2188 11.5664C35.0833 11.2878 35.0156 10.9714 35.0156 10.6172C35.0156 10.1016 35.1758 9.69141 35.4961 9.38672C35.8164 9.08203 36.2409 8.92969 36.7695 8.92969C37.3372 8.92969 37.7878 9.06901 38.1211 9.34766C38.457 9.6237 38.6641 10.0156 38.7422 10.5234C38.75 10.5781 38.7591 10.6536 38.7695 10.75L37.7695 11C37.7669 10.9557 37.7604 10.8893 37.75 10.8008C37.7057 10.4831 37.6055 10.2292 37.4492 10.0391C37.2956 9.84635 37.069 9.75 36.7695 9.75C36.5299 9.75 36.3451 9.81771 36.2148 9.95312C36.0846 10.0859 36.0195 10.2721 36.0195 10.5117C36.0195 10.9049 36.1862 11.2344 36.5195 11.5L37.7695 12.5C38.4362 13.0391 38.7695 13.6836 38.7695 14.4336C38.7695 14.9466 38.6107 15.3477 38.293 15.6367C37.9779 15.9258 37.5534 16.0703 37.0195 16.0703ZM40.5 12H40.75C40.9766 12 41.1615 11.987 41.3047 11.9609C41.4505 11.9349 41.5781 11.8867 41.6875 11.8164C41.7995 11.7435 41.8789 11.6406 41.9258 11.5078C41.9753 11.375 42 11.2057 42 11C42 10.75 41.9818 10.5482 41.9453 10.3945C41.9089 10.2383 41.8411 10.1107 41.7422 10.0117C41.6458 9.91276 41.5195 9.84505 41.3633 9.80859C41.2096 9.76953 41.0052 9.75 40.75 9.75H40.5V12ZM39.5 16V9H41.25C42.4167 9 43 9.66667 43 11C43 11.5703 42.849 12.0052 42.5469 12.3047C42.2474 12.6016 41.8151 12.75 41.25 12.75H40.5V16H39.5ZM45.375 16.0703C45.0234 16.0703 44.7214 16.0169 44.4688 15.9102C44.2188 15.8034 44.0195 15.6471 43.8711 15.4414C43.7227 15.2357 43.6146 14.9948 43.5469 14.7188C43.4792 14.4401 43.4453 14.1172 43.4453 13.75V11.2109C43.4453 10.8438 43.4792 10.5234 43.5469 10.25C43.6146 9.97656 43.7227 9.73958 43.8711 9.53906C44.0195 9.33594 44.2188 9.18359 44.4688 9.08203C44.7214 8.98047 45.0234 8.92969 45.375 8.92969C46.0573 8.92969 46.5495 9.125 46.8516 9.51562C47.1536 9.90625 47.3047 10.4714 47.3047 11.2109V13.75C47.3047 14.112 47.2695 14.4323 47.1992 14.7109C47.1315 14.987 47.0234 15.2292 46.875 15.4375C46.7266 15.6432 46.526 15.8008 46.2734 15.9102C46.0234 16.0169 45.724 16.0703 45.375 16.0703ZM44.6445 14.9336C44.7799 15.1445 45.0234 15.25 45.375 15.25C45.7266 15.25 45.9688 15.1445 46.1016 14.9336C46.237 14.7227 46.3047 14.4115 46.3047 14V10.9609C46.3047 10.5547 46.2383 10.2513 46.1055 10.0508C45.9727 9.85026 45.7292 9.75 45.375 9.75C45.0208 9.75 44.7773 9.85026 44.6445 10.0508C44.5117 10.2513 44.4453 10.5547 44.4453 10.9609V14C44.4453 14.4115 44.5117 14.7227 44.6445 14.9336ZM48.1797 16V9H48.9297L50.6797 13.3281V9H51.6797V16H50.9688L49.1797 11.3438V16H48.1797ZM54.5039 16.0703C53.8737 16.0703 53.3919 15.8854 53.0586 15.5156C52.7279 15.1458 52.543 14.6406 52.5039 14L53.5039 13.75C53.5534 14.75 53.8867 15.25 54.5039 15.25C55.0039 15.25 55.2539 15 55.2539 14.5C55.2539 14.3516 55.2331 14.2148 55.1914 14.0898C55.1523 13.9622 55.0911 13.8464 55.0078 13.7422C54.9245 13.6354 54.849 13.5508 54.7812 13.4883C54.7135 13.4232 54.6211 13.3438 54.5039 13.25L53.2539 12.25C53.0247 12.0703 52.8411 11.8424 52.7031 11.5664C52.5677 11.2878 52.5 10.9714 52.5 10.6172C52.5 10.1016 52.6602 9.69141 52.9805 9.38672C53.3008 9.08203 53.7253 8.92969 54.2539 8.92969C54.8216 8.92969 55.2721 9.06901 55.6055 9.34766C55.9414 9.6237 56.1484 10.0156 56.2266 10.5234C56.2344 10.5781 56.2435 10.6536 56.2539 10.75L55.2539 11C55.2513 10.9557 55.2448 10.8893 55.2344 10.8008C55.1901 10.4831 55.0898 10.2292 54.9336 10.0391C54.7799 9.84635 54.5534 9.75 54.2539 9.75C54.0143 9.75 53.8294 9.81771 53.6992 9.95312C53.569 10.0859 53.5039 10.2721 53.5039 10.5117C53.5039 10.9049 53.6706 11.2344 54.0039 11.5L55.2539 12.5C55.9206 13.0391 56.2539 13.6836 56.2539 14.4336C56.2539 14.9466 56.0951 15.3477 55.7773 15.6367C55.4622 15.9258 55.0378 16.0703 54.5039 16.0703ZM57.0312 16V9H58.0312V16H57.0312ZM60.1016 12H60.6016C61.4349 12 61.8516 11.5833 61.8516 10.75C61.8516 10.612 61.8346 10.4909 61.8008 10.3867C61.7669 10.2799 61.7266 10.1914 61.6797 10.1211C61.6328 10.0508 61.5612 9.99219 61.4648 9.94531C61.3711 9.89583 61.2852 9.85807 61.207 9.83203C61.1289 9.80599 61.0169 9.78776 60.8711 9.77734C60.7279 9.76432 60.6081 9.75651 60.5117 9.75391C60.4154 9.7513 60.2786 9.75 60.1016 9.75V12ZM60.1016 15.25H60.6016C61.0339 15.25 61.3503 15.151 61.5508 14.9531C61.7513 14.7526 61.8516 14.4349 61.8516 14C61.8516 13.5651 61.7513 13.2487 61.5508 13.0508C61.3503 12.8503 61.0339 12.75 60.6016 12.75H60.1016V15.25ZM59.1016 16V9H60.6016C60.9245 9 61.2135 9.03385 61.4688 9.10156C61.724 9.16927 61.9466 9.27214 62.1367 9.41016C62.3294 9.54818 62.4766 9.73047 62.5781 9.95703C62.6823 10.1836 62.7344 10.4479 62.7344 10.75C62.7344 11.1875 62.6419 11.5208 62.457 11.75C62.2721 11.9766 61.987 12.1432 61.6016 12.25C62.0182 12.388 62.3307 12.5911 62.5391 12.8594C62.7474 13.125 62.8516 13.5052 62.8516 14C62.8516 14.6172 62.6719 15.1055 62.3125 15.4648C61.9557 15.8216 61.4688 16 60.8516 16H59.1016ZM63.5781 16V9H64.5781V15.25H66.3281V16H63.5781ZM66.7969 16V9H69.5469V9.75H67.7969V12H69.0469V12.75H67.7969V15.25H69.5469V16H66.7969ZM29.2969 26.0703C29.0026 26.0703 28.7435 26.0286 28.5195 25.9453C28.2956 25.862 28.112 25.7474 27.9688 25.6016C27.8255 25.4531 27.7083 25.2695 27.6172 25.0508C27.5286 24.8294 27.4661 24.5938 27.4297 24.3438C27.3932 24.0938 27.375 23.8112 27.375 23.4961V21.5C27.375 21.1849 27.3932 20.9023 27.4297 20.6523C27.4661 20.4023 27.5286 20.168 27.6172 19.9492C27.7083 19.7279 27.8255 19.5443 27.9688 19.3984C28.112 19.2526 28.2956 19.138 28.5195 19.0547C28.7435 18.9714 29.0026 18.9297 29.2969 18.9297C29.6224 18.9297 29.9036 18.9779 30.1406 19.0742C30.3776 19.1706 30.5664 19.3125 30.707 19.5C30.8503 19.6875 30.957 19.9049 31.0273 20.1523C31.1003 20.3997 31.1432 20.6888 31.1562 21.0195C31.1589 21.069 31.1602 21.1458 31.1602 21.25H30.1602V21.0273C30.1576 20.8893 30.1523 20.7721 30.1445 20.6758C30.1367 20.5768 30.1224 20.4753 30.1016 20.3711C30.0807 20.2669 30.0495 20.181 30.0078 20.1133C29.9688 20.043 29.918 19.9792 29.8555 19.9219C29.7956 19.862 29.7188 19.819 29.625 19.793C29.5312 19.7643 29.4219 19.75 29.2969 19.75C29.1354 19.75 28.9961 19.776 28.8789 19.8281C28.7643 19.8802 28.6745 19.9479 28.6094 20.0312C28.5443 20.112 28.4935 20.2214 28.457 20.3594C28.4232 20.4974 28.401 20.6328 28.3906 20.7656C28.3802 20.8958 28.375 21.0573 28.375 21.25V23.75C28.375 23.9167 28.3815 24.0677 28.3945 24.2031C28.4102 24.3385 28.4388 24.474 28.4805 24.6094C28.5221 24.7422 28.5755 24.8542 28.6406 24.9453C28.7083 25.0365 28.7969 25.1107 28.9062 25.168C29.0182 25.2227 29.1484 25.25 29.2969 25.25C29.4453 25.25 29.5729 25.2214 29.6797 25.1641C29.7865 25.1068 29.8698 25.0339 29.9297 24.9453C29.9922 24.8568 30.0404 24.7435 30.0742 24.6055C30.1107 24.4674 30.1341 24.3333 30.1445 24.2031C30.1549 24.0729 30.1602 23.9219 30.1602 23.75V23.5H31.1602V23.75C31.1602 24.112 31.1276 24.4297 31.0625 24.7031C31 24.9766 30.8971 25.2188 30.7539 25.4297C30.6133 25.638 30.4206 25.7969 30.1758 25.9062C29.9336 26.0156 29.6406 26.0703 29.2969 26.0703ZM33.6328 26.0703C33.2812 26.0703 32.9792 26.0169 32.7266 25.9102C32.4766 25.8034 32.2773 25.6471 32.1289 25.4414C31.9805 25.2357 31.8724 24.9948 31.8047 24.7188C31.737 24.4401 31.7031 24.1172 31.7031 23.75V21.2109C31.7031 20.8438 31.737 20.5234 31.8047 20.25C31.8724 19.9766 31.9805 19.7396 32.1289 19.5391C32.2773 19.3359 32.4766 19.1836 32.7266 19.082C32.9792 18.9805 33.2812 18.9297 33.6328 18.9297C34.3151 18.9297 34.8073 19.125 35.1094 19.5156C35.4115 19.9062 35.5625 20.4714 35.5625 21.2109V23.75C35.5625 24.112 35.5273 24.4323 35.457 24.7109C35.3893 24.987 35.2812 25.2292 35.1328 25.4375C34.9844 25.6432 34.7839 25.8008 34.5312 25.9102C34.2812 26.0169 33.9818 26.0703 33.6328 26.0703ZM32.9023 24.9336C33.0378 25.1445 33.2812 25.25 33.6328 25.25C33.9844 25.25 34.2266 25.1445 34.3594 24.9336C34.4948 24.7227 34.5625 24.4115 34.5625 24V20.9609C34.5625 20.5547 34.4961 20.2513 34.3633 20.0508C34.2305 19.8503 33.987 19.75 33.6328 19.75C33.2786 19.75 33.0352 19.8503 32.9023 20.0508C32.7695 20.2513 32.7031 20.5547 32.7031 20.9609V24C32.7031 24.4115 32.7695 24.7227 32.9023 24.9336ZM36.4375 26V19H37.1875L38.9375 23.3281V19H39.9375V26H39.2266L37.4375 21.3438V26H36.4375ZM42.7617 26.0703C42.1315 26.0703 41.6497 25.8854 41.3164 25.5156C40.9857 25.1458 40.8008 24.6406 40.7617 24L41.7617 23.75C41.8112 24.75 42.1445 25.25 42.7617 25.25C43.2617 25.25 43.5117 25 43.5117 24.5C43.5117 24.3516 43.4909 24.2148 43.4492 24.0898C43.4102 23.9622 43.349 23.8464 43.2656 23.7422C43.1823 23.6354 43.1068 23.5508 43.0391 23.4883C42.9714 23.4232 42.8789 23.3438 42.7617 23.25L41.5117 22.25C41.2826 22.0703 41.099 21.8424 40.9609 21.5664C40.8255 21.2878 40.7578 20.9714 40.7578 20.6172C40.7578 20.1016 40.918 19.6914 41.2383 19.3867C41.5586 19.082 41.9831 18.9297 42.5117 18.9297C43.0794 18.9297 43.5299 19.069 43.8633 19.3477C44.1992 19.6237 44.4062 20.0156 44.4844 20.5234C44.4922 20.5781 44.5013 20.6536 44.5117 20.75L43.5117 21C43.5091 20.9557 43.5026 20.8893 43.4922 20.8008C43.4479 20.4831 43.3477 20.2292 43.1914 20.0391C43.0378 19.8464 42.8112 19.75 42.5117 19.75C42.2721 19.75 42.0872 19.8177 41.957 19.9531C41.8268 20.0859 41.7617 20.2721 41.7617 20.5117C41.7617 20.9049 41.9284 21.2344 42.2617 21.5L43.5117 22.5C44.1784 23.0391 44.5117 23.6836 44.5117 24.4336C44.5117 24.9466 44.3529 25.3477 44.0352 25.6367C43.7201 25.9258 43.2956 26.0703 42.7617 26.0703ZM47.9922 25.9531C47.7604 26.0339 47.4922 26.0742 47.1875 26.0742C46.8828 26.0742 46.6146 26.0339 46.3828 25.9531C46.151 25.8724 45.9596 25.7604 45.8086 25.6172C45.6602 25.4714 45.5391 25.2891 45.4453 25.0703C45.3516 24.8516 45.2852 24.6159 45.2461 24.3633C45.207 24.1081 45.1875 23.8203 45.1875 23.5V19H46.1875V23.5C46.1875 23.7161 46.1914 23.8971 46.1992 24.043C46.2096 24.1888 46.2344 24.3451 46.2734 24.5117C46.3125 24.6758 46.3659 24.8073 46.4336 24.9062C46.5039 25.0052 46.6016 25.0872 46.7266 25.1523C46.8542 25.2174 47.0078 25.25 47.1875 25.25C47.3672 25.25 47.5195 25.2174 47.6445 25.1523C47.7721 25.0872 47.8698 25.0052 47.9375 24.9062C48.0078 24.8073 48.0625 24.6758 48.1016 24.5117C48.1406 24.3451 48.1641 24.1888 48.1719 24.043C48.1823 23.8971 48.1875 23.7161 48.1875 23.5V19H49.1875V23.5C49.1875 23.8203 49.168 24.1081 49.1289 24.3633C49.0898 24.6159 49.0234 24.8516 48.9297 25.0703C48.8359 25.2891 48.7135 25.4714 48.5625 25.6172C48.4141 25.7604 48.224 25.8724 47.9922 25.9531ZM50.1328 26V19H51.5156L52.5078 24.3594L53.5 19H54.8828V26H53.8828V20.4766L52.8828 26H52.1328L51.1328 20.4766V26H50.1328ZM56.8828 22H57.1328C57.3594 22 57.5443 21.987 57.6875 21.9609C57.8333 21.9349 57.9609 21.8867 58.0703 21.8164C58.1823 21.7435 58.2617 21.6406 58.3086 21.5078C58.3581 21.375 58.3828 21.2057 58.3828 21C58.3828 20.75 58.3646 20.5482 58.3281 20.3945C58.2917 20.2383 58.224 20.1107 58.125 20.0117C58.0286 19.9128 57.9023 19.8451 57.7461 19.8086C57.5924 19.7695 57.388 19.75 57.1328 19.75H56.8828V22ZM55.8828 26V19H57.6328C58.7995 19 59.3828 19.6667 59.3828 21C59.3828 21.5703 59.2318 22.0052 58.9297 22.3047C58.6302 22.6016 58.1979 22.75 57.6328 22.75H56.8828V26H55.8828ZM60.6992 26V19.8906H59.4492V19H62.9492V19.8906H61.6992V26H60.6992ZM63.4922 26V19H64.4922V26H63.4922ZM67.3672 26.0703C67.0156 26.0703 66.7135 26.0169 66.4609 25.9102C66.2109 25.8034 66.0117 25.6471 65.8633 25.4414C65.7148 25.2357 65.6068 24.9948 65.5391 24.7188C65.4714 24.4401 65.4375 24.1172 65.4375 23.75V21.2109C65.4375 20.8438 65.4714 20.5234 65.5391 20.25C65.6068 19.9766 65.7148 19.7396 65.8633 19.5391C66.0117 19.3359 66.2109 19.1836 66.4609 19.082C66.7135 18.9805 67.0156 18.9297 67.3672 18.9297C68.0495 18.9297 68.5417 19.125 68.8438 19.5156C69.1458 19.9062 69.2969 20.4714 69.2969 21.2109V23.75C69.2969 24.112 69.2617 24.4323 69.1914 24.7109C69.1237 24.987 69.0156 25.2292 68.8672 25.4375C68.7188 25.6432 68.5182 25.8008 68.2656 25.9102C68.0156 26.0169 67.7161 26.0703 67.3672 26.0703ZM66.6367 24.9336C66.7721 25.1445 67.0156 25.25 67.3672 25.25C67.7188 25.25 67.9609 25.1445 68.0938 24.9336C68.2292 24.7227 68.2969 24.4115 68.2969 24V20.9609C68.2969 20.5547 68.2305 20.2513 68.0977 20.0508C67.9648 19.8503 67.7214 19.75 67.3672 19.75C67.013 19.75 66.7695 19.8503 66.6367 20.0508C66.5039 20.2513 66.4375 20.5547 66.4375 20.9609V24C66.4375 24.4115 66.5039 24.7227 66.6367 24.9336ZM70.1719 26V19H70.9219L72.6719 23.3281V19H73.6719V26H72.9609L71.1719 21.3438V26H70.1719ZM28.5625 33.5H29.5625L29.0625 30.5L28.5625 33.5ZM27.0625 36L28.5625 29H29.5625L31.0625 36H30.0625L29.6875 34.25H28.4375L28.0625 36H27.0625ZM31.625 36V29H32.375L34.125 33.3281V29H35.125V36H34.4141L32.625 31.3438V36H31.625ZM36.125 36V29H37.6758C38.4076 29 38.9232 29.1497 39.2227 29.4492C39.5247 29.7487 39.6758 30.2656 39.6758 31V33.75C39.6758 34.5182 39.5221 35.0859 39.2148 35.4531C38.9102 35.8177 38.3945 36 37.668 36H36.125ZM37.125 35.25H37.6758C37.8398 35.25 37.9805 35.2357 38.0977 35.207C38.2148 35.1758 38.3099 35.1211 38.3828 35.043C38.4557 34.9622 38.513 34.8867 38.5547 34.8164C38.5964 34.7435 38.625 34.6315 38.6406 34.4805C38.6589 34.3294 38.6693 34.2057 38.6719 34.1094C38.6745 34.0104 38.6758 33.8581 38.6758 33.6523C38.6758 33.5846 38.6758 33.5339 38.6758 33.5V31.25C38.6758 31.1224 38.6745 31.0208 38.6719 30.9453C38.6719 30.8698 38.668 30.7812 38.6602 30.6797C38.6549 30.5755 38.6458 30.4935 38.6328 30.4336C38.6198 30.3737 38.6016 30.3073 38.5781 30.2344C38.5547 30.1589 38.5247 30.1003 38.4883 30.0586C38.4544 30.0169 38.4115 29.974 38.3594 29.9297C38.3099 29.8828 38.2513 29.849 38.1836 29.8281C38.1185 29.8047 38.0417 29.7865 37.9531 29.7734C37.8646 29.7578 37.7656 29.75 37.6562 29.75H37.125V35.25ZM43.1797 32H43.4297C43.6562 32 43.8411 31.987 43.9844 31.9609C44.1302 31.9349 44.2578 31.8867 44.3672 31.8164C44.4792 31.7435 44.5586 31.6406 44.6055 31.5078C44.6549 31.375 44.6797 31.2057 44.6797 31C44.6797 30.75 44.6615 30.5482 44.625 30.3945C44.5885 30.2383 44.5208 30.1107 44.4219 30.0117C44.3255 29.9128 44.1992 29.8451 44.043 29.8086C43.8893 29.7695 43.6849 29.75 43.4297 29.75H43.1797V32ZM42.1797 36V29H43.9297C45.0964 29 45.6797 29.6667 45.6797 31C45.6797 31.5703 45.5286 32.0052 45.2266 32.3047C44.9271 32.6016 44.4948 32.75 43.9297 32.75H43.1797V36H42.1797ZM47.25 32H47.5C47.9167 32 48.2292 31.9128 48.4375 31.7383C48.6458 31.5612 48.75 31.2734 48.75 30.875C48.75 30.4766 48.6458 30.1901 48.4375 30.0156C48.2292 29.8385 47.9167 29.75 47.5 29.75H47.25V32ZM46.25 36V29H47.5C48.2448 29 48.806 29.1445 49.1836 29.4336C49.5612 29.7227 49.75 30.2031 49.75 30.875C49.75 31.2917 49.6758 31.6406 49.5273 31.9219C49.3789 32.2031 49.1615 32.3958 48.875 32.5L50 36H49.0078L48 32.75H47.25V36H46.25ZM52.3828 36.0703C52.0312 36.0703 51.7292 36.0169 51.4766 35.9102C51.2266 35.8034 51.0273 35.6471 50.8789 35.4414C50.7305 35.2357 50.6224 34.9948 50.5547 34.7188C50.487 34.4401 50.4531 34.1172 50.4531 33.75V31.2109C50.4531 30.8438 50.487 30.5234 50.5547 30.25C50.6224 29.9766 50.7305 29.7396 50.8789 29.5391C51.0273 29.3359 51.2266 29.1836 51.4766 29.082C51.7292 28.9805 52.0312 28.9297 52.3828 28.9297C53.0651 28.9297 53.5573 29.125 53.8594 29.5156C54.1615 29.9062 54.3125 30.4714 54.3125 31.2109V33.75C54.3125 34.112 54.2773 34.4323 54.207 34.7109C54.1393 34.987 54.0312 35.2292 53.8828 35.4375C53.7344 35.6432 53.5339 35.8008 53.2812 35.9102C53.0312 36.0169 52.7318 36.0703 52.3828 36.0703ZM51.6523 34.9336C51.7878 35.1445 52.0312 35.25 52.3828 35.25C52.7344 35.25 52.9766 35.1445 53.1094 34.9336C53.2448 34.7227 53.3125 34.4115 53.3125 34V30.9609C53.3125 30.5547 53.2461 30.2513 53.1133 30.0508C52.9805 29.8503 52.737 29.75 52.3828 29.75C52.0286 29.75 51.7852 29.8503 51.6523 30.0508C51.5195 30.2513 51.4531 30.5547 51.4531 30.9609V34C51.4531 34.4115 51.5195 34.7227 51.6523 34.9336ZM55.1875 36V29H56.7383C57.4701 29 57.9857 29.1497 58.2852 29.4492C58.5872 29.7487 58.7383 30.2656 58.7383 31V33.75C58.7383 34.5182 58.5846 35.0859 58.2773 35.4531C57.9727 35.8177 57.457 36 56.7305 36H55.1875ZM56.1875 35.25H56.7383C56.9023 35.25 57.043 35.2357 57.1602 35.207C57.2773 35.1758 57.3724 35.1211 57.4453 35.043C57.5182 34.9622 57.5755 34.8867 57.6172 34.8164C57.6589 34.7435 57.6875 34.6315 57.7031 34.4805C57.7214 34.3294 57.7318 34.2057 57.7344 34.1094C57.737 34.0104 57.7383 33.8581 57.7383 33.6523C57.7383 33.5846 57.7383 33.5339 57.7383 33.5V31.25C57.7383 31.1224 57.737 31.0208 57.7344 30.9453C57.7344 30.8698 57.7305 30.7812 57.7227 30.6797C57.7174 30.5755 57.7083 30.4935 57.6953 30.4336C57.6823 30.3737 57.6641 30.3073 57.6406 30.2344C57.6172 30.1589 57.5872 30.1003 57.5508 30.0586C57.5169 30.0169 57.474 29.974 57.4219 29.9297C57.3724 29.8828 57.3138 29.849 57.2461 29.8281C57.181 29.8047 57.1042 29.7865 57.0156 29.7734C56.9271 29.7578 56.8281 29.75 56.7188 29.75H56.1875V35.25ZM62.3672 35.9531C62.1354 36.0339 61.8672 36.0742 61.5625 36.0742C61.2578 36.0742 60.9896 36.0339 60.7578 35.9531C60.526 35.8724 60.3346 35.7604 60.1836 35.6172C60.0352 35.4714 59.9141 35.2891 59.8203 35.0703C59.7266 34.8516 59.6602 34.6159 59.6211 34.3633C59.582 34.1081 59.5625 33.8203 59.5625 33.5V29H60.5625V33.5C60.5625 33.7161 60.5664 33.8971 60.5742 34.043C60.5846 34.1888 60.6094 34.3451 60.6484 34.5117C60.6875 34.6758 60.7409 34.8073 60.8086 34.9062C60.8789 35.0052 60.9766 35.0872 61.1016 35.1523C61.2292 35.2174 61.3828 35.25 61.5625 35.25C61.7422 35.25 61.8945 35.2174 62.0195 35.1523C62.1471 35.0872 62.2448 35.0052 62.3125 34.9062C62.3828 34.8073 62.4375 34.6758 62.4766 34.5117C62.5156 34.3451 62.5391 34.1888 62.5469 34.043C62.5573 33.8971 62.5625 33.7161 62.5625 33.5V29H63.5625V33.5C63.5625 33.8203 63.543 34.1081 63.5039 34.3633C63.4648 34.6159 63.3984 34.8516 63.3047 35.0703C63.2109 35.2891 63.0885 35.4714 62.9375 35.6172C62.7891 35.7604 62.599 35.8724 62.3672 35.9531ZM66.3047 36.0703C66.0104 36.0703 65.7513 36.0286 65.5273 35.9453C65.3034 35.862 65.1198 35.7474 64.9766 35.6016C64.8333 35.4531 64.7161 35.2695 64.625 35.0508C64.5365 34.8294 64.474 34.5938 64.4375 34.3438C64.401 34.0938 64.3828 33.8112 64.3828 33.4961V31.5C64.3828 31.1849 64.401 30.9023 64.4375 30.6523C64.474 30.4023 64.5365 30.168 64.625 29.9492C64.7161 29.7279 64.8333 29.5443 64.9766 29.3984C65.1198 29.2526 65.3034 29.138 65.5273 29.0547C65.7513 28.9714 66.0104 28.9297 66.3047 28.9297C66.6302 28.9297 66.9115 28.9779 67.1484 29.0742C67.3854 29.1706 67.5742 29.3125 67.7148 29.5C67.8581 29.6875 67.9648 29.9049 68.0352 30.1523C68.1081 30.3997 68.151 30.6888 68.1641 31.0195C68.1667 31.069 68.168 31.1458 68.168 31.25H67.168V31.0273C67.1654 30.8893 67.1602 30.7721 67.1523 30.6758C67.1445 30.5768 67.1302 30.4753 67.1094 30.3711C67.0885 30.2669 67.0573 30.181 67.0156 30.1133C66.9766 30.043 66.9258 29.9792 66.8633 29.9219C66.8034 29.862 66.7266 29.819 66.6328 29.793C66.5391 29.7643 66.4297 29.75 66.3047 29.75C66.1432 29.75 66.0039 29.776 65.8867 29.8281C65.7721 29.8802 65.6823 29.9479 65.6172 30.0312C65.5521 30.112 65.5013 30.2214 65.4648 30.3594C65.431 30.4974 65.4089 30.6328 65.3984 30.7656C65.388 30.8958 65.3828 31.0573 65.3828 31.25V33.75C65.3828 33.9167 65.3893 34.0677 65.4023 34.2031C65.418 34.3385 65.4466 34.474 65.4883 34.6094C65.5299 34.7422 65.5833 34.8542 65.6484 34.9453C65.7161 35.0365 65.8047 35.1107 65.9141 35.168C66.026 35.2227 66.1562 35.25 66.3047 35.25C66.4531 35.25 66.5807 35.2214 66.6875 35.1641C66.7943 35.1068 66.8776 35.0339 66.9375 34.9453C67 34.8568 67.0482 34.7435 67.082 34.6055C67.1185 34.4674 67.1419 34.3333 67.1523 34.2031C67.1628 34.0729 67.168 33.9219 67.168 33.75V33.5H68.168V33.75C68.168 34.112 68.1354 34.4297 68.0703 34.7031C68.0078 34.9766 67.9049 35.2188 67.7617 35.4297C67.6211 35.638 67.4284 35.7969 67.1836 35.9062C66.9414 36.0156 66.6484 36.0703 66.3047 36.0703ZM69.582 36V29.8906H68.332V29H71.832V29.8906H70.582V36H69.582ZM72.375 36V29H73.375V36H72.375ZM76.25 36.0703C75.8984 36.0703 75.5964 36.0169 75.3438 35.9102C75.0938 35.8034 74.8945 35.6471 74.7461 35.4414C74.5977 35.2357 74.4896 34.9948 74.4219 34.7188C74.3542 34.4401 74.3203 34.1172 74.3203 33.75V31.2109C74.3203 30.8438 74.3542 30.5234 74.4219 30.25C74.4896 29.9766 74.5977 29.7396 74.7461 29.5391C74.8945 29.3359 75.0938 29.1836 75.3438 29.082C75.5964 28.9805 75.8984 28.9297 76.25 28.9297C76.9323 28.9297 77.4245 29.125 77.7266 29.5156C78.0286 29.9062 78.1797 30.4714 78.1797 31.2109V33.75C78.1797 34.112 78.1445 34.4323 78.0742 34.7109C78.0065 34.987 77.8984 35.2292 77.75 35.4375C77.6016 35.6432 77.401 35.8008 77.1484 35.9102C76.8984 36.0169 76.599 36.0703 76.25 36.0703ZM75.5195 34.9336C75.6549 35.1445 75.8984 35.25 76.25 35.25C76.6016 35.25 76.8438 35.1445 76.9766 34.9336C77.112 34.7227 77.1797 34.4115 77.1797 34V30.9609C77.1797 30.5547 77.1133 30.2513 76.9805 30.0508C76.8477 29.8503 76.6042 29.75 76.25 29.75C75.8958 29.75 75.6523 29.8503 75.5195 30.0508C75.3867 30.2513 75.3203 30.5547 75.3203 30.9609V34C75.3203 34.4115 75.3867 34.7227 75.5195 34.9336ZM79.0547 36V29H79.8047L81.5547 33.3281V29H82.5547V36H81.8438L80.0547 31.3438V36H79.0547Z" fill="#BF8B2E"/>
<path d="M7.625 26V11.5625H5.65625V9.59375C6.97559 9.12207 7.85059 8.46582 8.28125 7.625H10.25V26H7.625ZM12.2905 26V23.375L16.8945 16.8125C16.9492 16.7373 17.0688 16.5732 17.2534 16.3203C17.438 16.0605 17.561 15.8862 17.6226 15.7974C17.6841 15.7017 17.79 15.5376 17.9404 15.3052C18.0908 15.0659 18.1934 14.8848 18.248 14.7617C18.3096 14.6318 18.3882 14.4507 18.4839 14.2183C18.5864 13.9858 18.6582 13.7808 18.6992 13.603C18.7402 13.4185 18.7778 13.2065 18.812 12.9673C18.8462 12.7212 18.8633 12.4717 18.8633 12.2188C18.8633 11.4873 18.6924 10.8687 18.3506 10.3628C18.0156 9.8501 17.5303 9.59375 16.8945 9.59375C16.5186 9.59375 16.1973 9.68604 15.9307 9.87061C15.6641 10.0552 15.459 10.3115 15.3154 10.6396C15.1787 10.9678 15.0796 11.3164 15.0181 11.6855C14.9565 12.0479 14.9258 12.4443 14.9258 12.875V13.5312H12.3008V12.875C12.3008 11.1523 12.6699 9.81592 13.4082 8.86572C14.1465 7.91553 15.3086 7.44043 16.8945 7.44043C18.3848 7.44043 19.5229 7.86084 20.3091 8.70166C21.0952 9.53564 21.4883 10.708 21.4883 12.2188C21.4883 12.7861 21.437 13.3159 21.3345 13.8081C21.2388 14.3003 21.0815 14.772 20.8628 15.2231C20.6509 15.6743 20.4526 16.0469 20.2681 16.3408C20.0903 16.6348 19.8408 17.0107 19.5195 17.4688L14.9258 23.375H21.4883V26H12.2905Z" fill="#BF8B2E"/>
</svg>
