<svg width="95" height="95" viewBox="0 0 95 95" fill="none" xmlns="http://www.w3.org/2000/svg">
<rect width="95" height="95" fill="white"/>
<path d="M63.5891 41.3191C63.5891 41.3191 62.6626 42.5491 62.932 43.7473C63.203 44.9464 64.5701 45.6589 64.5701 45.6589C64.5701 45.6589 65.4958 44.4289 65.2256 43.2315C64.9554 42.0316 63.5891 41.3191 63.5891 41.3191Z" fill="#00689D"/>
<path d="M62.079 48.3435C62.079 48.3435 63.0054 47.1126 62.7352 45.9144C62.4651 44.7138 61.0979 44.0037 61.0979 44.0037C61.0979 44.0037 60.1715 45.2329 60.4409 46.4311C60.7127 47.6301 62.079 48.3435 62.079 48.3435Z" fill="#00689D"/>
<path d="M65.8859 47.0256C65.8859 47.0256 66.8637 48.0124 67.9778 47.9128C69.092 47.8149 69.9172 46.6689 69.9172 46.6689C69.9172 46.6689 68.941 45.6821 67.826 45.7809C66.7119 45.8805 65.8859 47.0256 65.8859 47.0256Z" fill="#00689D"/>
<path d="M67.4881 41.7568C66.5829 42.6767 66.7094 44.3034 66.7094 44.3034C66.7094 44.3034 68.3076 44.4422 69.2152 43.5231C70.1212 42.6049 69.9939 40.9773 69.9939 40.9773C69.9939 40.9773 68.3949 40.8394 67.4881 41.7568Z" fill="#00689D"/>
<path d="M65.4892 50.6831C66.5985 50.8145 67.6424 49.8612 67.6424 49.8612C67.6424 49.8612 66.8865 48.6956 65.7781 48.565C64.6681 48.4344 63.6234 49.387 63.6234 49.387C63.6234 49.387 64.3784 50.5525 65.4892 50.6831Z" fill="#00689D"/>
<path d="M66.4809 69.9644H58.1849C57.536 69.9644 57.0095 70.4884 57.0095 71.1372C57.0095 71.7853 57.5368 72.311 58.1849 72.311H66.4809C67.129 72.311 67.6546 71.7845 67.6546 71.1372C67.6538 70.4884 67.129 69.9644 66.4809 69.9644Z" fill="#00689D"/>
<path d="M66.4809 82.9006H58.1849C57.536 82.9006 57.0095 83.4255 57.0095 84.0743C57.0095 84.7216 57.5368 85.2481 58.1849 85.2481H66.4809C67.129 85.2481 67.6546 84.7208 67.6546 84.0743C67.6538 83.4246 67.129 82.9006 66.4809 82.9006Z" fill="#00689D"/>
<path d="M29.1716 67.1151C28.9766 67.0555 28.7832 67.0016 28.5962 66.9666C28.5962 66.9666 28.8076 67.0327 29.1716 67.1151Z" fill="#00689D"/>
<path d="M66.1747 73.1306H58.4868C58.1195 73.1306 57.8199 73.4309 57.8199 73.7982V76.1269L52.8019 76.6786L45.4714 76.5105V72.0336C46.4444 71.9087 47.4197 71.7144 48.3878 71.4418C55.4448 69.4503 56.9841 63.6143 56.8307 59.5789C56.6772 55.4669 57.993 53.8703 59.8825 53.1602C60.4237 52.957 60.9591 52.8288 61.4505 52.7456C61.4701 53.7544 61.6749 54.929 62.1263 56.328C62.2944 56.319 62.461 56.3051 62.6266 56.2871C62.15 54.8555 61.9467 53.6785 61.9361 52.6754C62.9123 52.5587 63.6094 52.624 63.6094 52.624C63.6094 52.624 62.949 52.2697 62.0169 51.4903C62.3344 49.5428 63.4943 48.347 64.6884 47.1251C65.3455 46.4518 66.0237 45.7563 66.5584 44.9287L66.1421 44.6602C65.6369 45.447 64.9716 46.1236 64.3317 46.7782C63.1662 47.9707 61.9916 49.1885 61.5925 51.1221C61.2138 50.7801 60.804 50.3761 60.3845 49.9052C58.6443 47.9536 56.4038 49.3869 53.21 52.3628C50.0137 55.3354 45.9946 55.4375 42.0694 51.4209C36.8897 46.1196 32.3736 46.1497 29.2745 46.4501C31.395 47.352 32.1361 49.333 33.2078 54.3658C34.3317 59.6483 37.1681 62.0374 41.0467 62.3671C38.8878 63.1303 38.7817 64.3473 35.8923 66.3429C33.6355 67.9003 30.4596 67.4081 29.1724 67.1151C31.5362 67.8521 34.335 70.3309 36.84 71.1937C38.2985 71.6948 39.8355 72.0058 41.4099 72.1307V76.4175L28.2762 76.1171V79.1085L52.8035 78.5461L57.8216 79.1004V81.4266C57.8216 81.7939 58.1211 82.0959 58.4884 82.0959H66.1764C66.5453 82.0959 66.8448 81.7939 66.8448 81.4266V73.799C66.8432 73.4309 66.5437 73.1306 66.1747 73.1306ZM42.6163 72.1927C43.1632 72.2025 43.7116 72.1846 44.261 72.1478V76.4828L42.6163 76.4444V72.1927Z" fill="#00689D"/>
<path d="M27.5556 78.6139C27.5556 79.244 27.1165 79.7558 26.5745 79.7558H25.9827C25.4416 79.7558 25 79.244 25 78.6139V76.5464C25 75.9163 25.4416 75.4045 25.9827 75.4045H26.5745C27.1165 75.4045 27.5556 75.9163 27.5556 76.5464V78.6139Z" fill="#00689D"/>
<path d="M28.5 12H28.75C28.9766 12 29.1615 11.987 29.3047 11.9609C29.4505 11.9349 29.5781 11.8867 29.6875 11.8164C29.7995 11.7435 29.8789 11.6406 29.9258 11.5078C29.9753 11.375 30 11.2057 30 11C30 10.75 29.9818 10.5482 29.9453 10.3945C29.9089 10.2383 29.8411 10.1107 29.7422 10.0117C29.6458 9.91276 29.5195 9.84505 29.3633 9.80859C29.2096 9.76953 29.0052 9.75 28.75 9.75H28.5V12ZM27.5 16V9H29.25C30.4167 9 31 9.66667 31 11C31 11.5703 30.849 12.0052 30.5469 12.3047C30.2474 12.6016 29.8151 12.75 29.25 12.75H28.5V16H27.5ZM31.5703 16V9H34.3203V9.75H32.5703V12H33.8203V12.75H32.5703V15.25H34.3203V16H31.5703ZM36 13.5H37L36.5 10.5L36 13.5ZM34.5 16L36 9H37L38.5 16H37.5L37.125 14.25H35.875L35.5 16H34.5ZM40.8203 16.0703C40.526 16.0703 40.2669 16.0286 40.043 15.9453C39.819 15.862 39.6354 15.7474 39.4922 15.6016C39.349 15.4531 39.2318 15.2695 39.1406 15.0508C39.0521 14.8294 38.9896 14.5938 38.9531 14.3438C38.9167 14.0938 38.8984 13.8112 38.8984 13.4961V11.5C38.8984 11.1849 38.9167 10.9023 38.9531 10.6523C38.9896 10.4023 39.0521 10.168 39.1406 9.94922C39.2318 9.72786 39.349 9.54427 39.4922 9.39844C39.6354 9.2526 39.819 9.13802 40.043 9.05469C40.2669 8.97135 40.526 8.92969 40.8203 8.92969C41.1458 8.92969 41.4271 8.97786 41.6641 9.07422C41.901 9.17057 42.0898 9.3125 42.2305 9.5C42.3737 9.6875 42.4805 9.90495 42.5508 10.1523C42.6237 10.3997 42.6667 10.6888 42.6797 11.0195C42.6823 11.069 42.6836 11.1458 42.6836 11.25H41.6836V11.0273C41.681 10.8893 41.6758 10.7721 41.668 10.6758C41.6602 10.5768 41.6458 10.4753 41.625 10.3711C41.6042 10.2669 41.5729 10.181 41.5312 10.1133C41.4922 10.043 41.4414 9.97917 41.3789 9.92188C41.319 9.86198 41.2422 9.81901 41.1484 9.79297C41.0547 9.76432 40.9453 9.75 40.8203 9.75C40.6589 9.75 40.5195 9.77604 40.4023 9.82812C40.2878 9.88021 40.1979 9.94792 40.1328 10.0312C40.0677 10.112 40.0169 10.2214 39.9805 10.3594C39.9466 10.4974 39.9245 10.6328 39.9141 10.7656C39.9036 10.8958 39.8984 11.0573 39.8984 11.25V13.75C39.8984 13.9167 39.9049 14.0677 39.918 14.2031C39.9336 14.3385 39.9622 14.474 40.0039 14.6094C40.0456 14.7422 40.099 14.8542 40.1641 14.9453C40.2318 15.0365 40.3203 15.1107 40.4297 15.168C40.5417 15.2227 40.6719 15.25 40.8203 15.25C40.9688 15.25 41.0964 15.2214 41.2031 15.1641C41.3099 15.1068 41.3932 15.0339 41.4531 14.9453C41.5156 14.8568 41.5638 14.7435 41.5977 14.6055C41.6341 14.4674 41.6576 14.3333 41.668 14.2031C41.6784 14.0729 41.6836 13.9219 41.6836 13.75V13.5H42.6836V13.75C42.6836 14.112 42.651 14.4297 42.5859 14.7031C42.5234 14.9766 42.4206 15.2188 42.2773 15.4297C42.1367 15.638 41.944 15.7969 41.6992 15.9062C41.457 16.0156 41.1641 16.0703 40.8203 16.0703ZM43.3516 16V9H46.1016V9.75H44.3516V12H45.6016V12.75H44.3516V15.25H46.1016V16H43.3516ZM46.7656 17L46.5156 16.5C46.6953 16.5 46.8229 16.4609 46.8984 16.3828C46.9766 16.3047 47.0156 16.1771 47.0156 16H46.5156V15H47.5156C47.5156 15.375 47.5117 15.6901 47.5039 15.9453C47.4987 16.0859 47.4909 16.2044 47.4805 16.3008C47.4701 16.3971 47.4492 16.4922 47.418 16.5859C47.3867 16.6823 47.3451 16.7578 47.293 16.8125C47.2409 16.8698 47.1706 16.9154 47.082 16.9492C46.9961 16.9831 46.8906 17 46.7656 17ZM49.4375 16V15.25C49.6536 15.25 49.8216 15.2383 49.9414 15.2148C50.0638 15.1914 50.1641 15.1419 50.2422 15.0664C50.3203 14.9883 50.3724 14.888 50.3984 14.7656C50.4245 14.6406 50.4375 14.4688 50.4375 14.25V9H51.4375V14.25C51.4375 14.5677 51.4167 14.8307 51.375 15.0391C51.3333 15.2448 51.2565 15.4232 51.1445 15.5742C51.0352 15.7253 50.8815 15.8346 50.6836 15.9023C50.4883 15.9674 50.2396 16 49.9375 16H49.4375ZM55.1875 15.9531C54.9557 16.0339 54.6875 16.0742 54.3828 16.0742C54.0781 16.0742 53.8099 16.0339 53.5781 15.9531C53.3464 15.8724 53.1549 15.7604 53.0039 15.6172C52.8555 15.4714 52.7344 15.2891 52.6406 15.0703C52.5469 14.8516 52.4805 14.6159 52.4414 14.3633C52.4023 14.1081 52.3828 13.8203 52.3828 13.5V9H53.3828V13.5C53.3828 13.7161 53.3867 13.8971 53.3945 14.043C53.4049 14.1888 53.4297 14.3451 53.4688 14.5117C53.5078 14.6758 53.5612 14.8073 53.6289 14.9062C53.6992 15.0052 53.7969 15.0872 53.9219 15.1523C54.0495 15.2174 54.2031 15.25 54.3828 15.25C54.5625 15.25 54.7148 15.2174 54.8398 15.1523C54.9674 15.0872 55.0651 15.0052 55.1328 14.9062C55.2031 14.8073 55.2578 14.6758 55.2969 14.5117C55.3359 14.3451 55.3594 14.1888 55.3672 14.043C55.3776 13.8971 55.3828 13.7161 55.3828 13.5V9H56.3828V13.5C56.3828 13.8203 56.3633 14.1081 56.3242 14.3633C56.2852 14.6159 56.2188 14.8516 56.125 15.0703C56.0312 15.2891 55.9089 15.4714 55.7578 15.6172C55.6094 15.7604 55.4193 15.8724 55.1875 15.9531ZM59.1523 16.0703C58.5221 16.0703 58.0404 15.8854 57.707 15.5156C57.3763 15.1458 57.1914 14.6406 57.1523 14L58.1523 13.75C58.2018 14.75 58.5352 15.25 59.1523 15.25C59.6523 15.25 59.9023 15 59.9023 14.5C59.9023 14.3516 59.8815 14.2148 59.8398 14.0898C59.8008 13.9622 59.7396 13.8464 59.6562 13.7422C59.5729 13.6354 59.4974 13.5508 59.4297 13.4883C59.362 13.4232 59.2695 13.3438 59.1523 13.25L57.9023 12.25C57.6732 12.0703 57.4896 11.8424 57.3516 11.5664C57.2161 11.2878 57.1484 10.9714 57.1484 10.6172C57.1484 10.1016 57.3086 9.69141 57.6289 9.38672C57.9492 9.08203 58.3737 8.92969 58.9023 8.92969C59.4701 8.92969 59.9206 9.06901 60.2539 9.34766C60.5898 9.6237 60.7969 10.0156 60.875 10.5234C60.8828 10.5781 60.8919 10.6536 60.9023 10.75L59.9023 11C59.8997 10.9557 59.8932 10.8893 59.8828 10.8008C59.8385 10.4831 59.7383 10.2292 59.582 10.0391C59.4284 9.84635 59.2018 9.75 58.9023 9.75C58.6628 9.75 58.4779 9.81771 58.3477 9.95312C58.2174 10.0859 58.1523 10.2721 58.1523 10.5117C58.1523 10.9049 58.319 11.2344 58.6523 11.5L59.9023 12.5C60.569 13.0391 60.9023 13.6836 60.9023 14.4336C60.9023 14.9466 60.7435 15.3477 60.4258 15.6367C60.1107 15.9258 59.6862 16.0703 59.1523 16.0703ZM62.3789 16V9.89062H61.1289V9H64.6289V9.89062H63.3789V16H62.3789ZM65.1719 16V9H66.1719V16H65.1719ZM69.0391 16.0703C68.7448 16.0703 68.4857 16.0286 68.2617 15.9453C68.0378 15.862 67.8542 15.7474 67.7109 15.6016C67.5677 15.4531 67.4505 15.2695 67.3594 15.0508C67.2708 14.8294 67.2083 14.5938 67.1719 14.3438C67.1354 14.0938 67.1172 13.8112 67.1172 13.4961V11.5C67.1172 11.1849 67.1354 10.9023 67.1719 10.6523C67.2083 10.4023 67.2708 10.168 67.3594 9.94922C67.4505 9.72786 67.5677 9.54427 67.7109 9.39844C67.8542 9.2526 68.0378 9.13802 68.2617 9.05469C68.4857 8.97135 68.7448 8.92969 69.0391 8.92969C69.3646 8.92969 69.6458 8.97786 69.8828 9.07422C70.1198 9.17057 70.3086 9.3125 70.4492 9.5C70.5924 9.6875 70.6992 9.90495 70.7695 10.1523C70.8424 10.3997 70.8854 10.6888 70.8984 11.0195C70.901 11.069 70.9023 11.1458 70.9023 11.25H69.9023V11.0273C69.8997 10.8893 69.8945 10.7721 69.8867 10.6758C69.8789 10.5768 69.8646 10.4753 69.8438 10.3711C69.8229 10.2669 69.7917 10.181 69.75 10.1133C69.7109 10.043 69.6602 9.97917 69.5977 9.92188C69.5378 9.86198 69.4609 9.81901 69.3672 9.79297C69.2734 9.76432 69.1641 9.75 69.0391 9.75C68.8776 9.75 68.7383 9.77604 68.6211 9.82812C68.5065 9.88021 68.4167 9.94792 68.3516 10.0312C68.2865 10.112 68.2357 10.2214 68.1992 10.3594C68.1654 10.4974 68.1432 10.6328 68.1328 10.7656C68.1224 10.8958 68.1172 11.0573 68.1172 11.25V13.75C68.1172 13.9167 68.1237 14.0677 68.1367 14.2031C68.1523 14.3385 68.181 14.474 68.2227 14.6094C68.2643 14.7422 68.3177 14.8542 68.3828 14.9453C68.4505 15.0365 68.5391 15.1107 68.6484 15.168C68.7604 15.2227 68.8906 15.25 69.0391 15.25C69.1875 15.25 69.3151 15.2214 69.4219 15.1641C69.5286 15.1068 69.612 15.0339 69.6719 14.9453C69.7344 14.8568 69.7826 14.7435 69.8164 14.6055C69.8529 14.4674 69.8763 14.3333 69.8867 14.2031C69.8971 14.0729 69.9023 13.9219 69.9023 13.75V13.5H70.9023V13.75C70.9023 14.112 70.8698 14.4297 70.8047 14.7031C70.7422 14.9766 70.6393 15.2188 70.4961 15.4297C70.3555 15.638 70.1628 15.7969 69.918 15.9062C69.6758 16.0156 69.3828 16.0703 69.0391 16.0703ZM71.5703 16V9H74.3203V9.75H72.5703V12H73.8203V12.75H72.5703V15.25H74.3203V16H71.5703ZM28.5625 23.5H29.5625L29.0625 20.5L28.5625 23.5ZM27.0625 26L28.5625 19H29.5625L31.0625 26H30.0625L29.6875 24.25H28.4375L28.0625 26H27.0625ZM31.625 26V19H32.375L34.125 23.3281V19H35.125V26H34.4141L32.625 21.3438V26H31.625ZM36.125 26V19H37.6758C38.4076 19 38.9232 19.1497 39.2227 19.4492C39.5247 19.7487 39.6758 20.2656 39.6758 21V23.75C39.6758 24.5182 39.5221 25.0859 39.2148 25.4531C38.9102 25.8177 38.3945 26 37.668 26H36.125ZM37.125 25.25H37.6758C37.8398 25.25 37.9805 25.2357 38.0977 25.207C38.2148 25.1758 38.3099 25.1211 38.3828 25.043C38.4557 24.9622 38.513 24.8867 38.5547 24.8164C38.5964 24.7435 38.625 24.6315 38.6406 24.4805C38.6589 24.3294 38.6693 24.2057 38.6719 24.1094C38.6745 24.0104 38.6758 23.8581 38.6758 23.6523C38.6758 23.5846 38.6758 23.5339 38.6758 23.5V21.25C38.6758 21.1224 38.6745 21.0208 38.6719 20.9453C38.6719 20.8698 38.668 20.7812 38.6602 20.6797C38.6549 20.5755 38.6458 20.4935 38.6328 20.4336C38.6198 20.3737 38.6016 20.3073 38.5781 20.2344C38.5547 20.1589 38.5247 20.1003 38.4883 20.0586C38.4544 20.0169 38.4115 19.974 38.3594 19.9297C38.3099 19.8828 38.2513 19.849 38.1836 19.8281C38.1185 19.8047 38.0417 19.7865 37.9531 19.7734C37.8646 19.7578 37.7656 19.75 37.6562 19.75H37.125V25.25ZM44.0039 26.0703C43.3737 26.0703 42.8919 25.8854 42.5586 25.5156C42.2279 25.1458 42.043 24.6406 42.0039 24L43.0039 23.75C43.0534 24.75 43.3867 25.25 44.0039 25.25C44.5039 25.25 44.7539 25 44.7539 24.5C44.7539 24.3516 44.7331 24.2148 44.6914 24.0898C44.6523 23.9622 44.5911 23.8464 44.5078 23.7422C44.4245 23.6354 44.349 23.5508 44.2812 23.4883C44.2135 23.4232 44.1211 23.3438 44.0039 23.25L42.7539 22.25C42.5247 22.0703 42.3411 21.8424 42.2031 21.5664C42.0677 21.2878 42 20.9714 42 20.6172C42 20.1016 42.1602 19.6914 42.4805 19.3867C42.8008 19.082 43.2253 18.9297 43.7539 18.9297C44.3216 18.9297 44.7721 19.069 45.1055 19.3477C45.4414 19.6237 45.6484 20.0156 45.7266 20.5234C45.7344 20.5781 45.7435 20.6536 45.7539 20.75L44.7539 21C44.7513 20.9557 44.7448 20.8893 44.7344 20.8008C44.6901 20.4831 44.5898 20.2292 44.4336 20.0391C44.2799 19.8464 44.0534 19.75 43.7539 19.75C43.5143 19.75 43.3294 19.8177 43.1992 19.9531C43.069 20.0859 43.0039 20.2721 43.0039 20.5117C43.0039 20.9049 43.1706 21.2344 43.5039 21.5L44.7539 22.5C45.4206 23.0391 45.7539 23.6836 45.7539 24.4336C45.7539 24.9466 45.5951 25.3477 45.2773 25.6367C44.9622 25.9258 44.5378 26.0703 44.0039 26.0703ZM47.2305 26V19.8906H45.9805V19H49.4805V19.8906H48.2305V26H47.2305ZM50.9766 22H51.2266C51.6432 22 51.9557 21.9128 52.1641 21.7383C52.3724 21.5612 52.4766 21.2734 52.4766 20.875C52.4766 20.4766 52.3724 20.1901 52.1641 20.0156C51.9557 19.8385 51.6432 19.75 51.2266 19.75H50.9766V22ZM49.9766 26V19H51.2266C51.9714 19 52.5326 19.1445 52.9102 19.4336C53.2878 19.7227 53.4766 20.2031 53.4766 20.875C53.4766 21.2917 53.4023 21.6406 53.2539 21.9219C53.1055 22.2031 52.888 22.3958 52.6016 22.5L53.7266 26H52.7344L51.7266 22.75H50.9766V26H49.9766ZM56.1094 26.0703C55.7578 26.0703 55.4557 26.0169 55.2031 25.9102C54.9531 25.8034 54.7539 25.6471 54.6055 25.4414C54.457 25.2357 54.349 24.9948 54.2812 24.7188C54.2135 24.4401 54.1797 24.1172 54.1797 23.75V21.2109C54.1797 20.8438 54.2135 20.5234 54.2812 20.25C54.349 19.9766 54.457 19.7396 54.6055 19.5391C54.7539 19.3359 54.9531 19.1836 55.2031 19.082C55.4557 18.9805 55.7578 18.9297 56.1094 18.9297C56.7917 18.9297 57.2839 19.125 57.5859 19.5156C57.888 19.9062 58.0391 20.4714 58.0391 21.2109V23.75C58.0391 24.112 58.0039 24.4323 57.9336 24.7109C57.8659 24.987 57.7578 25.2292 57.6094 25.4375C57.4609 25.6432 57.2604 25.8008 57.0078 25.9102C56.7578 26.0169 56.4583 26.0703 56.1094 26.0703ZM55.3789 24.9336C55.5143 25.1445 55.7578 25.25 56.1094 25.25C56.4609 25.25 56.7031 25.1445 56.8359 24.9336C56.9714 24.7227 57.0391 24.4115 57.0391 24V20.9609C57.0391 20.5547 56.9727 20.2513 56.8398 20.0508C56.707 19.8503 56.4635 19.75 56.1094 19.75C55.7552 19.75 55.5117 19.8503 55.3789 20.0508C55.2461 20.2513 55.1797 20.5547 55.1797 20.9609V24C55.1797 24.4115 55.2461 24.7227 55.3789 24.9336ZM58.9141 26V19H59.6641L61.4141 23.3281V19H62.4141V26H61.7031L59.9141 21.3438V26H58.9141ZM65.2891 26.0703C64.9688 26.0703 64.6901 26.0247 64.4531 25.9336C64.2188 25.8424 64.0273 25.7188 63.8789 25.5625C63.7305 25.4062 63.612 25.207 63.5234 24.9648C63.4349 24.7227 63.3737 24.4674 63.3398 24.1992C63.306 23.931 63.2891 23.6224 63.2891 23.2734V21.5C63.2891 19.7865 63.9688 18.9297 65.3281 18.9297C65.6536 18.9297 65.9362 18.9792 66.1758 19.0781C66.4154 19.1745 66.6094 19.3164 66.7578 19.5039C66.9062 19.6914 67.0182 19.9115 67.0938 20.1641C67.1693 20.4141 67.2135 20.7044 67.2266 21.0352C67.2292 21.082 67.2305 21.1536 67.2305 21.25H66.2305V21.0391C66.2279 20.875 66.2188 20.7344 66.2031 20.6172C66.1901 20.4974 66.1641 20.3802 66.125 20.2656C66.0885 20.151 66.0378 20.0586 65.9727 19.9883C65.9076 19.9154 65.8203 19.8581 65.7109 19.8164C65.6042 19.7721 65.4766 19.75 65.3281 19.75C65.125 19.75 64.9531 19.7878 64.8125 19.8633C64.6745 19.9362 64.5677 20.0443 64.4922 20.1875C64.4193 20.3281 64.3672 20.4844 64.3359 20.6562C64.3047 20.8255 64.2891 21.0234 64.2891 21.25V23.5C64.2891 23.6667 64.2943 23.8177 64.3047 23.9531C64.3151 24.0859 64.332 24.2227 64.3555 24.3633C64.3815 24.5013 64.418 24.6211 64.4648 24.7227C64.5143 24.8242 64.5742 24.9167 64.6445 25C64.7174 25.0807 64.8073 25.1432 64.9141 25.1875C65.0234 25.2292 65.1484 25.25 65.2891 25.25C65.4557 25.25 65.6003 25.2174 65.7227 25.1523C65.8451 25.0872 65.9414 25.0039 66.0117 24.9023C66.0846 24.7982 66.1419 24.6667 66.1836 24.5078C66.2253 24.349 66.2526 24.1914 66.2656 24.0352C66.2812 23.8789 66.2891 23.7005 66.2891 23.5V23.25H65.2891V22.5078H67.2891V26H66.5391L66.2891 25.25C66.0938 25.7969 65.7604 26.0703 65.2891 26.0703ZM27.5469 36V29H28.5469V36H27.5469ZM29.6172 36V29H30.3672L32.1172 33.3281V29H33.1172V36H32.4062L30.6172 31.3438V36H29.6172ZM35.9414 36.0703C35.3112 36.0703 34.8294 35.8854 34.4961 35.5156C34.1654 35.1458 33.9805 34.6406 33.9414 34L34.9414 33.75C34.9909 34.75 35.3242 35.25 35.9414 35.25C36.4414 35.25 36.6914 35 36.6914 34.5C36.6914 34.3516 36.6706 34.2148 36.6289 34.0898C36.5898 33.9622 36.5286 33.8464 36.4453 33.7422C36.362 33.6354 36.2865 33.5508 36.2188 33.4883C36.151 33.4232 36.0586 33.3438 35.9414 33.25L34.6914 32.25C34.4622 32.0703 34.2786 31.8424 34.1406 31.5664C34.0052 31.2878 33.9375 30.9714 33.9375 30.6172C33.9375 30.1016 34.0977 29.6914 34.418 29.3867C34.7383 29.082 35.1628 28.9297 35.6914 28.9297C36.2591 28.9297 36.7096 29.069 37.043 29.3477C37.3789 29.6237 37.5859 30.0156 37.6641 30.5234C37.6719 30.5781 37.681 30.6536 37.6914 30.75L36.6914 31C36.6888 30.9557 36.6823 30.8893 36.6719 30.8008C36.6276 30.4831 36.5273 30.2292 36.3711 30.0391C36.2174 29.8464 35.9909 29.75 35.6914 29.75C35.4518 29.75 35.2669 29.8177 35.1367 29.9531C35.0065 30.0859 34.9414 30.2721 34.9414 30.5117C34.9414 30.9049 35.1081 31.2344 35.4414 31.5L36.6914 32.5C37.3581 33.0391 37.6914 33.6836 37.6914 34.4336C37.6914 34.9466 37.5326 35.3477 37.2148 35.6367C36.8997 35.9258 36.4753 36.0703 35.9414 36.0703ZM39.168 36V29.8906H37.918V29H41.418V29.8906H40.168V36H39.168ZM41.9609 36V29H42.9609V36H41.9609ZM44.7773 36V29.8906H43.5273V29H47.0273V29.8906H45.7773V36H44.7773ZM50.2734 35.9531C50.0417 36.0339 49.7734 36.0742 49.4688 36.0742C49.1641 36.0742 48.8958 36.0339 48.6641 35.9531C48.4323 35.8724 48.2409 35.7604 48.0898 35.6172C47.9414 35.4714 47.8203 35.2891 47.7266 35.0703C47.6328 34.8516 47.5664 34.6159 47.5273 34.3633C47.4883 34.1081 47.4688 33.8203 47.4688 33.5V29H48.4688V33.5C48.4688 33.7161 48.4727 33.8971 48.4805 34.043C48.4909 34.1888 48.5156 34.3451 48.5547 34.5117C48.5938 34.6758 48.6471 34.8073 48.7148 34.9062C48.7852 35.0052 48.8828 35.0872 49.0078 35.1523C49.1354 35.2174 49.2891 35.25 49.4688 35.25C49.6484 35.25 49.8008 35.2174 49.9258 35.1523C50.0534 35.0872 50.151 35.0052 50.2188 34.9062C50.2891 34.8073 50.3438 34.6758 50.3828 34.5117C50.4219 34.3451 50.4453 34.1888 50.4531 34.043C50.4635 33.8971 50.4688 33.7161 50.4688 33.5V29H51.4688V33.5C51.4688 33.8203 51.4492 34.1081 51.4102 34.3633C51.3711 34.6159 51.3047 34.8516 51.2109 35.0703C51.1172 35.2891 50.9948 35.4714 50.8438 35.6172C50.6953 35.7604 50.5052 35.8724 50.2734 35.9531ZM53.1602 36V29.8906H51.9102V29H55.4102V29.8906H54.1602V36H53.1602ZM55.9531 36V29H56.9531V36H55.9531ZM59.8281 36.0703C59.4766 36.0703 59.1745 36.0169 58.9219 35.9102C58.6719 35.8034 58.4727 35.6471 58.3242 35.4414C58.1758 35.2357 58.0677 34.9948 58 34.7188C57.9323 34.4401 57.8984 34.1172 57.8984 33.75V31.2109C57.8984 30.8438 57.9323 30.5234 58 30.25C58.0677 29.9766 58.1758 29.7396 58.3242 29.5391C58.4727 29.3359 58.6719 29.1836 58.9219 29.082C59.1745 28.9805 59.4766 28.9297 59.8281 28.9297C60.5104 28.9297 61.0026 29.125 61.3047 29.5156C61.6068 29.9062 61.7578 30.4714 61.7578 31.2109V33.75C61.7578 34.112 61.7227 34.4323 61.6523 34.7109C61.5846 34.987 61.4766 35.2292 61.3281 35.4375C61.1797 35.6432 60.9792 35.8008 60.7266 35.9102C60.4766 36.0169 60.1771 36.0703 59.8281 36.0703ZM59.0977 34.9336C59.2331 35.1445 59.4766 35.25 59.8281 35.25C60.1797 35.25 60.4219 35.1445 60.5547 34.9336C60.6901 34.7227 60.7578 34.4115 60.7578 34V30.9609C60.7578 30.5547 60.6914 30.2513 60.5586 30.0508C60.4258 29.8503 60.1823 29.75 59.8281 29.75C59.474 29.75 59.2305 29.8503 59.0977 30.0508C58.9648 30.2513 58.8984 30.5547 58.8984 30.9609V34C58.8984 34.4115 58.9648 34.7227 59.0977 34.9336ZM62.6328 36V29H63.3828L65.1328 33.3281V29H66.1328V36H65.4219L63.6328 31.3438V36H62.6328ZM68.957 36.0703C68.3268 36.0703 67.8451 35.8854 67.5117 35.5156C67.181 35.1458 66.9961 34.6406 66.957 34L67.957 33.75C68.0065 34.75 68.3398 35.25 68.957 35.25C69.457 35.25 69.707 35 69.707 34.5C69.707 34.3516 69.6862 34.2148 69.6445 34.0898C69.6055 33.9622 69.5443 33.8464 69.4609 33.7422C69.3776 33.6354 69.3021 33.5508 69.2344 33.4883C69.1667 33.4232 69.0742 33.3438 68.957 33.25L67.707 32.25C67.4779 32.0703 67.2943 31.8424 67.1562 31.5664C67.0208 31.2878 66.9531 30.9714 66.9531 30.6172C66.9531 30.1016 67.1133 29.6914 67.4336 29.3867C67.7539 29.082 68.1784 28.9297 68.707 28.9297C69.2747 28.9297 69.7253 29.069 70.0586 29.3477C70.3945 29.6237 70.6016 30.0156 70.6797 30.5234C70.6875 30.5781 70.6966 30.6536 70.707 30.75L69.707 31C69.7044 30.9557 69.6979 30.8893 69.6875 30.8008C69.6432 30.4831 69.543 30.2292 69.3867 30.0391C69.2331 29.8464 69.0065 29.75 68.707 29.75C68.4674 29.75 68.2826 29.8177 68.1523 29.9531C68.0221 30.0859 67.957 30.2721 67.957 30.5117C67.957 30.9049 68.1237 31.2344 68.457 31.5L69.707 32.5C70.3737 33.0391 70.707 33.6836 70.707 34.4336C70.707 34.9466 70.5482 35.3477 70.2305 35.6367C69.9154 35.9258 69.4909 36.0703 68.957 36.0703Z" fill="#00689D"/>
<path d="M7.625 26V11.5625H5.65625V9.59375C6.97559 9.12207 7.85059 8.46582 8.28125 7.625H10.25V26H7.625ZM16.3408 23.7544C16.6074 23.939 16.9287 24.0312 17.3047 24.0312C17.6807 24.0312 18.002 23.939 18.2686 23.7544C18.5352 23.5698 18.7368 23.3135 18.8735 22.9854C19.0171 22.6572 19.1196 22.312 19.1812 21.9497C19.2427 21.5806 19.2734 21.1807 19.2734 20.75C19.2734 20.4902 19.2734 20.2954 19.2734 20.1655C19.2734 20.0288 19.2666 19.8374 19.2529 19.5913C19.2461 19.3452 19.2324 19.1572 19.2119 19.0273C19.1982 18.8906 19.1743 18.7197 19.1401 18.5146C19.1128 18.3096 19.0752 18.1523 19.0273 18.043C18.9795 17.9268 18.918 17.7935 18.8428 17.6431C18.7744 17.4858 18.6924 17.3662 18.5967 17.2842C18.501 17.2021 18.3916 17.1201 18.2686 17.0381C18.1455 16.9561 18.002 16.8979 17.8379 16.8638C17.6738 16.8296 17.4961 16.8125 17.3047 16.8125C16.457 16.8125 15.8008 17.25 15.3359 18.125V20.75C15.3359 21.1875 15.3667 21.5874 15.4282 21.9497C15.4897 22.312 15.5889 22.6572 15.7256 22.9854C15.8691 23.3135 16.0742 23.5698 16.3408 23.7544ZM17.3047 26.1846C16.6758 26.1846 16.105 26.0786 15.5923 25.8667C15.0796 25.6548 14.6455 25.3643 14.29 24.9951C13.9414 24.626 13.644 24.1851 13.3979 23.6724C13.1587 23.1528 12.9844 22.5957 12.875 22.001C12.7656 21.3994 12.7109 20.7637 12.7109 20.0938V14.1875C12.7109 13.4355 12.7554 12.7417 12.8442 12.106C12.9331 11.4634 13.0869 10.8516 13.3057 10.2705C13.5244 9.68262 13.8047 9.18359 14.1465 8.77344C14.4883 8.36328 14.9258 8.03857 15.459 7.79932C15.999 7.56006 16.6143 7.44043 17.3047 7.44043C18.7812 7.44043 19.916 7.86084 20.709 8.70166C21.502 9.53564 21.8984 10.708 21.8984 12.2188H19.2734C19.2734 11.3438 19.1299 10.6875 18.8428 10.25C18.5625 9.8125 18.0498 9.59375 17.3047 9.59375C15.9922 9.59375 15.3359 10.9062 15.3359 13.5312V16.1562C15.8418 15.2812 16.7168 14.8438 17.9609 14.8438C18.6992 14.8438 19.3281 14.9736 19.8477 15.2334C20.374 15.4863 20.7808 15.8589 21.0679 16.3511C21.3618 16.8364 21.5737 17.3833 21.7036 17.9917C21.8335 18.6001 21.8984 19.3008 21.8984 20.0938C21.8984 20.9551 21.813 21.7446 21.6421 22.4624C21.4712 23.1733 21.208 23.8125 20.8525 24.3799C20.4971 24.9473 20.0186 25.3916 19.417 25.7129C18.8154 26.0273 18.1113 26.1846 17.3047 26.1846Z" fill="#00689D"/>
</svg>
