<svg width="95" height="95" viewBox="0 0 95 95" fill="none" xmlns="http://www.w3.org/2000/svg">
<rect width="95" height="95" fill="white"/>
<path d="M66.679 33H54.443C54.36 33 54.288 33.069 54.288 33.156V37.222C54.288 37.309 54.36 37.378 54.443 37.378H59.315L53.905 42.789C51.18 40.649 47.753 39.367 44.025 39.367C35.19 39.367 28 46.556 28 55.393C28 63.529 34.096 70.262 41.957 71.281V75.966H37.131C37.041 75.966 36.974 76.035 36.974 76.12V80.479C36.974 80.565 37.041 80.634 37.131 80.634H41.957V85.245C41.957 85.331 42.026 85.401 42.112 85.401H46.468C46.555 85.401 46.626 85.331 46.626 85.245V80.634H51.45C51.536 80.634 51.606 80.565 51.606 80.479V76.12C51.606 76.035 51.536 75.966 51.45 75.966H46.626V71.204C54.23 69.957 60.05 63.344 60.05 55.393C60.05 51.963 58.965 48.785 57.122 46.176L62.455 40.842V45.392C62.455 45.479 62.527 45.548 62.613 45.548H66.678C66.765 45.548 66.837 45.479 66.837 45.392V33.156C66.838 33.069 66.766 33 66.679 33ZM44.025 67.189C37.52 67.189 32.23 61.897 32.23 55.393C32.23 48.888 37.52 43.597 44.025 43.597C50.53 43.597 55.821 48.888 55.821 55.393C55.821 61.897 50.53 67.189 44.025 67.189Z" fill="#FF3A21"/>
<path d="M51.23 50.5508H36.922C36.837 50.5508 36.767 50.6148 36.767 50.6898V54.1538C36.767 54.2348 36.837 54.2958 36.922 54.2958H51.23C51.319 54.2958 51.388 54.2348 51.388 54.1538V50.6898C51.388 50.6148 51.319 50.5508 51.23 50.5508Z" fill="#FF3A21"/>
<path d="M51.23 56.7358H36.922C36.837 56.7358 36.767 56.8009 36.767 56.8799V60.3438C36.767 60.4208 36.837 60.4839 36.922 60.4839H51.23C51.319 60.4839 51.388 60.4208 51.388 60.3438V56.8799C51.388 56.8009 51.319 56.7358 51.23 56.7358Z" fill="#FF3A21"/>
<path d="M29.375 16.0703C29.0547 16.0703 28.776 16.0247 28.5391 15.9336C28.3047 15.8424 28.1133 15.7188 27.9648 15.5625C27.8164 15.4062 27.6979 15.207 27.6094 14.9648C27.5208 14.7227 27.4596 14.4674 27.4258 14.1992C27.3919 13.931 27.375 13.6224 27.375 13.2734V11.5C27.375 9.78646 28.0547 8.92969 29.4141 8.92969C29.7396 8.92969 30.0221 8.97917 30.2617 9.07812C30.5013 9.17448 30.6953 9.31641 30.8438 9.50391C30.9922 9.69141 31.1042 9.91146 31.1797 10.1641C31.2552 10.4141 31.2995 10.7044 31.3125 11.0352C31.3151 11.082 31.3164 11.1536 31.3164 11.25H30.3164V11.0391C30.3138 10.875 30.3047 10.7344 30.2891 10.6172C30.276 10.4974 30.25 10.3802 30.2109 10.2656C30.1745 10.151 30.1237 10.0586 30.0586 9.98828C29.9935 9.91536 29.9062 9.85807 29.7969 9.81641C29.6901 9.77214 29.5625 9.75 29.4141 9.75C29.2109 9.75 29.0391 9.78776 28.8984 9.86328C28.7604 9.9362 28.6536 10.0443 28.5781 10.1875C28.5052 10.3281 28.4531 10.4844 28.4219 10.6562C28.3906 10.8255 28.375 11.0234 28.375 11.25V13.5C28.375 13.6667 28.3802 13.8177 28.3906 13.9531C28.401 14.0859 28.418 14.2227 28.4414 14.3633C28.4674 14.5013 28.5039 14.6211 28.5508 14.7227C28.6003 14.8242 28.6602 14.9167 28.7305 15C28.8034 15.0807 28.8932 15.1432 29 15.1875C29.1094 15.2292 29.2344 15.25 29.375 15.25C29.5417 15.25 29.6862 15.2174 29.8086 15.1523C29.931 15.0872 30.0273 15.0039 30.0977 14.9023C30.1706 14.7982 30.2279 14.6667 30.2695 14.5078C30.3112 14.349 30.3385 14.1914 30.3516 14.0352C30.3672 13.8789 30.375 13.7005 30.375 13.5V13.25H29.375V12.5078H31.375V16H30.625L30.375 15.25C30.1797 15.7969 29.8464 16.0703 29.375 16.0703ZM32.1875 16V9H34.9375V9.75H33.1875V12H34.4375V12.75H33.1875V15.25H34.9375V16H32.1875ZM35.5547 16V9H36.3047L38.0547 13.3281V9H39.0547V16H38.3438L36.5547 11.3438V16H35.5547ZM40.0547 16V9H41.6055C42.3372 9 42.8529 9.14974 43.1523 9.44922C43.4544 9.7487 43.6055 10.2656 43.6055 11V13.75C43.6055 14.5182 43.4518 15.0859 43.1445 15.4531C42.8398 15.8177 42.3242 16 41.5977 16H40.0547ZM41.0547 15.25H41.6055C41.7695 15.25 41.9102 15.2357 42.0273 15.207C42.1445 15.1758 42.2396 15.1211 42.3125 15.043C42.3854 14.9622 42.4427 14.8867 42.4844 14.8164C42.526 14.7435 42.5547 14.6315 42.5703 14.4805C42.5885 14.3294 42.599 14.2057 42.6016 14.1094C42.6042 14.0104 42.6055 13.8581 42.6055 13.6523C42.6055 13.5846 42.6055 13.5339 42.6055 13.5V11.25C42.6055 11.1224 42.6042 11.0208 42.6016 10.9453C42.6016 10.8698 42.5977 10.7812 42.5898 10.6797C42.5846 10.5755 42.5755 10.4935 42.5625 10.4336C42.5495 10.3737 42.5312 10.3073 42.5078 10.2344C42.4844 10.1589 42.4544 10.1003 42.418 10.0586C42.3841 10.0169 42.3411 9.97396 42.2891 9.92969C42.2396 9.88281 42.181 9.84896 42.1133 9.82812C42.0482 9.80469 41.9714 9.78646 41.8828 9.77344C41.7943 9.75781 41.6953 9.75 41.5859 9.75H41.0547V15.25ZM44.4844 16V9H47.2344V9.75H45.4844V12H46.7344V12.75H45.4844V15.25H47.2344V16H44.4844ZM48.8516 12H49.1016C49.5182 12 49.8307 11.9128 50.0391 11.7383C50.2474 11.5612 50.3516 11.2734 50.3516 10.875C50.3516 10.4766 50.2474 10.1901 50.0391 10.0156C49.8307 9.83854 49.5182 9.75 49.1016 9.75H48.8516V12ZM47.8516 16V9H49.1016C49.8464 9 50.4076 9.14453 50.7852 9.43359C51.1628 9.72266 51.3516 10.2031 51.3516 10.875C51.3516 11.2917 51.2773 11.6406 51.1289 11.9219C50.9805 12.2031 50.763 12.3958 50.4766 12.5L51.6016 16H50.6094L49.6016 12.75H48.8516V16H47.8516ZM27.5 26V19H30.25V19.75H28.5V22H29.75V22.75H28.5V25.25H30.25V26H27.5ZM31.9414 24.9336C32.0768 25.1445 32.3203 25.25 32.6719 25.25C33.0234 25.25 33.2656 25.1445 33.3984 24.9336C33.5339 24.7227 33.6016 24.4115 33.6016 24V20.9609C33.6016 20.5547 33.5352 20.2513 33.4023 20.0508C33.2695 19.8503 33.026 19.75 32.6719 19.75C32.3177 19.75 32.0742 19.8503 31.9414 20.0508C31.8086 20.2513 31.7422 20.5547 31.7422 20.9609V24C31.7422 24.4115 31.8086 24.7227 31.9414 24.9336ZM34.5195 27C34.2357 27 33.9531 26.901 33.6719 26.7031C33.3932 26.5052 33.1901 26.2852 33.0625 26.043C32.9505 26.0612 32.8203 26.0703 32.6719 26.0703C32.3203 26.0703 32.0182 26.0169 31.7656 25.9102C31.5156 25.8034 31.3164 25.6471 31.168 25.4414C31.0195 25.2357 30.9115 24.9948 30.8438 24.7188C30.776 24.4401 30.7422 24.1172 30.7422 23.75V21.2109C30.7422 20.8438 30.776 20.5234 30.8438 20.25C30.9115 19.9766 31.0195 19.7396 31.168 19.5391C31.3164 19.3359 31.5156 19.1836 31.7656 19.082C32.0182 18.9805 32.3203 18.9297 32.6719 18.9297C33.3542 18.9297 33.8464 19.125 34.1484 19.5156C34.4505 19.9062 34.6016 20.4714 34.6016 21.2109V23.75C34.6016 24.7812 34.3216 25.4674 33.7617 25.8086C33.8372 25.918 33.9505 26.0065 34.1016 26.0742C34.2552 26.1445 34.3945 26.1797 34.5195 26.1797V27ZM38.2266 25.9531C37.9948 26.0339 37.7266 26.0742 37.4219 26.0742C37.1172 26.0742 36.849 26.0339 36.6172 25.9531C36.3854 25.8724 36.194 25.7604 36.043 25.6172C35.8945 25.4714 35.7734 25.2891 35.6797 25.0703C35.5859 24.8516 35.5195 24.6159 35.4805 24.3633C35.4414 24.1081 35.4219 23.8203 35.4219 23.5V19H36.4219V23.5C36.4219 23.7161 36.4258 23.8971 36.4336 24.043C36.444 24.1888 36.4688 24.3451 36.5078 24.5117C36.5469 24.6758 36.6003 24.8073 36.668 24.9062C36.7383 25.0052 36.8359 25.0872 36.9609 25.1523C37.0885 25.2174 37.2422 25.25 37.4219 25.25C37.6016 25.25 37.7539 25.2174 37.8789 25.1523C38.0065 25.0872 38.1042 25.0052 38.1719 24.9062C38.2422 24.8073 38.2969 24.6758 38.3359 24.5117C38.375 24.3451 38.3984 24.1888 38.4062 24.043C38.4167 23.8971 38.4219 23.7161 38.4219 23.5V19H39.4219V23.5C39.4219 23.8203 39.4023 24.1081 39.3633 24.3633C39.3242 24.6159 39.2578 24.8516 39.1641 25.0703C39.0703 25.2891 38.9479 25.4714 38.7969 25.6172C38.6484 25.7604 38.4583 25.8724 38.2266 25.9531ZM41.375 23.5H42.375L41.875 20.5L41.375 23.5ZM39.875 26L41.375 19H42.375L43.875 26H42.875L42.5 24.25H41.25L40.875 26H39.875ZM44.4375 26V19H45.4375V25.25H47.1875V26H44.4375ZM47.7031 26V19H48.7031V26H47.7031ZM50.5195 26V19.8906H49.2695V19H52.7695V19.8906H51.5195V26H50.5195ZM54.2539 26V23.75L52.7539 19H53.7539L54.7539 22.5L55.7539 19H56.7539L55.2539 23.75V26H54.2539Z" fill="#FF3A21"/>
<path d="M15.4858 26.1846C13.8521 26.1846 12.6865 25.7266 11.9893 24.8105C11.292 23.8877 10.9434 22.5342 10.9434 20.75H13.5684V21.1602C13.5684 21.5088 13.5786 21.813 13.5991 22.0728C13.6265 22.3257 13.6743 22.5889 13.7427 22.8623C13.8179 23.1289 13.917 23.3477 14.04 23.5186C14.1699 23.6826 14.3442 23.8193 14.563 23.9287C14.7817 24.0381 15.0415 24.0928 15.3423 24.0928C15.5815 24.0928 15.7969 24.0654 15.9883 24.0107C16.1865 23.9492 16.354 23.8774 16.4907 23.7954C16.6343 23.7065 16.7607 23.5801 16.8701 23.416C16.9795 23.252 17.0684 23.1016 17.1367 22.9648C17.2119 22.8213 17.2734 22.6265 17.3213 22.3804C17.3691 22.1343 17.4033 21.9292 17.4238 21.7651C17.4512 21.5942 17.4717 21.3584 17.4854 21.0576C17.499 20.75 17.5059 20.5142 17.5059 20.3501C17.5059 20.1792 17.5059 19.9263 17.5059 19.5913C17.5059 19.4409 17.5059 19.3281 17.5059 19.2529C17.5059 18.959 17.5024 18.7095 17.4956 18.5044C17.4888 18.2925 17.4683 18.0669 17.4341 17.8276C17.4067 17.5815 17.3657 17.3765 17.311 17.2124C17.2563 17.0483 17.1812 16.8843 17.0854 16.7202C16.9897 16.5562 16.8735 16.4263 16.7368 16.3306C16.6001 16.2349 16.4292 16.1597 16.2241 16.105C16.0259 16.0435 15.8003 16.0127 15.5474 16.0127C15.0825 16.0127 14.6792 16.1631 14.3374 16.4639C13.9956 16.7646 13.7461 17.1201 13.5889 17.5303H11.3535V7.625H19.4746V10.25H13.7324L13.5684 14.7002C14.3066 14.2627 15.1816 14.0439 16.1934 14.0439C16.7881 14.0439 17.311 14.1362 17.7622 14.3208C18.2202 14.4985 18.5962 14.7446 18.8901 15.0591C19.1841 15.3735 19.4233 15.7632 19.6079 16.228C19.7993 16.6929 19.9326 17.1851 20.0078 17.7046C20.0898 18.2241 20.1309 18.8018 20.1309 19.4375C20.1309 20.2236 20.0898 20.9346 20.0078 21.5703C19.9258 22.2061 19.7788 22.8179 19.5669 23.4058C19.355 23.9937 19.0781 24.4858 18.7363 24.8823C18.3945 25.2788 17.9468 25.5967 17.3931 25.8359C16.8462 26.0684 16.2104 26.1846 15.4858 26.1846Z" fill="#FF3A21"/>
</svg>
