<svg width="95" height="95" viewBox="0 0 95 95" fill="none" xmlns="http://www.w3.org/2000/svg">
<rect width="95" height="95" fill="white"/>
<path d="M38.983 83.1567V84.5407C38.982 84.5507 38.978 84.5617 38.978 84.5717C38.978 84.5837 38.982 84.5947 38.983 84.6047C38.997 84.9477 39.277 85.2207 39.622 85.2267C39.626 85.2267 39.63 85.2297 39.634 85.2297C39.639 85.2297 39.645 85.2267 39.65 85.2267H55.89C55.894 85.2267 55.899 85.2297 55.904 85.2297C55.909 85.2297 55.913 85.2267 55.918 85.2267C56.273 85.2207 56.556 84.9317 56.559 84.5767C56.559 84.5757 56.561 84.5747 56.561 84.5717C56.561 84.5717 56.559 84.5697 56.559 84.5677V83.0007C65.701 80.0037 72.549 72.5947 74.055 63.5647C74.059 63.5457 74.061 63.5277 74.064 63.5107C74.07 63.4797 74.073 63.4507 74.073 63.4197C74.073 63.0577 73.781 62.7637 73.417 62.7637H21.968H21.659C21.293 62.7637 21 63.0577 21 63.4197L21.034 63.7157C22.616 72.8307 29.653 80.2817 38.983 83.1567Z" fill="#DDA63A"/>
<path d="M56.544 40.6735C56.33 40.9765 51.33 48.1764 56.656 53.9974C59.098 56.6694 58.886 59.0264 58.188 60.6194H61.605C62.297 58.2684 62.011 55.3194 59.238 52.2894C55.314 48.0004 59.288 42.2014 59.348 42.1124C59.816 41.4514 59.565 40.5985 58.794 40.2005C58.018 39.8045 57.014 40.0165 56.544 40.6735Z" fill="#DDA63A"/>
<path d="M47.892 60.6188H51.309C52 58.2668 51.713 55.3198 48.94 52.2898C45.015 47.9988 48.986 42.2038 49.049 42.1088C49.514 41.4508 49.268 40.5988 48.493 40.1998C47.721 39.8058 46.715 40.0148 46.247 40.6728C46.032 40.9758 41.027 48.1758 46.358 53.9978C48.8 56.6708 48.588 59.0288 47.892 60.6188Z" fill="#DDA63A"/>
<path d="M35.948 40.6736C35.731 40.9766 30.731 48.1766 36.058 53.9976C38.502 56.6706 38.29 59.0286 37.594 60.6196H41.01C41.701 58.2696 41.416 55.3206 38.64 52.2896C34.715 48.0006 38.689 42.2016 38.752 42.1096C39.216 41.4516 38.968 40.5986 38.194 40.2006C37.422 39.8026 36.417 40.0156 35.948 40.6736Z" fill="#DDA63A"/>
<path d="M27.2422 16V15.25L29.4922 9.75H27.4922V9H30.4922V9.75L28.2422 15.25H30.4922V16H27.2422ZM31.2188 16V9H33.9688V9.75H32.2188V12H33.4688V12.75H32.2188V15.25H33.9688V16H31.2188ZM35.5859 12H35.8359C36.2526 12 36.5651 11.9128 36.7734 11.7383C36.9818 11.5612 37.0859 11.2734 37.0859 10.875C37.0859 10.4766 36.9818 10.1901 36.7734 10.0156C36.5651 9.83854 36.2526 9.75 35.8359 9.75H35.5859V12ZM34.5859 16V9H35.8359C36.5807 9 37.1419 9.14453 37.5195 9.43359C37.8971 9.72266 38.0859 10.2031 38.0859 10.875C38.0859 11.2917 38.0117 11.6406 37.8633 11.9219C37.7148 12.2031 37.4974 12.3958 37.2109 12.5L38.3359 16H37.3438L36.3359 12.75H35.5859V16H34.5859ZM40.7188 16.0703C40.3672 16.0703 40.0651 16.0169 39.8125 15.9102C39.5625 15.8034 39.3633 15.6471 39.2148 15.4414C39.0664 15.2357 38.9583 14.9948 38.8906 14.7188C38.8229 14.4401 38.7891 14.1172 38.7891 13.75V11.2109C38.7891 10.8438 38.8229 10.5234 38.8906 10.25C38.9583 9.97656 39.0664 9.73958 39.2148 9.53906C39.3633 9.33594 39.5625 9.18359 39.8125 9.08203C40.0651 8.98047 40.3672 8.92969 40.7188 8.92969C41.401 8.92969 41.8932 9.125 42.1953 9.51562C42.4974 9.90625 42.6484 10.4714 42.6484 11.2109V13.75C42.6484 14.112 42.6133 14.4323 42.543 14.7109C42.4753 14.987 42.3672 15.2292 42.2188 15.4375C42.0703 15.6432 41.8698 15.8008 41.6172 15.9102C41.3672 16.0169 41.0677 16.0703 40.7188 16.0703ZM39.9883 14.9336C40.1237 15.1445 40.3672 15.25 40.7188 15.25C41.0703 15.25 41.3125 15.1445 41.4453 14.9336C41.5807 14.7227 41.6484 14.4115 41.6484 14V10.9609C41.6484 10.5547 41.582 10.2513 41.4492 10.0508C41.3164 9.85026 41.0729 9.75 40.7188 9.75C40.3646 9.75 40.1211 9.85026 39.9883 10.0508C39.8555 10.2513 39.7891 10.5547 39.7891 10.9609V14C39.7891 14.4115 39.8555 14.7227 39.9883 14.9336ZM27.5 26V19H28.5V22H30.25V19H31.25V26H30.25V22.75H28.5V26H27.5ZM35 25.9531C34.7682 26.0339 34.5 26.0742 34.1953 26.0742C33.8906 26.0742 33.6224 26.0339 33.3906 25.9531C33.1589 25.8724 32.9674 25.7604 32.8164 25.6172C32.668 25.4714 32.5469 25.2891 32.4531 25.0703C32.3594 24.8516 32.293 24.6159 32.2539 24.3633C32.2148 24.1081 32.1953 23.8203 32.1953 23.5V19H33.1953V23.5C33.1953 23.7161 33.1992 23.8971 33.207 24.043C33.2174 24.1888 33.2422 24.3451 33.2812 24.5117C33.3203 24.6758 33.3737 24.8073 33.4414 24.9062C33.5117 25.0052 33.6094 25.0872 33.7344 25.1523C33.862 25.2174 34.0156 25.25 34.1953 25.25C34.375 25.25 34.5273 25.2174 34.6523 25.1523C34.7799 25.0872 34.8776 25.0052 34.9453 24.9062C35.0156 24.8073 35.0703 24.6758 35.1094 24.5117C35.1484 24.3451 35.1719 24.1888 35.1797 24.043C35.1901 23.8971 35.1953 23.7161 35.1953 23.5V19H36.1953V23.5C36.1953 23.8203 36.1758 24.1081 36.1367 24.3633C36.0977 24.6159 36.0312 24.8516 35.9375 25.0703C35.8438 25.2891 35.7214 25.4714 35.5703 25.6172C35.4219 25.7604 35.2318 25.8724 35 25.9531ZM37.1406 26V19H37.8906L39.6406 23.3281V19H40.6406V26H39.9297L38.1406 21.3438V26H37.1406ZM43.5156 26.0703C43.1953 26.0703 42.9167 26.0247 42.6797 25.9336C42.4453 25.8424 42.2539 25.7188 42.1055 25.5625C41.957 25.4062 41.8385 25.207 41.75 24.9648C41.6615 24.7227 41.6003 24.4674 41.5664 24.1992C41.5326 23.931 41.5156 23.6224 41.5156 23.2734V21.5C41.5156 19.7865 42.1953 18.9297 43.5547 18.9297C43.8802 18.9297 44.1628 18.9792 44.4023 19.0781C44.6419 19.1745 44.8359 19.3164 44.9844 19.5039C45.1328 19.6914 45.2448 19.9115 45.3203 20.1641C45.3958 20.4141 45.4401 20.7044 45.4531 21.0352C45.4557 21.082 45.457 21.1536 45.457 21.25H44.457V21.0391C44.4544 20.875 44.4453 20.7344 44.4297 20.6172C44.4167 20.4974 44.3906 20.3802 44.3516 20.2656C44.3151 20.151 44.2643 20.0586 44.1992 19.9883C44.1341 19.9154 44.0469 19.8581 43.9375 19.8164C43.8307 19.7721 43.7031 19.75 43.5547 19.75C43.3516 19.75 43.1797 19.7878 43.0391 19.8633C42.901 19.9362 42.7943 20.0443 42.7188 20.1875C42.6458 20.3281 42.5938 20.4844 42.5625 20.6562C42.5312 20.8255 42.5156 21.0234 42.5156 21.25V23.5C42.5156 23.6667 42.5208 23.8177 42.5312 23.9531C42.5417 24.0859 42.5586 24.2227 42.582 24.3633C42.6081 24.5013 42.6445 24.6211 42.6914 24.7227C42.7409 24.8242 42.8008 24.9167 42.8711 25C42.944 25.0807 43.0339 25.1432 43.1406 25.1875C43.25 25.2292 43.375 25.25 43.5156 25.25C43.6823 25.25 43.8268 25.2174 43.9492 25.1523C44.0716 25.0872 44.168 25.0039 44.2383 24.9023C44.3112 24.7982 44.3685 24.6667 44.4102 24.5078C44.4518 24.349 44.4792 24.1914 44.4922 24.0352C44.5078 23.8789 44.5156 23.7005 44.5156 23.5V23.25H43.5156V22.5078H45.5156V26H44.7656L44.5156 25.25C44.3203 25.7969 43.987 26.0703 43.5156 26.0703ZM46.3281 26V19H49.0781V19.75H47.3281V22H48.5781V22.75H47.3281V25.25H49.0781V26H46.3281ZM50.6953 22H50.9453C51.362 22 51.6745 21.9128 51.8828 21.7383C52.0911 21.5612 52.1953 21.2734 52.1953 20.875C52.1953 20.4766 52.0911 20.1901 51.8828 20.0156C51.6745 19.8385 51.362 19.75 50.9453 19.75H50.6953V22ZM49.6953 26V19H50.9453C51.6901 19 52.2513 19.1445 52.6289 19.4336C53.0065 19.7227 53.1953 20.2031 53.1953 20.875C53.1953 21.2917 53.1211 21.6406 52.9727 21.9219C52.8242 22.2031 52.6068 22.3958 52.3203 22.5L53.4453 26H52.4531L51.4453 22.75H50.6953V26H49.6953Z" fill="#DDA63A"/>
<path d="M10.728 26V23.375L15.332 16.8125C15.3867 16.7373 15.5063 16.5732 15.6909 16.3203C15.8755 16.0605 15.9985 15.8862 16.0601 15.7974C16.1216 15.7017 16.2275 15.5376 16.3779 15.3052C16.5283 15.0659 16.6309 14.8848 16.6855 14.7617C16.7471 14.6318 16.8257 14.4507 16.9214 14.2183C17.0239 13.9858 17.0957 13.7808 17.1367 13.603C17.1777 13.4185 17.2153 13.2065 17.2495 12.9673C17.2837 12.7212 17.3008 12.4717 17.3008 12.2188C17.3008 11.4873 17.1299 10.8687 16.7881 10.3628C16.4531 9.8501 15.9678 9.59375 15.332 9.59375C14.9561 9.59375 14.6348 9.68604 14.3682 9.87061C14.1016 10.0552 13.8965 10.3115 13.7529 10.6396C13.6162 10.9678 13.5171 11.3164 13.4556 11.6855C13.394 12.0479 13.3633 12.4443 13.3633 12.875V13.5312H10.7383V12.875C10.7383 11.1523 11.1074 9.81592 11.8457 8.86572C12.584 7.91553 13.7461 7.44043 15.332 7.44043C16.8223 7.44043 17.9604 7.86084 18.7466 8.70166C19.5327 9.53564 19.9258 10.708 19.9258 12.2188C19.9258 12.7861 19.8745 13.3159 19.772 13.8081C19.6763 14.3003 19.519 14.772 19.3003 15.2231C19.0884 15.6743 18.8901 16.0469 18.7056 16.3408C18.5278 16.6348 18.2783 17.0107 17.957 17.4688L13.3633 23.375H19.9258V26H10.728Z" fill="#DDA63A"/>
</svg>
