<svg width="95" height="95" viewBox="0 0 95 95" fill="none" xmlns="http://www.w3.org/2000/svg">
<rect width="95" height="95" fill="white"/>
<path d="M74.8201 55.727C74.8201 54.22 76.0421 53 77.5471 53C79.0511 53 80.2701 54.22 80.2701 55.727C80.2701 57.232 79.0511 58.453 77.5471 58.453C76.0421 58.453 74.8201 57.232 74.8201 55.727Z" fill="#E5243B"/>
<path d="M80.7291 59.5038C82.5781 59.6708 84.0281 61.2268 84.0281 63.1238V64.0288V64.4248V70.6788C84.0281 71.2598 83.5531 71.7348 82.9711 71.7348C82.3851 71.7348 81.9141 71.2598 81.9141 70.6788V64.1898C81.9141 63.9468 81.8431 63.6168 81.3991 63.6168C81.0901 63.6168 81.0271 63.9428 81.0151 64.1508V83.5998C81.0151 84.4348 80.3371 85.1168 79.4971 85.1168C78.6571 85.1168 77.9761 84.4348 77.9761 83.5998V72.3918C77.9721 72.2678 77.9311 71.9468 77.5461 71.9468H77.5441C77.1571 71.9468 77.1101 72.2678 77.1061 72.3918V83.5998C77.1061 84.4348 76.4291 85.1168 75.5891 85.1168C74.7471 85.1168 74.0701 84.4348 74.0701 83.5998V64.1508C74.0601 63.9428 73.9941 63.6168 73.6881 63.6168C73.2411 63.6168 73.1721 63.9468 73.1721 64.1898V70.6788C73.1721 71.2598 72.6991 71.7348 72.1151 71.7348C71.5311 71.7348 71.0601 71.2598 71.0601 70.6788V64.4248V64.0288V63.1238C71.0601 61.2268 72.5091 59.6708 74.3631 59.5038C74.4231 59.4958 74.4891 59.4868 74.5621 59.4868H77.5441H80.5191C80.5991 59.4868 80.6641 59.4958 80.7291 59.5038Z" fill="#E5243B"/>
<path d="M58.613 57.1592C58.613 55.7342 57.46 54.5752 56.034 54.5752C54.608 54.5752 53.452 55.7342 53.452 57.1592C53.452 58.5852 54.608 59.7402 56.034 59.7402C57.46 59.7402 58.613 58.5852 58.613 57.1592Z" fill="#E5243B"/>
<path d="M50.834 63.0048L48.688 69.9888C48.688 69.9888 48.306 71.2698 49.393 71.5888C50.473 71.9098 50.801 70.6588 50.801 70.6588L52.531 64.8298C52.531 64.8298 52.625 64.3808 52.962 64.4788C53.299 64.5748 53.173 65.0548 53.173 65.0548L50.162 75.9788H52.962V83.8028C52.962 84.5428 53.565 85.1448 54.308 85.1448C55.05 85.1448 55.651 84.5428 55.651 83.8028V75.9788H56.035H56.415V83.8028C56.415 84.5428 57.014 85.1448 57.758 85.1448C58.503 85.1448 59.105 84.5428 59.105 83.8028V75.9788H61.904L58.895 65.0548C58.895 65.0548 58.769 64.5748 59.105 64.4788C59.442 64.3808 59.537 64.8298 59.537 64.8298L61.266 70.6588C61.266 70.6588 61.595 71.9098 62.674 71.5888C63.763 71.2698 63.379 69.9888 63.379 69.9888L61.233 63.0048C61.233 63.0048 60.467 60.9858 58.769 60.9858H56.035H53.299C51.601 60.9858 50.834 63.0048 50.834 63.0048Z" fill="#E5243B"/>
<path d="M43.155 57.1592C43.155 55.7342 42.001 54.5752 40.575 54.5752C39.148 54.5752 37.994 55.7342 37.994 57.1592C37.994 58.5852 39.148 59.7402 40.575 59.7402C42.001 59.7402 43.155 58.5852 43.155 57.1592Z" fill="#E5243B"/>
<path d="M35.3751 63.0048L33.2311 69.9888C33.2311 69.9888 32.8471 71.2698 33.9341 71.5888C35.0141 71.9098 35.3421 70.6588 35.3421 70.6588L37.0721 64.8298C37.0721 64.8298 37.1661 64.3808 37.5031 64.4788C37.8411 64.5748 37.7131 65.0548 37.7131 65.0548L34.7031 75.9788H37.5031V83.8028C37.5031 84.5428 38.1081 85.1448 38.8491 85.1448C39.5931 85.1448 40.1931 84.5428 40.1931 83.8028V75.9788H40.5781H40.9571V83.8028C40.9571 84.5428 41.5551 85.1448 42.3011 85.1448C43.0461 85.1448 43.6461 84.5428 43.6461 83.8028V75.9788H46.4461L43.4381 65.0548C43.4381 65.0548 43.3101 64.5748 43.6461 64.4788C43.9831 64.3808 44.0781 64.8298 44.0781 64.8298L45.8061 70.6588C45.8061 70.6588 46.1361 71.9098 47.2151 71.5888C48.3031 71.2698 47.9191 69.9888 47.9191 69.9888L45.7731 63.0048C45.7731 63.0048 45.0091 60.9858 43.3101 60.9858H40.5781H37.8411C36.1451 60.9858 35.3751 63.0048 35.3751 63.0048Z" fill="#E5243B"/>
<path d="M67.2811 71.6031C68.4691 71.6031 69.4281 70.6411 69.4281 69.4531C69.4281 68.2651 68.4691 67.3062 67.2811 67.3062C66.0931 67.3062 65.1321 68.2651 65.1321 69.4531C65.1321 70.6411 66.0931 71.6031 67.2811 71.6031Z" fill="#E5243B"/>
<path d="M62.13 78.2772C62.025 78.5282 61.939 79.0612 62.443 79.2932C63.035 79.5652 63.364 78.9932 63.364 78.9932L64.532 75.2692C64.532 75.2692 64.734 75.0202 64.734 75.2772V84.0452H64.74C64.74 84.6552 65.23 85.1472 65.842 85.1472C66.451 85.1472 66.943 84.6552 66.943 84.0452V80.5852C66.943 80.5852 66.88 80.0962 67.274 80.0962C67.668 80.0962 67.607 80.5852 67.607 80.5852V84.0452C67.607 84.6552 68.102 85.1472 68.712 85.1472C69.32 85.1472 69.816 84.6552 69.816 84.0452V75.2772C69.816 75.0202 69.952 75.2042 69.952 75.2042L70.867 77.7542C70.867 77.7542 71.265 78.8942 71.387 78.9442C71.8 79.1182 72.278 78.9202 72.452 78.5032C72.566 78.2322 72.522 77.9402 72.364 77.7202L72.372 77.7122C72.346 77.6292 71.005 74.3392 70.847 73.8772C70.362 72.4632 69.481 72.4752 68.631 72.4522C67.782 72.4312 67.274 72.4522 67.274 72.4522C67.274 72.4522 66.731 72.4292 65.61 72.4632C64.491 72.4982 64.137 73.0712 62.903 76.2482C62.726 76.7062 62.13 78.1862 62.122 78.2752L62.13 78.2772Z" fill="#E5243B"/>
<path d="M20.106 55.727C20.106 54.22 18.883 53 17.378 53C15.874 53 14.656 54.22 14.656 55.727C14.656 57.232 15.874 58.453 17.378 58.453C18.883 58.453 20.106 57.232 20.106 55.727Z" fill="#E5243B"/>
<path d="M14.196 59.5038C12.348 59.6708 10.896 61.2268 10.896 63.1238V64.0288V64.4248V70.6788C10.896 71.2598 11.37 71.7348 11.954 71.7348C12.538 71.7348 13.011 71.2598 13.011 70.6788V64.1898C13.011 63.9468 13.081 63.6168 13.526 63.6168C13.833 63.6168 13.897 63.9428 13.91 64.1508V83.5998C13.91 84.4348 14.586 85.1168 15.427 85.1168C16.266 85.1168 16.945 84.4348 16.945 83.5998V72.3918C16.951 72.2678 16.992 71.9468 17.378 71.9468H17.379C17.766 71.9468 17.813 72.2678 17.817 72.3918V83.5998C17.817 84.4348 18.494 85.1168 19.334 85.1168C20.175 85.1168 20.852 84.4348 20.852 83.5998V64.1508C20.861 63.9428 20.93 63.6168 21.235 63.6168C21.682 63.6168 21.75 63.9468 21.75 64.1898V70.6788C21.75 71.2598 22.223 71.7348 22.807 71.7348C23.39 71.7348 23.863 71.2598 23.863 70.6788V64.4248V64.0288V63.1238C23.863 61.2268 22.413 59.6708 20.56 59.5038C20.499 59.4958 20.434 59.4868 20.36 59.4868H17.378H14.404C14.326 59.4868 14.26 59.4958 14.196 59.5038Z" fill="#E5243B"/>
<path d="M9.40005 85.005C9.37605 85.005 9.35005 85.003 9.32505 84.998C9.10805 84.957 8.96605 84.748 9.00705 84.531L11.427 71.702C11.467 71.486 11.675 71.341 11.894 71.384C12.111 71.425 12.253 71.634 12.212 71.851L9.79205 84.68C9.75605 84.871 9.58805 85.005 9.40005 85.005Z" fill="#E5243B"/>
<path d="M25.1561 70.4778C25.0151 70.2578 24.7721 70.1108 24.4931 70.1108C24.0621 70.1108 23.7101 70.4618 23.7101 70.8918C23.7101 71.0158 23.7871 71.2348 23.7871 71.2348L25.9531 75.1548C25.9531 75.1548 26.0851 75.4238 26.0851 75.6708V84.0868H26.0891C26.0891 84.6738 26.5631 85.1458 27.1491 85.1458C27.7331 85.1458 28.2041 84.6738 28.2041 84.0868V80.7658C28.2041 80.7658 28.1451 80.2958 28.5241 80.2958C28.9021 80.2958 28.8431 80.7658 28.8431 80.7658V84.0868C28.8431 84.6738 29.3181 85.1458 29.9031 85.1458C30.4871 85.1458 30.9631 84.6738 30.9631 84.0868V75.6708C30.9631 75.4238 31.0941 75.1548 31.0941 75.1548L33.0961 71.5358C33.0961 71.5358 33.3411 71.0158 33.3411 70.8918C33.3411 70.4618 32.9911 70.1108 32.5581 70.1108C32.2751 70.1108 32.0321 70.2578 31.8951 70.4778L31.8861 70.4738C31.8231 70.5278 30.8211 72.3128 30.4901 72.6438C30.1401 72.9968 29.8271 72.9578 29.8271 72.9578H28.5241H27.2241C27.2241 72.9578 26.9081 72.9968 26.5601 72.6438C26.2251 72.3128 25.2261 70.5278 25.1631 70.4738L25.1561 70.4778Z" fill="#E5243B"/>
<path d="M28.5251 71.6031C29.7131 71.6031 30.6721 70.6411 30.6721 69.4531C30.6721 68.2651 29.7131 67.3062 28.5251 67.3062C27.3381 67.3062 26.3781 68.2651 26.3781 69.4531C26.3781 70.6411 27.3381 71.6031 28.5251 71.6031Z" fill="#E5243B"/>
<path d="M23.5625 17V9.125H24.4062L26.375 13.9941V9.125H27.5V17H26.7002L24.6875 11.7617V17H23.5625ZM30.6553 17.0791C30.2598 17.0791 29.9199 17.019 29.6357 16.8989C29.3545 16.7788 29.1304 16.603 28.9634 16.3716C28.7964 16.1401 28.6748 15.8691 28.5986 15.5586C28.5225 15.2451 28.4844 14.8818 28.4844 14.4688V11.6123C28.4844 11.1992 28.5225 10.8389 28.5986 10.5312C28.6748 10.2236 28.7964 9.95703 28.9634 9.73145C29.1304 9.50293 29.3545 9.33154 29.6357 9.21729C29.9199 9.10303 30.2598 9.0459 30.6553 9.0459C31.4229 9.0459 31.9766 9.26562 32.3164 9.70508C32.6562 10.1445 32.8262 10.7803 32.8262 11.6123V14.4688C32.8262 14.876 32.7866 15.2363 32.7075 15.5498C32.6313 15.8604 32.5098 16.1328 32.3428 16.3672C32.1758 16.5986 31.9502 16.7759 31.666 16.8989C31.3848 17.019 31.0479 17.0791 30.6553 17.0791ZM29.8335 15.8003C29.9858 16.0376 30.2598 16.1562 30.6553 16.1562C31.0508 16.1562 31.3232 16.0376 31.4727 15.8003C31.625 15.563 31.7012 15.2129 31.7012 14.75V11.3311C31.7012 10.874 31.6265 10.5327 31.4771 10.3071C31.3276 10.0815 31.0537 9.96875 30.6553 9.96875C30.2568 9.96875 29.9829 10.0815 29.8335 10.3071C29.6841 10.5327 29.6094 10.874 29.6094 11.3311V14.75C29.6094 15.2129 29.6841 15.563 29.8335 15.8003ZM24.6875 24.5H24.9688C25.2236 24.5 25.4316 24.4854 25.5928 24.4561C25.7568 24.4268 25.9004 24.3726 26.0234 24.2935C26.1494 24.2114 26.2388 24.0957 26.2915 23.9463C26.3472 23.7969 26.375 23.6064 26.375 23.375C26.375 23.0938 26.3545 22.8667 26.3135 22.6938C26.2725 22.5181 26.1963 22.3745 26.085 22.2632C25.9766 22.1519 25.8345 22.0757 25.6587 22.0347C25.4858 21.9907 25.2559 21.9688 24.9688 21.9688H24.6875V24.5ZM23.5625 29V21.125H25.5312C26.8438 21.125 27.5 21.875 27.5 23.375C27.5 24.0166 27.3301 24.5059 26.9902 24.8428C26.6533 25.1768 26.167 25.3438 25.5312 25.3438H24.6875V29H23.5625ZM30.1719 29.0791C29.7764 29.0791 29.4365 29.019 29.1523 28.8989C28.8711 28.7788 28.647 28.603 28.48 28.3716C28.313 28.1401 28.1914 27.8691 28.1152 27.5586C28.0391 27.2451 28.001 26.8818 28.001 26.4688V23.6123C28.001 23.1992 28.0391 22.8389 28.1152 22.5312C28.1914 22.2236 28.313 21.957 28.48 21.7314C28.647 21.5029 28.8711 21.3315 29.1523 21.2173C29.4365 21.103 29.7764 21.0459 30.1719 21.0459C30.9395 21.0459 31.4932 21.2656 31.833 21.7051C32.1729 22.1445 32.3428 22.7803 32.3428 23.6123V26.4688C32.3428 26.876 32.3032 27.2363 32.2241 27.5498C32.1479 27.8604 32.0264 28.1328 31.8594 28.3672C31.6924 28.5986 31.4668 28.7759 31.1826 28.8989C30.9014 29.019 30.5645 29.0791 30.1719 29.0791ZM29.3501 27.8003C29.5024 28.0376 29.7764 28.1562 30.1719 28.1562C30.5674 28.1562 30.8398 28.0376 30.9893 27.8003C31.1416 27.563 31.2178 27.2129 31.2178 26.75V23.3311C31.2178 22.874 31.1431 22.5327 30.9937 22.3071C30.8442 22.0815 30.5703 21.9688 30.1719 21.9688C29.7734 21.9688 29.4995 22.0815 29.3501 22.3071C29.2007 22.5327 29.126 22.874 29.126 23.3311V26.75C29.126 27.2129 29.2007 27.563 29.3501 27.8003ZM34.5049 29L32.8174 21.125H33.9424L34.7729 25.3438L35.063 27.3125L35.3618 25.3438L36.1924 21.125H37.3174L35.6299 29H34.5049ZM37.9326 29V21.125H41.0264V21.9688H39.0576V24.5H40.4639V25.3438H39.0576V28.1562H41.0264V29H37.9326ZM42.8457 24.5H43.127C43.5957 24.5 43.9473 24.4019 44.1816 24.2056C44.416 24.0063 44.5332 23.6826 44.5332 23.2344C44.5332 22.7861 44.416 22.4639 44.1816 22.2676C43.9473 22.0684 43.5957 21.9688 43.127 21.9688H42.8457V24.5ZM41.7207 29V21.125H43.127C43.9648 21.125 44.5962 21.2876 45.021 21.6128C45.4458 21.938 45.6582 22.4785 45.6582 23.2344C45.6582 23.7031 45.5747 24.0957 45.4077 24.4121C45.2407 24.7285 44.9961 24.9453 44.6738 25.0625L45.9395 29H44.8232L43.6895 25.3438H42.8457V29H41.7207ZM47.4292 29V22.127H46.0229V21.125H49.9604V22.127H48.5542V29H47.4292ZM51.6304 29V26.4688L49.9429 21.125H51.0679L52.1929 25.0625L53.3179 21.125H54.4429L52.7554 26.4688V29H51.6304Z" fill="#E5243B"/>
<path d="M13 29V12.5H10.75V10.25C12.2578 9.71094 13.2578 8.96094 13.75 8H16V29H13Z" fill="#E5243B"/>
</svg>
