<svg width="95" height="95" viewBox="0 0 95 95" fill="none" xmlns="http://www.w3.org/2000/svg">
<rect width="95" height="95" fill="white"/>
<path d="M80.0093 62.4281C80.0093 59.6581 78.2323 57.4122 75.5393 57.4122C74.1933 57.4122 72.5703 58.8862 71.6883 59.7932C70.8063 58.8852 69.2903 57.4102 67.9433 57.4102C65.2513 57.4102 63.3643 59.6562 63.3643 62.4272C63.3643 63.8122 63.9103 65.0662 64.7933 65.9742L71.6943 72.8882L78.5853 65.9821L78.5803 65.9772C79.4633 65.0692 80.0093 63.8141 80.0093 62.4281Z" fill="#4C9F38"/>
<path d="M50.628 85.1751C50.605 85.1751 50.581 85.1741 50.558 85.1731C50.033 85.1411 49.6 84.7521 49.511 84.2331L46.005 63.8181L40.696 73.6631C40.463 74.0941 39.977 74.3261 39.5 74.2411C39.018 74.1551 38.646 73.7701 38.576 73.2861L36.322 57.5301L32.198 66.7941C32.016 67.2031 31.61 67.4661 31.163 67.4661H15.133C14.507 67.4661 14 66.9591 14 66.3331C14 65.7071 14.507 65.2001 15.133 65.2001H30.426L35.852 53.0151C36.057 52.5541 36.543 52.2841 37.043 52.3531C37.543 52.4231 37.937 52.8151 38.009 53.3151L40.333 69.5611L45.569 59.8521C45.799 59.4261 46.273 59.1931 46.75 59.2721C47.227 59.3501 47.602 59.7221 47.684 60.1981L50.93 79.1061L62.761 39.8061C62.896 39.3591 63.291 39.0401 63.757 39.0031C64.224 38.9691 64.664 39.2201 64.867 39.6411L71.092 52.5461C71.364 53.1101 71.128 53.7871 70.564 54.0591C70.001 54.3311 69.323 54.0951 69.051 53.5311L64.091 43.2501L51.712 84.3691C51.568 84.8501 51.126 85.1751 50.628 85.1751Z" fill="#4C9F38"/>
<path d="M29.375 16.0703C29.0547 16.0703 28.776 16.0247 28.5391 15.9336C28.3047 15.8424 28.1133 15.7188 27.9648 15.5625C27.8164 15.4062 27.6979 15.207 27.6094 14.9648C27.5208 14.7227 27.4596 14.4674 27.4258 14.1992C27.3919 13.931 27.375 13.6224 27.375 13.2734V11.5C27.375 9.78646 28.0547 8.92969 29.4141 8.92969C29.7396 8.92969 30.0221 8.97917 30.2617 9.07812C30.5013 9.17448 30.6953 9.31641 30.8438 9.50391C30.9922 9.69141 31.1042 9.91146 31.1797 10.1641C31.2552 10.4141 31.2995 10.7044 31.3125 11.0352C31.3151 11.082 31.3164 11.1536 31.3164 11.25H30.3164V11.0391C30.3138 10.875 30.3047 10.7344 30.2891 10.6172C30.276 10.4974 30.25 10.3802 30.2109 10.2656C30.1745 10.151 30.1237 10.0586 30.0586 9.98828C29.9935 9.91536 29.9062 9.85807 29.7969 9.81641C29.6901 9.77214 29.5625 9.75 29.4141 9.75C29.2109 9.75 29.0391 9.78776 28.8984 9.86328C28.7604 9.9362 28.6536 10.0443 28.5781 10.1875C28.5052 10.3281 28.4531 10.4844 28.4219 10.6562C28.3906 10.8255 28.375 11.0234 28.375 11.25V13.5C28.375 13.6667 28.3802 13.8177 28.3906 13.9531C28.401 14.0859 28.418 14.2227 28.4414 14.3633C28.4674 14.5013 28.5039 14.6211 28.5508 14.7227C28.6003 14.8242 28.6602 14.9167 28.7305 15C28.8034 15.0807 28.8932 15.1432 29 15.1875C29.1094 15.2292 29.2344 15.25 29.375 15.25C29.5417 15.25 29.6862 15.2174 29.8086 15.1523C29.931 15.0872 30.0273 15.0039 30.0977 14.9023C30.1706 14.7982 30.2279 14.6667 30.2695 14.5078C30.3112 14.349 30.3385 14.1914 30.3516 14.0352C30.3672 13.8789 30.375 13.7005 30.375 13.5V13.25H29.375V12.5078H31.375V16H30.625L30.375 15.25C30.1797 15.7969 29.8464 16.0703 29.375 16.0703ZM33.9922 16.0703C33.6406 16.0703 33.3385 16.0169 33.0859 15.9102C32.8359 15.8034 32.6367 15.6471 32.4883 15.4414C32.3398 15.2357 32.2318 14.9948 32.1641 14.7188C32.0964 14.4401 32.0625 14.1172 32.0625 13.75V11.2109C32.0625 10.8438 32.0964 10.5234 32.1641 10.25C32.2318 9.97656 32.3398 9.73958 32.4883 9.53906C32.6367 9.33594 32.8359 9.18359 33.0859 9.08203C33.3385 8.98047 33.6406 8.92969 33.9922 8.92969C34.6745 8.92969 35.1667 9.125 35.4688 9.51562C35.7708 9.90625 35.9219 10.4714 35.9219 11.2109V13.75C35.9219 14.112 35.8867 14.4323 35.8164 14.7109C35.7487 14.987 35.6406 15.2292 35.4922 15.4375C35.3438 15.6432 35.1432 15.8008 34.8906 15.9102C34.6406 16.0169 34.3411 16.0703 33.9922 16.0703ZM33.2617 14.9336C33.3971 15.1445 33.6406 15.25 33.9922 15.25C34.3438 15.25 34.5859 15.1445 34.7188 14.9336C34.8542 14.7227 34.9219 14.4115 34.9219 14V10.9609C34.9219 10.5547 34.8555 10.2513 34.7227 10.0508C34.5898 9.85026 34.3464 9.75 33.9922 9.75C33.638 9.75 33.3945 9.85026 33.2617 10.0508C33.1289 10.2513 33.0625 10.5547 33.0625 10.9609V14C33.0625 14.4115 33.1289 14.7227 33.2617 14.9336ZM38.6016 16.0703C38.25 16.0703 37.9479 16.0169 37.6953 15.9102C37.4453 15.8034 37.2461 15.6471 37.0977 15.4414C36.9492 15.2357 36.8411 14.9948 36.7734 14.7188C36.7057 14.4401 36.6719 14.1172 36.6719 13.75V11.2109C36.6719 10.8438 36.7057 10.5234 36.7734 10.25C36.8411 9.97656 36.9492 9.73958 37.0977 9.53906C37.2461 9.33594 37.4453 9.18359 37.6953 9.08203C37.9479 8.98047 38.25 8.92969 38.6016 8.92969C39.2839 8.92969 39.776 9.125 40.0781 9.51562C40.3802 9.90625 40.5312 10.4714 40.5312 11.2109V13.75C40.5312 14.112 40.4961 14.4323 40.4258 14.7109C40.3581 14.987 40.25 15.2292 40.1016 15.4375C39.9531 15.6432 39.7526 15.8008 39.5 15.9102C39.25 16.0169 38.9505 16.0703 38.6016 16.0703ZM37.8711 14.9336C38.0065 15.1445 38.25 15.25 38.6016 15.25C38.9531 15.25 39.1953 15.1445 39.3281 14.9336C39.4635 14.7227 39.5312 14.4115 39.5312 14V10.9609C39.5312 10.5547 39.4648 10.2513 39.332 10.0508C39.1992 9.85026 38.9557 9.75 38.6016 9.75C38.2474 9.75 38.0039 9.85026 37.8711 10.0508C37.7383 10.2513 37.6719 10.5547 37.6719 10.9609V14C37.6719 14.4115 37.7383 14.7227 37.8711 14.9336ZM41.4062 16V9H42.957C43.6888 9 44.2044 9.14974 44.5039 9.44922C44.806 9.7487 44.957 10.2656 44.957 11V13.75C44.957 14.5182 44.8034 15.0859 44.4961 15.4531C44.1914 15.8177 43.6758 16 42.9492 16H41.4062ZM42.4062 15.25H42.957C43.1211 15.25 43.2617 15.2357 43.3789 15.207C43.4961 15.1758 43.5911 15.1211 43.6641 15.043C43.737 14.9622 43.7943 14.8867 43.8359 14.8164C43.8776 14.7435 43.9062 14.6315 43.9219 14.4805C43.9401 14.3294 43.9505 14.2057 43.9531 14.1094C43.9557 14.0104 43.957 13.8581 43.957 13.6523C43.957 13.5846 43.957 13.5339 43.957 13.5V11.25C43.957 11.1224 43.9557 11.0208 43.9531 10.9453C43.9531 10.8698 43.9492 10.7812 43.9414 10.6797C43.9362 10.5755 43.9271 10.4935 43.9141 10.4336C43.901 10.3737 43.8828 10.3073 43.8594 10.2344C43.8359 10.1589 43.806 10.1003 43.7695 10.0586C43.7357 10.0169 43.6927 9.97396 43.6406 9.92969C43.5911 9.88281 43.5326 9.84896 43.4648 9.82812C43.3997 9.80469 43.3229 9.78646 43.2344 9.77344C43.1458 9.75781 43.0469 9.75 42.9375 9.75H42.4062V15.25ZM47.4609 16V9H48.4609V12H50.2109V9H51.2109V16H50.2109V12.75H48.4609V16H47.4609ZM52.2109 16V9H54.9609V9.75H53.2109V12H54.4609V12.75H53.2109V15.25H54.9609V16H52.2109ZM56.6406 13.5H57.6406L57.1406 10.5L56.6406 13.5ZM55.1406 16L56.6406 9H57.6406L59.1406 16H58.1406L57.7656 14.25H56.5156L56.1406 16H55.1406ZM59.7031 16V9H60.7031V15.25H62.4531V16H59.7031ZM63.5508 16V9.89062H62.3008V9H65.8008V9.89062H64.5508V16H63.5508ZM66.2969 16V9H67.2969V12H69.0469V9H70.0469V16H69.0469V12.75H67.2969V16H66.2969ZM28.5625 23.5H29.5625L29.0625 20.5L28.5625 23.5ZM27.0625 26L28.5625 19H29.5625L31.0625 26H30.0625L29.6875 24.25H28.4375L28.0625 26H27.0625ZM31.625 26V19H32.375L34.125 23.3281V19H35.125V26H34.4141L32.625 21.3438V26H31.625ZM36.125 26V19H37.6758C38.4076 19 38.9232 19.1497 39.2227 19.4492C39.5247 19.7487 39.6758 20.2656 39.6758 21V23.75C39.6758 24.5182 39.5221 25.0859 39.2148 25.4531C38.9102 25.8177 38.3945 26 37.668 26H36.125ZM37.125 25.25H37.6758C37.8398 25.25 37.9805 25.2357 38.0977 25.207C38.2148 25.1758 38.3099 25.1211 38.3828 25.043C38.4557 24.9622 38.513 24.8867 38.5547 24.8164C38.5964 24.7435 38.625 24.6315 38.6406 24.4805C38.6589 24.3294 38.6693 24.2057 38.6719 24.1094C38.6745 24.0104 38.6758 23.8581 38.6758 23.6523C38.6758 23.5846 38.6758 23.5339 38.6758 23.5V21.25C38.6758 21.1224 38.6745 21.0208 38.6719 20.9453C38.6719 20.8698 38.668 20.7812 38.6602 20.6797C38.6549 20.5755 38.6458 20.4935 38.6328 20.4336C38.6198 20.3737 38.6016 20.3073 38.5781 20.2344C38.5547 20.1589 38.5247 20.1003 38.4883 20.0586C38.4544 20.0169 38.4115 19.974 38.3594 19.9297C38.3099 19.8828 38.2513 19.849 38.1836 19.8281C38.1185 19.8047 38.0417 19.7865 37.9531 19.7734C37.8646 19.7578 37.7656 19.75 37.6562 19.75H37.125V25.25ZM42.9727 26L41.7227 19H42.7227L43.2227 22.25L43.4766 24.25L43.7227 22.25L44.2227 19H45.2227L45.7227 22.25L45.9688 24.25L46.2227 22.25L46.7227 19H47.7227L46.4727 26H45.4727L44.9727 22.75L44.7227 20.75L44.4727 22.75L43.9727 26H42.9727ZM48.2656 26V19H51.0156V19.75H49.2656V22H50.5156V22.75H49.2656V25.25H51.0156V26H48.2656ZM51.6328 26V19H52.6328V25.25H54.3828V26H51.6328ZM54.8516 26V19H55.8516V25.25H57.6016V26H54.8516ZM57.5703 24.25V23.5H59.0703V24.25H57.5703ZM60.5703 22H61.0703C61.9036 22 62.3203 21.5833 62.3203 20.75C62.3203 20.612 62.3034 20.4909 62.2695 20.3867C62.2357 20.2799 62.1953 20.1914 62.1484 20.1211C62.1016 20.0508 62.0299 19.9922 61.9336 19.9453C61.8398 19.8958 61.7539 19.8581 61.6758 19.832C61.5977 19.806 61.4857 19.7878 61.3398 19.7773C61.1966 19.7643 61.0768 19.7565 60.9805 19.7539C60.8841 19.7513 60.7474 19.75 60.5703 19.75V22ZM60.5703 25.25H61.0703C61.5026 25.25 61.819 25.151 62.0195 24.9531C62.2201 24.7526 62.3203 24.4349 62.3203 24C62.3203 23.5651 62.2201 23.2487 62.0195 23.0508C61.819 22.8503 61.5026 22.75 61.0703 22.75H60.5703V25.25ZM59.5703 26V19H61.0703C61.3932 19 61.6823 19.0339 61.9375 19.1016C62.1927 19.1693 62.4154 19.2721 62.6055 19.4102C62.7982 19.5482 62.9453 19.7305 63.0469 19.957C63.151 20.1836 63.2031 20.4479 63.2031 20.75C63.2031 21.1875 63.1107 21.5208 62.9258 21.75C62.7409 21.9766 62.4557 22.1432 62.0703 22.25C62.487 22.388 62.7995 22.5911 63.0078 22.8594C63.2161 23.125 63.3203 23.5052 63.3203 24C63.3203 24.6172 63.1406 25.1055 62.7812 25.4648C62.4245 25.8216 61.9375 26 61.3203 26H59.5703ZM64.0469 26V19H66.7969V19.75H65.0469V22H66.2969V22.75H65.0469V25.25H66.7969V26H64.0469ZM67.4609 26V19H68.4609V26H67.4609ZM69.5312 26V19H70.2812L72.0312 23.3281V19H73.0312V26H72.3203L70.5312 21.3438V26H69.5312ZM75.9062 26.0703C75.5859 26.0703 75.3073 26.0247 75.0703 25.9336C74.8359 25.8424 74.6445 25.7188 74.4961 25.5625C74.3477 25.4062 74.2292 25.207 74.1406 24.9648C74.0521 24.7227 73.9909 24.4674 73.957 24.1992C73.9232 23.931 73.9062 23.6224 73.9062 23.2734V21.5C73.9062 19.7865 74.5859 18.9297 75.9453 18.9297C76.2708 18.9297 76.5534 18.9792 76.793 19.0781C77.0326 19.1745 77.2266 19.3164 77.375 19.5039C77.5234 19.6914 77.6354 19.9115 77.7109 20.1641C77.7865 20.4141 77.8307 20.7044 77.8438 21.0352C77.8464 21.082 77.8477 21.1536 77.8477 21.25H76.8477V21.0391C76.8451 20.875 76.8359 20.7344 76.8203 20.6172C76.8073 20.4974 76.7812 20.3802 76.7422 20.2656C76.7057 20.151 76.6549 20.0586 76.5898 19.9883C76.5247 19.9154 76.4375 19.8581 76.3281 19.8164C76.2214 19.7721 76.0938 19.75 75.9453 19.75C75.7422 19.75 75.5703 19.7878 75.4297 19.8633C75.2917 19.9362 75.1849 20.0443 75.1094 20.1875C75.0365 20.3281 74.9844 20.4844 74.9531 20.6562C74.9219 20.8255 74.9062 21.0234 74.9062 21.25V23.5C74.9062 23.6667 74.9115 23.8177 74.9219 23.9531C74.9323 24.0859 74.9492 24.2227 74.9727 24.3633C74.9987 24.5013 75.0352 24.6211 75.082 24.7227C75.1315 24.8242 75.1914 24.9167 75.2617 25C75.3346 25.0807 75.4245 25.1432 75.5312 25.1875C75.6406 25.2292 75.7656 25.25 75.9062 25.25C76.0729 25.25 76.2174 25.2174 76.3398 25.1523C76.4622 25.0872 76.5586 25.0039 76.6289 24.9023C76.7018 24.7982 76.7591 24.6667 76.8008 24.5078C76.8424 24.349 76.8698 24.1914 76.8828 24.0352C76.8984 23.8789 76.9062 23.7005 76.9062 23.5V23.25H75.9062V22.5078H77.9062V26H77.1562L76.9062 25.25C76.7109 25.7969 76.3776 26.0703 75.9062 26.0703Z" fill="#4C9F38"/>
<path d="M15.3936 26.1846C13.9033 26.1846 12.7651 25.7676 11.979 24.9336C11.1929 24.0928 10.7998 22.917 10.7998 21.4062V20.75H13.4248C13.4248 21.1602 13.4351 21.5122 13.4556 21.8062C13.4829 22.0933 13.5342 22.3872 13.6094 22.688C13.6914 22.9888 13.8008 23.2314 13.9375 23.416C14.0742 23.5938 14.2656 23.7407 14.5117 23.8569C14.7578 23.9731 15.0518 24.0312 15.3936 24.0312C15.7354 24.0312 16.0293 23.9731 16.2754 23.8569C16.5215 23.7407 16.7129 23.5938 16.8496 23.416C16.9863 23.2314 17.0923 22.9888 17.1675 22.688C17.2495 22.3872 17.3008 22.0933 17.3213 21.8062C17.3486 21.5122 17.3623 21.1602 17.3623 20.75C17.3623 19.6973 17.1572 18.8872 16.7471 18.3198C16.3438 17.7524 15.6738 17.4688 14.7373 17.4688V14.8438C15.6943 14.8438 16.3711 14.6489 16.7676 14.2593C17.1641 13.8628 17.3623 13.1826 17.3623 12.2188C17.3623 11.3506 17.2188 10.6978 16.9316 10.2603C16.6445 9.81592 16.1318 9.59375 15.3936 9.59375C15.0518 9.59375 14.7578 9.65186 14.5117 9.76807C14.2656 9.88428 14.0742 10.0347 13.9375 10.2192C13.8008 10.397 13.6914 10.6362 13.6094 10.937C13.5342 11.2378 13.4829 11.5352 13.4556 11.8291C13.4351 12.1162 13.4248 12.4648 13.4248 12.875H10.7998V12.2188C10.7998 10.7148 11.1929 9.54248 11.979 8.70166C12.772 7.86084 13.9102 7.44043 15.3936 7.44043C16.8838 7.44043 18.022 7.86084 18.8081 8.70166C19.5942 9.53564 19.9873 10.708 19.9873 12.2188C19.9873 13.2578 19.7549 14.1123 19.29 14.7822C18.8252 15.4453 18.1826 15.9033 17.3623 16.1562C18.2168 16.4434 18.8662 16.98 19.3105 17.7661C19.7617 18.5522 19.9873 19.5469 19.9873 20.75C19.9873 22.4727 19.6182 23.8091 18.8799 24.7593C18.1416 25.7095 16.9795 26.1846 15.3936 26.1846Z" fill="#4C9F38"/>
</svg>
