<svg width="95" height="95" viewBox="0 0 95 95" fill="none" xmlns="http://www.w3.org/2000/svg">
<rect width="95" height="95" fill="white"/>
<path d="M39.168 65.4463C39.288 65.4463 39.385 65.5443 39.385 65.6643V72.8333C39.385 72.9543 39.288 73.0513 39.168 73.0513H36.267C36.146 73.0513 36.048 72.9543 36.048 72.8333V65.6643C36.048 65.5443 36.146 65.4463 36.267 65.4463H39.168Z" fill="#56C02B"/>
<path d="M71.026 76.1289H23.218C23.099 76.1289 23 76.2319 23 76.3539V79.2769C23 79.3949 23.099 79.4919 23.218 79.4919H71.026C71.143 79.4919 71.245 79.3949 71.245 79.2769V76.3539C71.245 76.2319 71.144 76.1289 71.026 76.1289Z" fill="#56C02B"/>
<path d="M71.026 81.937H23.218C23.099 81.937 23 82.033 23 82.152V85.084C23 85.2 23.099 85.3 23.218 85.3H71.026C71.143 85.3 71.245 85.2 71.245 85.084V82.152C71.245 82.032 71.144 81.937 71.026 81.937Z" fill="#56C02B"/>
<path d="M61.929 57.5111C61.331 57.0441 59.738 55.9531 57.793 55.9531C56.404 55.9531 55.111 56.5001 53.954 57.5841C53.872 57.6621 53.827 57.7692 53.827 57.8842V58.1451C53.827 58.2731 53.869 58.3932 53.963 58.4722C54.066 58.5502 54.175 58.5802 54.299 58.5502C54.327 58.5462 54.361 58.5381 54.389 58.5271C54.477 58.4971 54.561 58.4431 54.628 58.3761C54.879 58.2081 55.564 57.9782 56.543 57.9782C57.556 57.9782 59.545 58.2491 61.469 60.0421L61.513 60.0822C61.621 60.1922 61.771 60.2551 61.929 60.2551C62.079 60.2551 62.235 60.1922 62.333 60.0862L62.373 60.0461C64.306 58.2491 66.293 57.9782 67.305 57.9782C68.291 57.9782 68.974 58.2081 69.225 58.3761C69.294 58.4431 69.378 58.4982 69.489 58.5392C69.532 58.5512 69.653 58.5761 69.769 58.5471C69.946 58.4971 70.071 58.3381 70.071 58.1521V57.9231C70.071 57.8131 70.023 57.7031 69.942 57.6261C68.774 56.5141 67.468 55.9512 66.056 55.9512C64.13 55.9502 62.543 57.0251 61.929 57.5111Z" fill="#56C02B"/>
<path d="M58.962 38.457C58.86 38.504 58.787 38.597 58.753 38.709L58.705 38.868C58.669 38.994 58.692 39.1261 58.768 39.2261C58.842 39.3251 58.947 39.382 59.064 39.387C59.086 39.39 59.107 39.396 59.123 39.39C59.206 39.387 59.281 39.3691 59.355 39.3311C59.397 39.3221 59.485 39.298 59.644 39.298C59.858 39.298 61.785 39.363 63.06 41.53L63.076 41.559C63.145 41.685 63.254 41.7711 63.382 41.8051C63.419 41.8161 63.49 41.828 63.534 41.828C63.623 41.828 63.712 41.805 63.775 41.767L63.807 41.7521C64.504 41.4031 65.226 41.224 65.939 41.224C67.147 41.224 67.936 41.717 68.12 41.922C68.157 41.992 68.215 42.052 68.279 42.1C68.32 42.124 68.392 42.161 68.435 42.175C68.457 42.18 68.482 42.1831 68.506 42.1851C68.519 42.1881 68.534 42.188 68.549 42.188C68.613 42.188 68.676 42.172 68.738 42.141C68.836 42.091 68.91 42.002 68.941 41.895L68.981 41.755C68.993 41.718 68.998 41.6791 68.998 41.6381C68.998 41.5641 68.979 41.492 68.942 41.433C68.014 39.822 66.667 39.484 65.7 39.484C64.979 39.484 64.35 39.672 63.979 39.807C63.541 39.218 62.434 38 60.755 38C60.164 38.003 59.562 38.155 58.962 38.457Z" fill="#56C02B"/>
<path d="M48.861 45.812L48.874 46.0281C48.881 46.1621 48.952 46.279 49.066 46.349C49.16 46.409 49.281 46.4291 49.387 46.3981C49.41 46.3931 49.437 46.3841 49.457 46.3771C49.539 46.3431 49.61 46.291 49.664 46.224C49.867 46.078 50.522 45.811 51.487 45.811C52.416 45.811 53.828 46.058 55.268 47.241L55.301 47.275C55.403 47.364 55.535 47.4141 55.67 47.4141H55.705C55.855 47.4031 55.994 47.334 56.08 47.233L56.112 47.198C57.706 45.511 59.422 45.26 60.303 45.26C60.931 45.26 61.376 45.39 61.549 45.489C61.615 45.545 61.696 45.59 61.798 45.618C61.826 45.624 61.897 45.637 61.973 45.629C62.004 45.626 62.043 45.615 62.074 45.605C62.244 45.545 62.357 45.3791 62.345 45.1951L62.334 45.0071C62.327 44.8961 62.275 44.795 62.19 44.723C61.239 43.923 60.213 43.52 59.132 43.52C57.45 43.52 56.109 44.513 55.553 44.999C55.045 44.653 53.812 43.9401 52.364 43.9401C51.092 43.9401 49.951 44.4681 48.972 45.5071C48.895 45.5881 48.856 45.7 48.861 45.812Z" fill="#56C02B"/>
<path d="M24.668 49.6499C24.668 46.7869 26.989 44.4659 29.851 44.4659C29.963 44.4659 30.072 44.4759 30.183 44.4839C30.456 40.8609 33.475 38.0029 37.169 38.0029C41.042 38.0029 44.181 41.1429 44.181 45.0159C44.181 46.1139 43.922 47.1469 43.472 48.0729C46.983 48.8489 49.61 51.9749 49.61 55.7179C49.61 60.0459 46.101 63.5549 41.773 63.5549C41.457 63.5549 31.314 63.4939 31.314 63.4939C28.249 63.4929 25.765 61.0099 25.765 57.9449C25.765 56.4709 26.342 55.1379 27.278 54.1449C25.72 53.2509 24.668 51.5749 24.668 49.6499Z" fill="#56C02B"/>
<path d="M27.5 16V9H28.5V15.25H30.25V16H27.5ZM30.7656 16V9H31.7656V16H30.7656ZM32.8359 16V9H35.5859V9.75H33.8359V12H35.0859V12.75H33.8359V16H32.8359ZM36.0469 16V9H38.7969V9.75H37.0469V12H38.2969V12.75H37.0469V15.25H38.7969V16H36.0469ZM29.3047 26.0703C28.9531 26.0703 28.651 26.0169 28.3984 25.9102C28.1484 25.8034 27.9492 25.6471 27.8008 25.4414C27.6523 25.2357 27.5443 24.9948 27.4766 24.7188C27.4089 24.4401 27.375 24.1172 27.375 23.75V21.2109C27.375 20.8438 27.4089 20.5234 27.4766 20.25C27.5443 19.9766 27.6523 19.7396 27.8008 19.5391C27.9492 19.3359 28.1484 19.1836 28.3984 19.082C28.651 18.9805 28.9531 18.9297 29.3047 18.9297C29.987 18.9297 30.4792 19.125 30.7812 19.5156C31.0833 19.9062 31.2344 20.4714 31.2344 21.2109V23.75C31.2344 24.112 31.1992 24.4323 31.1289 24.7109C31.0612 24.987 30.9531 25.2292 30.8047 25.4375C30.6562 25.6432 30.4557 25.8008 30.2031 25.9102C29.9531 26.0169 29.6536 26.0703 29.3047 26.0703ZM28.5742 24.9336C28.7096 25.1445 28.9531 25.25 29.3047 25.25C29.6562 25.25 29.8984 25.1445 30.0312 24.9336C30.1667 24.7227 30.2344 24.4115 30.2344 24V20.9609C30.2344 20.5547 30.168 20.2513 30.0352 20.0508C29.9023 19.8503 29.6589 19.75 29.3047 19.75C28.9505 19.75 28.707 19.8503 28.5742 20.0508C28.4414 20.2513 28.375 20.5547 28.375 20.9609V24C28.375 24.4115 28.4414 24.7227 28.5742 24.9336ZM32.1094 26V19H32.8594L34.6094 23.3281V19H35.6094V26H34.8984L33.1094 21.3438V26H32.1094ZM38.2344 26V19H39.2344V25.25H40.9844V26H38.2344ZM42.5156 23.5H43.5156L43.0156 20.5L42.5156 23.5ZM41.0156 26L42.5156 19H43.5156L45.0156 26H44.0156L43.6406 24.25H42.3906L42.0156 26H41.0156ZM45.5781 26V19H46.3281L48.0781 23.3281V19H49.0781V26H48.3672L46.5781 21.3438V26H45.5781ZM50.0781 26V19H51.6289C52.3607 19 52.8763 19.1497 53.1758 19.4492C53.4779 19.7487 53.6289 20.2656 53.6289 21V23.75C53.6289 24.5182 53.4753 25.0859 53.168 25.4531C52.8633 25.8177 52.3477 26 51.6211 26H50.0781ZM51.0781 25.25H51.6289C51.793 25.25 51.9336 25.2357 52.0508 25.207C52.168 25.1758 52.263 25.1211 52.3359 25.043C52.4089 24.9622 52.4661 24.8867 52.5078 24.8164C52.5495 24.7435 52.5781 24.6315 52.5938 24.4805C52.612 24.3294 52.6224 24.2057 52.625 24.1094C52.6276 24.0104 52.6289 23.8581 52.6289 23.6523C52.6289 23.5846 52.6289 23.5339 52.6289 23.5V21.25C52.6289 21.1224 52.6276 21.0208 52.625 20.9453C52.625 20.8698 52.6211 20.7812 52.6133 20.6797C52.6081 20.5755 52.599 20.4935 52.5859 20.4336C52.5729 20.3737 52.5547 20.3073 52.5312 20.2344C52.5078 20.1589 52.4779 20.1003 52.4414 20.0586C52.4076 20.0169 52.3646 19.974 52.3125 19.9297C52.263 19.8828 52.2044 19.849 52.1367 19.8281C52.0716 19.8047 51.9948 19.7865 51.9062 19.7734C51.8177 19.7578 51.7188 19.75 51.6094 19.75H51.0781V25.25Z" fill="#56C02B"/>
<path d="M7.625 26V11.5625H5.65625V9.59375C6.97559 9.12207 7.85059 8.46582 8.28125 7.625H10.25V26H7.625ZM17.0483 26.1846C15.4146 26.1846 14.249 25.7266 13.5518 24.8105C12.8545 23.8877 12.5059 22.5342 12.5059 20.75H15.1309V21.1602C15.1309 21.5088 15.1411 21.813 15.1616 22.0728C15.189 22.3257 15.2368 22.5889 15.3052 22.8623C15.3804 23.1289 15.4795 23.3477 15.6025 23.5186C15.7324 23.6826 15.9067 23.8193 16.1255 23.9287C16.3442 24.0381 16.604 24.0928 16.9048 24.0928C17.144 24.0928 17.3594 24.0654 17.5508 24.0107C17.749 23.9492 17.9165 23.8774 18.0532 23.7954C18.1968 23.7065 18.3232 23.5801 18.4326 23.416C18.542 23.252 18.6309 23.1016 18.6992 22.9648C18.7744 22.8213 18.8359 22.6265 18.8838 22.3804C18.9316 22.1343 18.9658 21.9292 18.9863 21.7651C19.0137 21.5942 19.0342 21.3584 19.0479 21.0576C19.0615 20.75 19.0684 20.5142 19.0684 20.3501C19.0684 20.1792 19.0684 19.9263 19.0684 19.5913C19.0684 19.4409 19.0684 19.3281 19.0684 19.2529C19.0684 18.959 19.0649 18.7095 19.0581 18.5044C19.0513 18.2925 19.0308 18.0669 18.9966 17.8276C18.9692 17.5815 18.9282 17.3765 18.8735 17.2124C18.8188 17.0483 18.7437 16.8843 18.6479 16.7202C18.5522 16.5562 18.436 16.4263 18.2993 16.3306C18.1626 16.2349 17.9917 16.1597 17.7866 16.105C17.5884 16.0435 17.3628 16.0127 17.1099 16.0127C16.645 16.0127 16.2417 16.1631 15.8999 16.4639C15.5581 16.7646 15.3086 17.1201 15.1514 17.5303H12.916V7.625H21.0371V10.25H15.2949L15.1309 14.7002C15.8691 14.2627 16.7441 14.0439 17.7559 14.0439C18.3506 14.0439 18.8735 14.1362 19.3247 14.3208C19.7827 14.4985 20.1587 14.7446 20.4526 15.0591C20.7466 15.3735 20.9858 15.7632 21.1704 16.228C21.3618 16.6929 21.4951 17.1851 21.5703 17.7046C21.6523 18.2241 21.6934 18.8018 21.6934 19.4375C21.6934 20.2236 21.6523 20.9346 21.5703 21.5703C21.4883 22.2061 21.3413 22.8179 21.1294 23.4058C20.9175 23.9937 20.6406 24.4858 20.2988 24.8823C19.957 25.2788 19.5093 25.5967 18.9556 25.8359C18.4087 26.0684 17.7729 26.1846 17.0483 26.1846Z" fill="#56C02B"/>
</svg>
