<svg width="95" height="95" viewBox="0 0 95 95" fill="none" xmlns="http://www.w3.org/2000/svg">
<rect width="95" height="95" fill="white"/>
<path d="M74.192 72.7501C72.953 71.0751 64.95 60.8711 53.729 60.8711C43.985 60.8711 33.562 69.7101 33.562 69.7101C33.562 69.7101 29.646 61.694 21.637 60.925C21.59 60.925 21.539 60.915 21.486 60.915H21.437C21.269 60.924 21.112 61.0871 21.131 61.2311C21.153 61.3711 21.256 61.524 21.256 61.524C22.288 63.238 24.923 68.1141 24.923 72.9861C24.923 77.8741 22.273 82.7631 21.25 84.4691L21.181 84.576C21.151 84.628 21.131 84.6801 21.131 84.7451C21.131 84.9151 21.262 85.0471 21.426 85.0601L21.513 85.0541C21.54 85.0541 21.568 85.0541 21.597 85.0461C29.632 84.2971 33.562 76.259 33.562 76.259C33.562 76.259 43.985 85.097 53.729 85.097C64.95 85.097 72.953 74.892 74.192 73.222C74.226 73.177 74.254 73.1371 74.278 73.1071C74.292 73.0681 74.305 73.0311 74.305 72.9851C74.305 72.9411 74.292 72.897 74.278 72.863C74.254 72.829 74.226 72.7911 74.192 72.7501ZM59.9679 74.2761C58.159 74.2761 56.693 72.8081 56.693 71.0011C56.693 69.1911 58.159 67.728 59.9679 67.728C61.7809 67.728 63.247 69.1921 63.247 71.0011C63.247 72.8081 61.7809 74.2761 59.9679 74.2761Z" fill="#0A97D9"/>
<path d="M21.384 41.692C21.36 41.687 21.343 41.679 21.322 41.679C21.145 41.679 21 41.8239 21 42.0029V44.2369C21 44.3299 21.036 44.4129 21.094 44.4669C26.511 49.1729 31.639 44.763 32.826 43.599C32.851 43.563 32.876 43.53 32.911 43.507C32.964 43.474 33.022 43.449 33.089 43.449C33.172 43.449 33.251 43.481 33.306 43.536C33.311 43.542 33.317 43.5469 33.322 43.5499C39.441 49.3879 45.856 44.6589 47.191 43.5499L47.322 43.429C47.36 43.412 47.4 43.406 47.444 43.406C47.489 43.406 47.535 43.413 47.571 43.429L47.703 43.5499C49.037 44.6589 55.453 49.3879 61.571 43.5499C61.571 43.5469 61.579 43.542 61.582 43.536C61.64 43.481 61.715 43.449 61.8 43.449C61.866 43.449 61.927 43.473 61.978 43.507C62.014 43.529 62.04 43.563 62.068 43.599C63.253 44.763 68.377 49.1729 73.798 44.4669C73.854 44.4119 73.891 44.3289 73.891 44.2369V42.0029C73.891 41.8229 73.751 41.679 73.573 41.679C73.55 41.679 73.528 41.687 73.504 41.692C73.453 41.721 73.401 41.749 73.341 41.776C71.676 42.612 66.509 44.5959 61.819 40.1589C61.774 40.1179 61.729 40.0769 61.683 40.0289C61.64 40.0099 61.598 40 61.546 40C61.513 40 61.478 40.009 61.449 40.015C61.379 40.043 61.324 40.087 61.286 40.142C59.888 41.207 53.473 45.55 47.759 40.22L47.676 40.1389C47.616 40.0859 47.535 40.043 47.444 40.043C47.36 40.043 47.276 40.0859 47.22 40.1389L47.131 40.22C41.421 45.55 34.999 41.207 33.603 40.142C33.566 40.087 33.513 40.043 33.444 40.015C33.411 40.009 33.378 40 33.342 40C33.297 40 33.251 40.0109 33.207 40.0289C33.166 40.0769 33.116 40.1179 33.07 40.1589C28.381 44.5969 23.216 42.612 21.549 41.776C21.49 41.748 21.435 41.721 21.384 41.692Z" fill="#0A97D9"/>
<path d="M32.826 51.725C32.852 51.689 32.876 51.662 32.912 51.636C32.964 51.604 33.022 51.5759 33.088 51.5759C33.172 51.5759 33.251 51.61 33.307 51.666C33.311 51.671 33.317 51.675 33.322 51.679C39.439 57.511 45.856 52.784 47.191 51.679L47.322 51.554C47.359 51.54 47.4 51.5339 47.443 51.5339C47.49 51.5339 47.534 51.54 47.572 51.554L47.703 51.679C49.037 52.784 55.452 57.511 61.571 51.679C61.572 51.675 61.577 51.671 61.582 51.666C61.64 51.61 61.714 51.5759 61.799 51.5759C61.867 51.5759 61.927 51.603 61.976 51.636C62.015 51.661 62.04 51.689 62.067 51.725C63.252 52.892 68.375 57.3029 73.798 52.5919C73.854 52.5339 73.892 52.459 73.892 52.366V50.126C73.892 49.948 73.749 49.8059 73.573 49.8059C73.549 49.8059 73.528 49.8159 73.503 49.8199C73.453 49.8439 73.401 49.873 73.341 49.902C71.677 50.737 66.508 52.7159 61.819 48.2849C61.775 48.2439 61.729 48.202 61.683 48.157C61.64 48.132 61.598 48.125 61.546 48.125C61.513 48.125 61.478 48.1319 61.449 48.1489C61.378 48.1669 61.323 48.2109 61.286 48.2689C59.889 49.3319 53.472 53.6769 47.758 48.3469L47.675 48.2629C47.616 48.2059 47.534 48.174 47.443 48.174C47.359 48.174 47.276 48.2059 47.219 48.2629L47.131 48.3469C41.421 53.6769 34.998 49.3319 33.603 48.2689C33.566 48.2099 33.512 48.1659 33.444 48.1489C33.411 48.1309 33.377 48.125 33.342 48.125C33.296 48.125 33.251 48.132 33.208 48.157C33.164 48.202 33.117 48.2439 33.069 48.2849C28.38 52.7169 23.216 50.737 21.548 49.902C21.49 49.873 21.435 49.8439 21.384 49.8199C21.359 49.8159 21.343 49.8059 21.323 49.8059C21.145 49.8059 21 49.949 21 50.126V52.366C21 52.459 21.036 52.5339 21.093 52.5919C26.512 57.3029 31.64 52.892 32.826 51.725Z" fill="#0A97D9"/>
<path d="M27.5 16V9H28.5V15.25H30.25V16H27.5ZM30.7656 16V9H31.7656V16H30.7656ZM32.8359 16V9H35.5859V9.75H33.8359V12H35.0859V12.75H33.8359V16H32.8359ZM36.0469 16V9H38.7969V9.75H37.0469V12H38.2969V12.75H37.0469V15.25H38.7969V16H36.0469ZM28.5 22H29C29.8333 22 30.25 21.5833 30.25 20.75C30.25 20.612 30.2331 20.4909 30.1992 20.3867C30.1654 20.2799 30.125 20.1914 30.0781 20.1211C30.0312 20.0508 29.9596 19.9922 29.8633 19.9453C29.7695 19.8958 29.6836 19.8581 29.6055 19.832C29.5273 19.806 29.4154 19.7878 29.2695 19.7773C29.1263 19.7643 29.0065 19.7565 28.9102 19.7539C28.8138 19.7513 28.6771 19.75 28.5 19.75V22ZM28.5 25.25H29C29.4323 25.25 29.7487 25.151 29.9492 24.9531C30.1497 24.7526 30.25 24.4349 30.25 24C30.25 23.5651 30.1497 23.2487 29.9492 23.0508C29.7487 22.8503 29.4323 22.75 29 22.75H28.5V25.25ZM27.5 26V19H29C29.3229 19 29.612 19.0339 29.8672 19.1016C30.1224 19.1693 30.3451 19.2721 30.5352 19.4102C30.7279 19.5482 30.875 19.7305 30.9766 19.957C31.0807 20.1836 31.1328 20.4479 31.1328 20.75C31.1328 21.1875 31.0404 21.5208 30.8555 21.75C30.6706 21.9766 30.3854 22.1432 30 22.25C30.4167 22.388 30.7292 22.5911 30.9375 22.8594C31.1458 23.125 31.25 23.5052 31.25 24C31.25 24.6172 31.0703 25.1055 30.7109 25.4648C30.3542 25.8216 29.8672 26 29.25 26H27.5ZM31.9766 26V19H34.7266V19.75H32.9766V22H34.2266V22.75H32.9766V25.25H34.7266V26H31.9766ZM35.3438 26V19H36.3438V25.25H38.0938V26H35.3438ZM40.3672 26.0703C40.0156 26.0703 39.7135 26.0169 39.4609 25.9102C39.2109 25.8034 39.0117 25.6471 38.8633 25.4414C38.7148 25.2357 38.6068 24.9948 38.5391 24.7188C38.4714 24.4401 38.4375 24.1172 38.4375 23.75V21.2109C38.4375 20.8438 38.4714 20.5234 38.5391 20.25C38.6068 19.9766 38.7148 19.7396 38.8633 19.5391C39.0117 19.3359 39.2109 19.1836 39.4609 19.082C39.7135 18.9805 40.0156 18.9297 40.3672 18.9297C41.0495 18.9297 41.5417 19.125 41.8438 19.5156C42.1458 19.9062 42.2969 20.4714 42.2969 21.2109V23.75C42.2969 24.112 42.2617 24.4323 42.1914 24.7109C42.1237 24.987 42.0156 25.2292 41.8672 25.4375C41.7188 25.6432 41.5182 25.8008 41.2656 25.9102C41.0156 26.0169 40.7161 26.0703 40.3672 26.0703ZM39.6367 24.9336C39.7721 25.1445 40.0156 25.25 40.3672 25.25C40.7188 25.25 40.9609 25.1445 41.0938 24.9336C41.2292 24.7227 41.2969 24.4115 41.2969 24V20.9609C41.2969 20.5547 41.2305 20.2513 41.0977 20.0508C40.9648 19.8503 40.7214 19.75 40.3672 19.75C40.013 19.75 39.7695 19.8503 39.6367 20.0508C39.5039 20.2513 39.4375 20.5547 39.4375 20.9609V24C39.4375 24.4115 39.5039 24.7227 39.6367 24.9336ZM43.9648 26L42.7148 19H43.7148L44.2148 22.25L44.4688 24.25L44.7148 22.25L45.2148 19H46.2148L46.7148 22.25L46.9609 24.25L47.2148 22.25L47.7148 19H48.7148L47.4648 26H46.4648L45.9648 22.75L45.7148 20.75L45.4648 22.75L44.9648 26H43.9648ZM51.6758 26L50.4258 19H51.4258L51.9258 22.25L52.1797 24.25L52.4258 22.25L52.9258 19H53.9258L54.4258 22.25L54.6719 24.25L54.9258 22.25L55.4258 19H56.4258L55.1758 26H54.1758L53.6758 22.75L53.4258 20.75L53.1758 22.75L52.6758 26H51.6758ZM57.8672 23.5H58.8672L58.3672 20.5L57.8672 23.5ZM56.3672 26L57.8672 19H58.8672L60.3672 26H59.3672L58.9922 24.25H57.7422L57.3672 26H56.3672ZM61.4805 26V19.8906H60.2305V19H63.7305V19.8906H62.4805V26H61.4805ZM64.2266 26V19H66.9766V19.75H65.2266V22H66.4766V22.75H65.2266V25.25H66.9766V26H64.2266ZM68.5938 22H68.8438C69.2604 22 69.5729 21.9128 69.7812 21.7383C69.9896 21.5612 70.0938 21.2734 70.0938 20.875C70.0938 20.4766 69.9896 20.1901 69.7812 20.0156C69.5729 19.8385 69.2604 19.75 68.8438 19.75H68.5938V22ZM67.5938 26V19H68.8438C69.5885 19 70.1497 19.1445 70.5273 19.4336C70.9049 19.7227 71.0938 20.2031 71.0938 20.875C71.0938 21.2917 71.0195 21.6406 70.8711 21.9219C70.7227 22.2031 70.5052 22.3958 70.2188 22.5L71.3438 26H70.3516L69.3438 22.75H68.5938V26H67.5938Z" fill="#0A97D9"/>
<path d="M7.625 26V11.5625H5.65625V9.59375C6.97559 9.12207 7.85059 8.46582 8.28125 7.625H10.25V26H7.625ZM15.0386 18.8018H17.6636V10.9062L15.0386 18.8018ZM17.6636 26V21.2832H12.4136V18.3608L17.0073 7.61475H20.2886V18.8018H22.3188V21.2832H20.2886V26H17.6636Z" fill="#0A97D9"/>
</svg>
